999
dxfrw 0.6.3
  0
SECTION
  2
HEADER
  9
$ACADVER
  1
AC1021
  9
$DWGCODEPAGE
  3
ANSI_1252
  9
$INSBASE
 10
0
 20
0
 30
0
  9
$EXTMIN
 10
-22
 20
-568.6334000000001
 30
0
  9
$EXTMAX
 10
1413.0176
 20
568.6334000000001
 30
0
  9
$LIMMIN
 10
0
 20
0
  9
$LIMMAX
 10
12
 20
9
  9
$ORTHOMODE
 70
    1
  9
$REGENMODE
 70
    1
  9
$FILLMODE
 70
    1
  9
$QTEXTMODE
 70
    0
  9
$MIRRTEXT
 70
    1
  9
$LTSCALE
 40
1
  9
$ATTMODE
 70
    1
  9
$TEXTSIZE
 40
0.2
  9
$TRACEWID
 40
0.05
  9
$TEXTSTYLE
  7
STANDARD
  9
$CLAYER
  8
0
  9
$CELTYPE
  6
CONTINUOUS
  9
$CECOLOR
 62
  256
  9
$CELTSCALE
 40
1
  9
$DISPSILH
 70
    0
  9
$DIMSCALE
 40
1
  9
$DIMASZ
 40
0.18
  9
$DIMEXO
 40
0.0625
  9
$DIMDLI
 40
0.38
  9
$DIMRND
 40
0
  9
$DIMDLE
 40
0
  9
$DIMEXE
 40
0.18
  9
$DIMTP
 40
0
  9
$DIMTM
 40
0
  9
$DIMTXT
 40
0.18
  9
$DIMCEN
 40
0.09
  9
$DIMTSZ
 40
0
  9
$DIMTOL
 70
    0
  9
$DIMLIM
 70
    0
  9
$DIMTIH
 70
    1
  9
$DIMTOH
 70
    1
  9
$DIMSE1
 70
    0
  9
$DIMSE2
 70
    0
  9
$DIMTAD
 70
    0
  9
$DIMZIN
 70
    0
  9
$DIMBLK
  1

  9
$DIMASO
 70
    1
  9
$DIMSHO
 70
    1
  9
$DIMPOST
  1

  9
$DIMAPOST
  1

  9
$DIMALT
 70
    0
  9
$DIMALTD
 70
    2
  9
$DIMALTF
 40
25.4
  9
$DIMLFAC
 40
1
  9
$DIMTOFL
 70
    0
  9
$DIMTVP
 40
0
  9
$DIMTIX
 70
    0
  9
$DIMSOXD
 70
    0
  9
$DIMSAH
 70
    0
  9
$DIMBLK1
  1

  9
$DIMBLK2
  1

  9
$DIMSTYLE
  2
STANDARD
  9
$DIMCLRD
 70
    0
  9
$DIMCLRE
 70
    0
  9
$DIMCLRT
 70
    0
  9
$DIMTFAC
 40
1
  9
$DIMGAP
 40
0.09
  9
$DIMJUST
 70
    0
  9
$DIMSD1
 70
    0
  9
$DIMSD2
 70
    0
  9
$DIMTOLJ
 70
    1
  9
$DIMTZIN
 70
    0
  9
$DIMALTZ
 70
    0
  9
$DIMALTTZ
 70
    0
  9
$DIMUPT
 70
    0
  9
$DIMDEC
 70
    4
  9
$DIMTDEC
 70
    4
  9
$DIMALTU
 70
    2
  9
$DIMALTTD
 70
    2
  9
$DIMTXSTY
  7
STANDARD
  9
$DIMAUNIT
 70
    0
  9
$DIMADEC
 70
    0
  9
$DIMALTRND
 40
0
  9
$DIMAZIN
 70
    0
  9
$DIMDSEP
 70
   44
  9
$DIMATFIT
 70
    3
  9
$DIMFRAC
 70
    0
  9
$DIMLDRBLK
  1
STANDARD
  9
$DIMLUNIT
 70
    2
  9
$DIMLWD
 70
   -2
  9
$DIMLWE
 70
   -2
  9
$DIMTMOVE
 70
    0
  9
$DIMFXL
 40
1
  9
$DIMFXLON
 70
    0
  9
$DIMJOGANG
 40
0.7854
  9
$DIMTFILL
 70
    0
  9
$DIMTFILLCLR
 70
    0
  9
$DIMARCSYM
 70
    0
  9
$DIMLTYPE
  6

  9
$DIMLTEX1
  6

  9
$DIMLTEX2
  6

  9
$LUNITS
 70
    2
  9
$LUPREC
 70
    4
  9
$SKETCHINC
 40
0.1
  9
$FILLETRAD
 40
0
  9
$AUNITS
 70
    0
  9
$AUPREC
 70
    0
  9
$MENU
  1
acad
  9
$ELEVATION
 40
0
  9
$PELEVATION
 40
0
  9
$THICKNESS
 40
0
  9
$LIMCHECK
 70
    0
  9
$CHAMFERA
 40
0
  9
$CHAMFERB
 40
0
  9
$CHAMFERC
 40
0
  9
$CHAMFERD
 40
0
  9
$SKPOLY
 70
    0
  9
$USRTIMER
 70
    1
  9
$ANGBASE
 50
0
  9
$ANGDIR
 70
    0
  9
$PDMODE
 70
    0
  9
$PDSIZE
 40
0
  9
$PLINEWID
 40
0
  9
$SPLFRAME
 70
    0
  9
$SPLINETYPE
 70
    6
  9
$SPLINESEGS
 70
   10
  9
$HANDSEED
  5
20000
  9
$SURFTAB1
 70
    6
  9
$SURFTAB2
 70
    6
  9
$SURFTYPE
 70
    6
  9
$SURFU
 70
    6
  9
$SURFV
 70
    6
  9
$UCSBASE
  2

  9
$UCSNAME
  2

  9
$UCSORG
 10
0
 20
0
 30
0
  9
$UCSXDIR
 10
1
 20
0
 30
0
  9
$UCSYDIR
 10
0
 20
1
 30
0
  9
$UCSORTHOREF
  2

  9
$UCSORTHOVIEW
 70
    0
  9
$UCSORGTOP
 10
0
 20
0
 30
0
  9
$UCSORGBOTTOM
 10
0
 20
0
 30
0
  9
$UCSORGLEFT
 10
0
 20
0
 30
0
  9
$UCSORGRIGHT
 10
0
 20
0
 30
0
  9
$UCSORGFRONT
 10
0
 20
0
 30
0
  9
$UCSORGBACK
 10
0
 20
0
 30
0
  9
$PUCSBASE
  2

  9
$PUCSNAME
  2

  9
$PUCSORG
 10
0
 20
0
 30
0
  9
$PUCSXDIR
 10
1
 20
0
 30
0
  9
$PUCSYDIR
 10
0
 20
1
 30
0
  9
$PUCSORTHOREF
  2

  9
$PUCSORTHOVIEW
 70
    0
  9
$PUCSORGTOP
 10
0
 20
0
 30
0
  9
$PUCSORGBOTTOM
 10
0
 20
0
 30
0
  9
$PUCSORGLEFT
 10
0
 20
0
 30
0
  9
$PUCSORGRIGHT
 10
0
 20
0
 30
0
  9
$PUCSORGFRONT
 10
0
 20
0
 30
0
  9
$PUCSORGBACK
 10
0
 20
0
 30
0
  9
$USERI1
 70
    0
  9
$USERI2
 70
    0
  9
$USERI3
 70
    0
  9
$USERI4
 70
    0
  9
$USERI5
 70
    0
  9
$USERR1
 40
0
  9
$USERR2
 40
0
  9
$USERR3
 40
0
  9
$USERR4
 40
0
  9
$USERR5
 40
0
  9
$WORLDVIEW
 70
    1
  9
$SHADEDGE
 70
    3
  9
$SHADEDIF
 70
   70
  9
$TILEMODE
 70
    1
  9
$MAXACTVP
 70
   16
  9
$PINSBASE
 10
0
 20
0
 30
0
  9
$PLIMCHECK
 70
    0
  9
$PEXTMIN
 10
-1e+20
 20
-1e+20
 30
-1e+20
  9
$PEXTMAX
 10
-1e+20
 20
-1e+20
 30
-1e+20
  9
$GRIDMODE
 70
    0
  9
$SNAPSTYLE
 70
    0
  9
$PLIMMIN
 10
0
 20
0
  9
$PLIMMAX
 10
12
 20
9
  9
$UNITMODE
 70
    0
  9
$VISRETAIN
 70
    0
  9
$PLINEGEN
 70
    1
  9
$PSLTSCALE
 70
    0
  9
$TREEDEPTH
 70
 3020
  9
$CMLSTYLE
  2
STANDARD
  9
$CMLJUST
 70
    0
  9
$CMLSCALE
 40
1
  9
$PROXYGRAPHICS
 70
    1
  9
$MEASUREMENT
 70
    1
  9
$CELWEIGHT
370
   -1
  9
$ENDCAPS
280
    0
  9
$JOINSTYLE
280
    0
  9
$LWDISPLAY
290
    0
  9
$INSUNITS
 70
    4
  9
$HYPERLINKBASE
  1

  9
$STYLESHEET
  1

  9
$XEDIT
290
    1
  9
$CEPSNTYPE
380
    0
  9
$PSTYLEMODE
290
    1
  9
$EXTNAMES
290
    1
  9
$PSVPSCALE
 40
1
  9
$OLESTARTUP
290
    0
  9
$SORTENTS
280
  127
  9
$INDEXCTL
280
    0
  9
$HIDETEXT
280
    1
  9
$XCLIPFRAME
290
    0
  9
$HALOGAP
280
    0
  9
$OBSCOLOR
 70
  257
  9
$OBSLTYPE
280
    0
  9
$INTERSECTIONDISPLAY
280
    0
  9
$INTERSECTIONCOLOR
 70
  257
  9
$DIMASSOC
280
    1
  9
$PROJECTNAME
  1

  9
$CAMERADISPLAY
290
    0
  9
$LENSLENGTH
 40
50
  9
$CAMERAHEIGHT
 40
0
  9
$STEPSPERSEC
 40
2
  9
$STEPSIZE
 40
50
  9
$3DDWFPREC
 40
2
  9
$PSOLWIDTH
 40
5
  9
$PSOLHEIGHT
 40
80
  9
$LOFTANG1
 40
1.570796326794897
  9
$LOFTANG2
 40
1.570796326794897
  9
$LOFTMAG1
 40
0
  9
$LOFTMAG2
 40
0
  9
$LOFTPARAM
 70
    7
  9
$LOFTNORMALS
280
    1
  9
$LATITUDE
 40
1
  9
$LONGITUDE
 40
1
  9
$NORTHDIRECTION
 40
0
  9
$TIMEZONE
 70
-8000
  9
$LIGHTGLYPHDISPLAY
280
    1
  9
$TILEMODELIGHTSYNCH
280
    1
  9
$SOLIDHIST
280
    1
  9
$SHOWHIST
280
    1
  9
$DWFFRAME
280
    2
  9
$DGNFRAME
280
    0
  9
$REALWORLDSCALE
290
    1
  9
$INTERFERECOLOR
 62
    1
  9
$CSHADOW
280
    0
  9
$SHADOWPLANELOCATION
 40
0
  0
ENDSEC
  0
SECTION
  2
CLASSES
  0
ENDSEC
  0
SECTION
  2
TABLES
  0
TABLE
  2
VPORT
  5
8
330
0
100
AcDbSymbolTable
 70
    1
  0
VPORT
  5
31
330
2
100
AcDbSymbolTableRecord
100
AcDbViewportTableRecord
  2
*ACTIVE
 70
    0
 10
0
 20
0
 11
1
 21
1
 12
1391.800961029772
 22
870.3182854276502
 13
0
 23
0
 14
10
 24
10
 15
10
 25
10
 16
0
 26
0
 36
1
 17
0
 27
0
 37
0
 40
2287.79496393189
 41
1.692724458204334
 42
50
 43
0
 44
0
 50
0
 51
0
 71
    0
 72
  100
 73
    1
 74
    3
 75
    0
 76
    0
 77
    0
 78
    0
281
    0
 65
    1
110
0
120
0
130
0
111
1
121
0
131
0
112
0
122
1
132
0
 79
    0
146
0
348
10020
 60
    7
 61
    5
292
1
282
    1
141
0
142
0
 63
  250
421
3358443
  0
ENDTAB
  0
TABLE
  2
LTYPE
  5
5
330
0
100
AcDbSymbolTable
 70
    4
  0
LTYPE
  5
14
330
5
100
AcDbSymbolTableRecord
100
AcDbLinetypeTableRecord
  2
ByBlock
 70
    0
  3

 72
   65
 73
    0
 40
0
  0
LTYPE
  5
15
330
5
100
AcDbSymbolTableRecord
100
AcDbLinetypeTableRecord
  2
ByLayer
 70
    0
  3

 72
   65
 73
    0
 40
0
  0
LTYPE
  5
16
330
5
100
AcDbSymbolTableRecord
100
AcDbLinetypeTableRecord
  2
Continuous
 70
    0
  3
Solid line
 72
   65
 73
    0
 40
0
  0
LTYPE
  5
32
330
5
100
AcDbSymbolTableRecord
100
AcDbLinetypeTableRecord
  2
DOT
 70
    0
  3
Dot . . . . . . . . . . . . . . . . . . . . . .
 72
   65
 73
    2
 40
6.35
 49
0
 74
    0
 49
-6.35
 74
    0
  0
LTYPE
  5
33
330
5
100
AcDbSymbolTableRecord
100
AcDbLinetypeTableRecord
  2
DOTTINY
 70
    0
  3
Dot (.15x) .....................................
 72
   65
 73
    2
 40
0.9525
 49
0
 74
    0
 49
-0.9525
 74
    0
  0
LTYPE
  5
34
330
5
100
AcDbSymbolTableRecord
100
AcDbLinetypeTableRecord
  2
DOT2
 70
    0
  3
Dot (.5x) .....................................
 72
   65
 73
    2
 40
3.175
 49
0
 74
    0
 49
-3.175
 74
    0
  0
LTYPE
  5
35
330
5
100
AcDbSymbolTableRecord
100
AcDbLinetypeTableRecord
  2
DOTX2
 70
    0
  3
Dot (2x) .  .  .  .  .  .  .  .  .  .  .  .  .
 72
   65
 73
    2
 40
12.7
 49
0
 74
    0
 49
-12.7
 74
    0
  0
LTYPE
  5
36
330
5
100
AcDbSymbolTableRecord
100
AcDbLinetypeTableRecord
  2
DASHED
 70
    0
  3
Dashed _ _ _ _ _ _ _ _ _ _ _ _ _ _ _ _ _
 72
   65
 73
    2
 40
19.05
 49
12.7
 74
    0
 49
-6.35
 74
    0
  0
LTYPE
  5
37
330
5
100
AcDbSymbolTableRecord
100
AcDbLinetypeTableRecord
  2
DASHEDTINY
 70
    0
  3
Dashed (.15x) _ _ _ _ _ _ _ _ _ _ _ _ _ _ _ _ _
 72
   65
 73
    2
 40
2.8575
 49
1.905
 74
    0
 49
-0.9525
 74
    0
  0
LTYPE
  5
38
330
5
100
AcDbSymbolTableRecord
100
AcDbLinetypeTableRecord
  2
DASHED2
 70
    0
  3
Dashed (.5x) _ _ _ _ _ _ _ _ _ _ _ _ _ _ _ _ _
 72
   65
 73
    2
 40
9.524999999999999
 49
6.35
 74
    0
 49
-3.175
 74
    0
  0
LTYPE
  5
39
330
5
100
AcDbSymbolTableRecord
100
AcDbLinetypeTableRecord
  2
DASHEDX2
 70
    0
  3
Dashed (2x) ____  ____  ____  ____  ____  ___
 72
   65
 73
    2
 40
38.09999999999999
 49
25.4
 74
    0
 49
-12.7
 74
    0
  0
LTYPE
  5
3A
330
5
100
AcDbSymbolTableRecord
100
AcDbLinetypeTableRecord
  2
DASHDOT
 70
    0
  3
Dash dot __ . __ . __ . __ . __ . __ . __ . __
 72
   65
 73
    4
 40
25.4
 49
12.7
 74
    0
 49
-6.35
 74
    0
 49
0
 74
    0
 49
-6.35
 74
    0
  0
LTYPE
  5
3B
330
5
100
AcDbSymbolTableRecord
100
AcDbLinetypeTableRecord
  2
DASHDOTTINY
 70
    0
  3
Dash dot (.15x) _._._._._._._._._._._._._._._.
 72
   65
 73
    4
 40
3.81
 49
1.905
 74
    0
 49
-0.9525
 74
    0
 49
0
 74
    0
 49
-0.9525
 74
    0
  0
LTYPE
  5
3C
330
5
100
AcDbSymbolTableRecord
100
AcDbLinetypeTableRecord
  2
DASHDOT2
 70
    0
  3
Dash dot (.5x) _._._._._._._._._._._._._._._.
 72
   65
 73
    4
 40
12.7
 49
6.35
 74
    0
 49
-3.175
 74
    0
 49
0
 74
    0
 49
-3.175
 74
    0
  0
LTYPE
  5
3D
330
5
100
AcDbSymbolTableRecord
100
AcDbLinetypeTableRecord
  2
DASHDOTX2
 70
    0
  3
Dash dot (2x) ____  .  ____  .  ____  .  ___
 72
   65
 73
    4
 40
50.8
 49
25.4
 74
    0
 49
-12.7
 74
    0
 49
0
 74
    0
 49
-12.7
 74
    0
  0
LTYPE
  5
3E
330
5
100
AcDbSymbolTableRecord
100
AcDbLinetypeTableRecord
  2
DIVIDE
 70
    0
  3
Divide ____ . . ____ . . ____ . . ____ . . ____
 72
   65
 73
    6
 40
31.75
 49
12.7
 74
    0
 49
-6.35
 74
    0
 49
0
 74
    0
 49
-6.35
 74
    0
 49
0
 74
    0
 49
-6.35
 74
    0
  0
LTYPE
  5
3F
330
5
100
AcDbSymbolTableRecord
100
AcDbLinetypeTableRecord
  2
DIVIDETINY
 70
    0
  3
Divide (.15x) __..__..__..__..__..__..__..__.._
 72
   65
 73
    6
 40
4.7625
 49
1.905
 74
    0
 49
-0.9525
 74
    0
 49
0
 74
    0
 49
-0.9525
 74
    0
 49
0
 74
    0
 49
-0.9525
 74
    0
  0
LTYPE
  5
40
330
5
100
AcDbSymbolTableRecord
100
AcDbLinetypeTableRecord
  2
DIVIDE2
 70
    0
  3
Divide (.5x) __..__..__..__..__..__..__..__.._
 72
   65
 73
    6
 40
15.875
 49
6.35
 74
    0
 49
-3.175
 74
    0
 49
0
 74
    0
 49
-3.175
 74
    0
 49
0
 74
    0
 49
-3.175
 74
    0
  0
LTYPE
  5
41
330
5
100
AcDbSymbolTableRecord
100
AcDbLinetypeTableRecord
  2
DIVIDEX2
 70
    0
  3
Divide (2x) ________  .  .  ________  .  .  _
 72
   65
 73
    6
 40
63.5
 49
25.4
 74
    0
 49
-12.7
 74
    0
 49
0
 74
    0
 49
-12.7
 74
    0
 49
0
 74
    0
 49
-12.7
 74
    0
  0
LTYPE
  5
42
330
5
100
AcDbSymbolTableRecord
100
AcDbLinetypeTableRecord
  2
BORDER
 70
    0
  3
Border __ __ . __ __ . __ __ . __ __ . __ __ .
 72
   65
 73
    6
 40
44.45
 49
12.7
 74
    0
 49
-6.35
 74
    0
 49
12.7
 74
    0
 49
-6.35
 74
    0
 49
0
 74
    0
 49
-6.35
 74
    0
  0
LTYPE
  5
43
330
5
100
AcDbSymbolTableRecord
100
AcDbLinetypeTableRecord
  2
BORDERTINY
 70
    0
  3
Border (.15x) __.__.__.__.__.__.__.__.__.__.__.
 72
   65
 73
    6
 40
6.6675
 49
1.905
 74
    0
 49
-0.9525
 74
    0
 49
1.905
 74
    0
 49
-0.9525
 74
    0
 49
0
 74
    0
 49
-0.9525
 74
    0
  0
LTYPE
  5
44
330
5
100
AcDbSymbolTableRecord
100
AcDbLinetypeTableRecord
  2
BORDER2
 70
    0
  3
Border (.5x) __.__.__.__.__.__.__.__.__.__.__.
 72
   65
 73
    6
 40
22.225
 49
6.35
 74
    0
 49
-3.175
 74
    0
 49
6.35
 74
    0
 49
-3.175
 74
    0
 49
0
 74
    0
 49
-3.175
 74
    0
  0
LTYPE
  5
45
330
5
100
AcDbSymbolTableRecord
100
AcDbLinetypeTableRecord
  2
BORDERX2
 70
    0
  3
Border (2x) ____  ____  .  ____  ____  .  ___
 72
   65
 73
    6
 40
88.89999999999999
 49
25.4
 74
    0
 49
-12.7
 74
    0
 49
25.4
 74
    0
 49
-12.7
 74
    0
 49
0
 74
    0
 49
-12.7
 74
    0
  0
LTYPE
  5
46
330
5
100
AcDbSymbolTableRecord
100
AcDbLinetypeTableRecord
  2
CENTER
 70
    0
  3
Center ____ _ ____ _ ____ _ ____ _ ____ _ ____
 72
   65
 73
    4
 40
50.8
 49
31.75
 74
    0
 49
-6.35
 74
    0
 49
6.35
 74
    0
 49
-6.35
 74
    0
  0
LTYPE
  5
47
330
5
100
AcDbSymbolTableRecord
100
AcDbLinetypeTableRecord
  2
CENTERTINY
 70
    0
  3
Center (.15x) ___ _ ___ _ ___ _ ___ _ ___ _ ___
 72
   65
 73
    4
 40
7.619999999999999
 49
4.7625
 74
    0
 49
-0.9525
 74
    0
 49
0.9525
 74
    0
 49
-0.9525
 74
    0
  0
LTYPE
  5
48
330
5
100
AcDbSymbolTableRecord
100
AcDbLinetypeTableRecord
  2
CENTER2
 70
    0
  3
Center (.5x) ___ _ ___ _ ___ _ ___ _ ___ _ ___
 72
   65
 73
    4
 40
28.575
 49
19.05
 74
    0
 49
-3.175
 74
    0
 49
3.175
 74
    0
 49
-3.175
 74
    0
  0
LTYPE
  5
49
330
5
100
AcDbSymbolTableRecord
100
AcDbLinetypeTableRecord
  2
CENTERX2
 70
    0
  3
Center (2x) ________  __  ________  __  _____
 72
   65
 73
    4
 40
101.6
 49
63.5
 74
    0
 49
-12.7
 74
    0
 49
12.7
 74
    0
 49
-12.7
 74
    0
  0
ENDTAB
  0
TABLE
  2
LAYER
  5
2
330
0
100
AcDbSymbolTable
 70
    1
  0
LAYER
  5
10
330
2
100
AcDbSymbolTableRecord
100
AcDbLayerTableRecord
  2
0
 70
    0
 62
    7
  6
CONTINUOUS
370
   -3
390
F
  0
LAYER
  5
4A
330
2
100
AcDbSymbolTableRecord
100
AcDbLayerTableRecord
  2
1
 70
    0
 62
    7
  6
CONTINUOUS
370
   -3
390
F
  0
LAYER
  5
4B
330
2
100
AcDbSymbolTableRecord
100
AcDbLayerTableRecord
  2
2
 70
    0
 62
    7
  6
CONTINUOUS
370
   -3
390
F
  0
LAYER
  5
4C
330
2
100
AcDbSymbolTableRecord
100
AcDbLayerTableRecord
  2
3
 70
    0
 62
    7
  6
CONTINUOUS
370
   -3
390
F
  0
LAYER
  5
4D
330
2
100
AcDbSymbolTableRecord
100
AcDbLayerTableRecord
  2
CONSTRUCTION_CLASS
 70
    0
 62
    7
  6
CONTINUOUS
370
   -3
390
F
  0
LAYER
  5
4E
330
2
100
AcDbSymbolTableRecord
100
AcDbLayerTableRecord
  2
PATTERN_CLASS
 70
    0
 62
    7
  6
CONTINUOUS
370
   -3
390
F
  0
ENDTAB
  0
TABLE
  2
STYLE
  5
3
330
0
100
AcDbSymbolTable
 70
    3
  0
STYLE
  5
4F
330
2
100
AcDbSymbolTableRecord
100
AcDbTextStyleTableRecord
  2
standard
 70
    0
 40
0
 41
1
 50
0
 71
    0
 42
1
  3
standard
  4

  0
ENDTAB
  0
TABLE
  2
VIEW
  5
6
330
0
100
AcDbSymbolTable
 70
    0
  0
ENDTAB
  0
TABLE
  2
UCS
  5
7
330
0
100
AcDbSymbolTable
 70
    0
  0
ENDTAB
  0
TABLE
  2
APPID
  5
9
330
0
100
AcDbSymbolTable
 70
    1
  0
APPID
  5
12
330
9
100
AcDbSymbolTableRecord
100
AcDbRegAppTableRecord
  2
ACAD
 70
    0
  0
APPID
  5
50
330
9
100
AcDbSymbolTableRecord
100
AcDbRegAppTableRecord
  2
LibreCad
 70
    0
  0
ENDTAB
  0
TABLE
  2
DIMSTYLE
  5
A
330
0
100
AcDbSymbolTable
 70
    1
100
AcDbDimStyleTable
 71
    1
  0
DIMSTYLE
105
51
330
A
100
AcDbSymbolTableRecord
100
AcDbDimStyleTableRecord
  2
Standard
 70
    0
 40
1
 41
0.18
 42
0.0625
 43
0.38
 44
0.18
 45
0
 46
0
 47
0
 48
0
 49
1
140
0.18
141
0.09
142
0
143
25.4
144
1
145
0
146
1
147
0.09
148
0
 71
    0
 72
    0
 73
    1
 74
    1
 75
    0
 76
    0
 77
    0
 78
    0
 79
    0
170
    0
171
    2
172
    0
173
    0
174
    0
175
    0
176
    0
177
    0
178
    0
179
    0
271
    4
272
    4
273
    2
274
    2
275
    0
276
    0
277
    2
278
   44
279
    0
280
    0
281
    0
282
    0
283
    1
284
    0
285
    0
286
    0
288
    0
289
    3
340
STANDARD
341

371
   -2
372
   -2
  0
ENDTAB
  0
TABLE
  2
BLOCK_RECORD
  5
1
330
0
100
AcDbSymbolTable
 70
    2
  0
BLOCK_RECORD
  5
1F
330
1
100
AcDbSymbolTableRecord
100
AcDbBlockTableRecord
  2
*Model_Space
 70
    0
280
    1
281
    0
  0
BLOCK_RECORD
  5
1E
330
1
100
AcDbSymbolTableRecord
100
AcDbBlockTableRecord
  2
*Paper_Space
 70
    0
280
    1
281
    0
  0
BLOCK_RECORD
  5
52
330
1
100
AcDbSymbolTableRecord
100
AcDbBlockTableRecord
  2
37-DIM
 70
    0
280
    1
281
    0
  0
ENDTAB
  0
ENDSEC
  0
SECTION
  2
BLOCKS
  0
BLOCK
  5
20
330
1F
100
AcDbEntity
  8
0
100
AcDbBlockBegin
  2
*Model_Space
 70
    0
 10
0
 20
0
 30
0
  3
*Model_Space
  1

  0
ENDBLK
  5
21
330
1F
100
AcDbEntity
  8
0
100
AcDbBlockEnd
  0
BLOCK
  5
1C
330
1B
100
AcDbEntity
  8
0
100
AcDbBlockBegin
  2
*Paper_Space
 70
    0
 10
0
 20
0
 30
0
  3
*Paper_Space
  1

  0
ENDBLK
  5
1D
330
1F
100
AcDbEntity
  8
0
100
AcDbBlockEnd
  0
BLOCK
  5
53
330
52
100
AcDbEntity
  8
0
100
AcDbBlockBegin
  2
37-DIM
 70
    0
 10
0
 20
0
  3
37-DIM
  1

  0
TEXT
  5
55
100
AcDbEntity
  8
0
  6
CONTINUOUS
 62
  256
370
   -1
100
AcDbText
 10
2298.154714
 20
1139.863899
 30
0
 40
20.42183
  1
105 FT 7 IN
 50
0
 41
1
 51
0
  7
standard
 71
    0
 72
    4
 11
2298.154714
 21
1139.863899
 31
0
210
0
220
0
230
1
100
AcDbText
  0
SOLID
  5
56
100
AcDbEntity
  8
0
  6
CONTINUOUS
 62
  256
370
   -1
100
AcDbTrace
 10
1664.056827
 20
1142.515776
 30
0
 11
1664.056827
 21
1133.515776
 31
0
 12
1637.056827
 22
1138.015776
 32
0
 13
1637.056827
 23
1138.015776
 33
0
  0
LINE
  5
57
100
AcDbEntity
  8
0
  6
CONTINUOUS
 62
  256
370
   -1
100
AcDbLine
 10
1637.056827
 20
1434.664457
 11
1637.056827
 21
1126.015776
  0
LINE
  5
58
100
AcDbEntity
  8
0
  6
CONTINUOUS
 62
  256
370
   -1
100
AcDbLine
 10
1637.056827
 20
1138.015776
 11
2177.118082
 21
1138.015776
  0
SOLID
  5
59
100
AcDbEntity
  8
0
  6
CONTINUOUS
 62
  256
370
   -1
100
AcDbTrace
 10
2877.056827
 20
1142.515776
 30
0
 11
2877.056827
 21
1133.515776
 31
0
 12
2904.056827
 22
1138.015776
 32
0
 13
2904.056827
 23
1138.015776
 33
0
  0
LINE
  5
5A
100
AcDbEntity
  8
0
  6
CONTINUOUS
 62
  256
370
   -1
100
AcDbLine
 10
2904.056827
 20
1479.635713
 11
2904.056827
 21
1126.015776
  0
LINE
  5
5B
100
AcDbEntity
  8
0
  6
CONTINUOUS
 62
  256
370
   -1
100
AcDbLine
 10
2420.164215
 20
1138.015776
 11
2904.056827
 21
1138.015776
  0
TEXT
  5
5C
100
AcDbEntity
  8
0
  6
CONTINUOUS
 62
  256
370
   -1
100
AcDbText
 10
2298.154714
 20
-243.878353
 30
0
 40
20.42183
  1
109 FT 7 IN
 50
0
 41
1
 51
0
  7
standard
 71
    0
 72
    4
 11
2298.154714
 21
-243.878353
 31
0
210
0
220
0
230
1
100
AcDbText
  0
LINE
  5
5D
100
AcDbEntity
  8
0
  6
CONTINUOUS
 62
  256
370
   -1
100
AcDbLine
 10
1637.056827
 20
374.992864
 11
1637.056827
 21
-257.726477
  0
LINE
  5
5E
100
AcDbEntity
  8
0
  6
CONTINUOUS
 62
  256
370
   -1
100
AcDbLine
 10
1637.056827
 20
-245.726477
 11
2177.118082
 21
-245.726477
  0
SOLID
  5
5F
100
AcDbEntity
  8
0
  6
CONTINUOUS
 62
  256
370
   -1
100
AcDbTrace
 10
1664.056827
 20
-241.226477
 30
0
 11
1664.056827
 21
-250.226477
 31
0
 12
1637.056827
 22
-245.726477
 32
0
 13
1637.056827
 23
-245.726477
 33
0
  0
LINE
  5
60
100
AcDbEntity
  8
0
  6
CONTINUOUS
 62
  256
370
   -1
100
AcDbLine
 10
2952.056827
 20
144.100303
 11
2952.056827
 21
-257.726477
  0
LINE
  5
61
100
AcDbEntity
  8
0
  6
CONTINUOUS
 62
  256
370
   -1
100
AcDbLine
 10
2420.164215
 20
-245.726477
 11
2952.056827
 21
-245.726477
  0
SOLID
  5
62
100
AcDbEntity
  8
0
  6
CONTINUOUS
 62
  256
370
   -1
100
AcDbTrace
 10
2925.056827
 20
-241.226477
 30
0
 11
2925.056827
 21
-250.226477
 31
0
 12
2952.056827
 22
-245.726477
 32
0
 13
2952.056827
 23
-245.726477
 33
0
  0
LINE
  5
63
100
AcDbEntity
  8
0
  6
CONTINUOUS
 62
  256
370
   -1
100
AcDbLine
 10
2952.056827
 20
-245.726477
 11
2952.056827
 21
-243.721202
  0
LINE
  5
64
100
AcDbEntity
  8
0
  6
CONTINUOUS
 62
  256
370
   -1
100
AcDbLine
 10
915.120852
 20
661.593263
 11
1368.400953
 21
661.593263
  0
LINE
  5
65
100
AcDbEntity
  8
0
  6
CONTINUOUS
 62
  256
370
   -1
100
AcDbLine
 10
231.400953
 20
661.593263
 11
680.762618
 21
661.593263
  0
LINE
  5
66
100
AcDbEntity
  8
0
  6
ByLayer
 62
  256
370
   -1
100
AcDbLine
 10
231.400953
 20
824.161229
 11
231.400953
 21
649.593263
  0
SOLID
  5
67
100
AcDbEntity
  8
0
  6
CONTINUOUS
 62
  256
370
   -1
100
AcDbTrace
 10
258.400953
 20
666.093263
 30
0
 11
258.400953
 21
657.093263
 31
0
 12
231.400953
 22
661.593263
 32
0
 13
231.400953
 23
661.593263
 33
0
  0
TEXT
  5
68
100
AcDbEntity
  8
0
  6
CONTINUOUS
 62
  256
370
   -1
100
AcDbText
 10
801.0733760000001
 20
663.441387
 30
0
 40
20.42183
  1
94 FT 9 IN
 50
0
 41
1
 51
0
  7
standard
 71
    0
 72
    4
 11
801.0733760000001
 21
663.441387
 31
0
210
0
220
0
230
1
100
AcDbText
  0
LINE
  5
69
100
AcDbEntity
  8
0
  6
ByLayer
 62
  256
370
   -1
100
AcDbLine
 10
1368.400953
 20
824.161229
 11
1368.400953
 21
649.593263
  0
SOLID
  5
6A
100
AcDbEntity
  8
0
  6
CONTINUOUS
 62
  256
370
   -1
100
AcDbTrace
 10
1341.400953
 20
666.093263
 30
0
 11
1341.400953
 21
657.093263
 31
0
 12
1368.400953
 22
661.593263
 32
0
 13
1368.400953
 23
661.593263
 33
0
  0
LINE
  5
6B
100
AcDbEntity
  8
0
  6
CONTINUOUS
 62
  256
370
   -1
100
AcDbLine
 10
926.821321
 20
1229.757528
 11
1049.900953
 21
1229.757528
  0
LINE
  5
6C
100
AcDbEntity
  8
0
  6
ByLayer
 62
  256
370
   -1
100
AcDbLine
 10
549.900953
 20
1236.507528
 11
549.900953
 21
928.1633
  0
LINE
  5
6D
100
AcDbEntity
  8
0
  6
CONTINUOUS
 62
  256
370
   -1
100
AcDbLine
 10
573.182203
 20
1229.757528
 11
692.6424510000001
 21
1229.757528
  0
SOLID
  5
6E
100
AcDbEntity
  8
0
  6
CONTINUOUS
 62
  256
370
   -1
100
AcDbTrace
 10
576.900953
 20
1234.257528
 30
0
 11
576.900953
 21
1225.257528
 31
0
 12
549.900953
 22
1229.757528
 32
0
 13
549.900953
 23
1229.757528
 33
0
  0
LINE
  5
6F
100
AcDbEntity
  8
0
  6
CONTINUOUS
 62
  256
370
   -1
100
AcDbLine
 10
549.900953
 20
1229.757528
 11
549.900953
 21
1231.762803
  0
TEXT
  5
70
100
AcDbEntity
  8
0
  6
CONTINUOUS
 62
  256
370
   -1
100
AcDbText
 10
808.6827060000001
 20
1231.605652
 30
0
 40
20.42183
  1
41 FT 8 IN
 50
0
 41
1
 51
0
  7
standard
 71
    0
 72
    4
 11
808.6827060000001
 21
1231.605652
 31
0
210
0
220
0
230
1
100
AcDbText
  0
LINE
  5
71
100
AcDbEntity
  8
0
  6
ByLayer
 62
  256
370
   -1
100
AcDbLine
 10
1049.900953
 20
1236.507528
 11
1049.900953
 21
928.1633
  0
SOLID
  5
72
100
AcDbEntity
  8
0
  6
CONTINUOUS
 62
  256
370
   -1
100
AcDbTrace
 10
1022.900953
 20
1234.257528
 30
0
 11
1022.900953
 21
1225.257528
 31
0
 12
1049.900953
 22
1229.757528
 32
0
 13
1049.900953
 23
1229.757528
 33
0
  0
LINE
  5
73
100
AcDbEntity
  8
0
  6
CONTINUOUS
 62
  256
370
   -1
100
AcDbLine
 10
1049.900953
 20
1229.757528
 11
1049.900953
 21
1231.762803
  0
ENDBLK
  5
54
330
52
100
AcDbEntity
  8
0
100
AcDbBlockEnd
  0
ENDSEC
  0
SECTION
  2
ENTITIES
  0
LINE
  5
74
100
AcDbEntity
  8
3
  6
CONTINUOUS
 62
    7
370
   -1
100
AcDbLine
 10
839.0919
 20
568.6334000000001
 11
865.4013
 21
568.6334000000001
  0
LWPOLYLINE
  5
75
100
AcDbEntity
  8
3
  6
CONTINUOUS
 62
    7
370
   -1
100
AcDbPolyline
 90
   33
 70
    0
 43
0
 10
795.2917
 20
552.5146
 10
795.4818
 20
552.8698000000001
 10
795.684
 20
553.2476
 10
795.9536000000001
 20
553.7514
 10
796.1633
 20
554.1433
 10
796.3098
 20
554.417
 10
796.4405
 20
554.6612
 10
796.5719
 20
554.9067
 10
796.6931
 20
555.1333
 10
796.843
 20
555.4133
 10
797.0038
 20
555.7138
 10
797.1834
 20
556.0264
 10
797.4086
 20
556.3856
 10
797.6575
 20
556.7454
 10
797.9587
 20
557.1411000000001
 10
798.3748000000001
 20
557.6336
 10
798.9295
 20
558.2177
 10
799.5956
 20
558.8393
 10
800.3841
 20
559.4924999999999
 10
801.4191
 20
560.2496
 10
802.6657
 20
561.0496000000001
 10
804.1368
 20
561.8764
 10
805.9965999999999
 20
562.7848
 10
808.1313
 20
563.6836
 10
810.477
 20
564.5328
 10
813.0339
 20
565.3261
 10
816.3951
 20
566.1977000000001
 10
819.8007
 20
566.9152
 10
823.3486
 20
567.511
 10
827.3732
 20
568.0216
 10
831.1231
 20
568.3534
 10
835.0103
 20
568.5604
 10
839.0919
 20
568.6334000000001
  0
LINE
  5
76
100
AcDbEntity
  8
3
  6
CONTINUOUS
 62
    7
370
   -1
100
AcDbLine
 10
839.0919
 20
-568.6334000000001
 11
865.4013
 21
-568.6334000000001
  0
LWPOLYLINE
  5
77
100
AcDbEntity
  8
3
  6
CONTINUOUS
 62
    7
370
   -1
100
AcDbPolyline
 90
   33
 70
    0
 43
0
 10
795.2917
 20
-552.5146
 10
795.4818
 20
-552.8698000000001
 10
795.684
 20
-553.2476
 10
795.9536000000001
 20
-553.7514
 10
796.1633
 20
-554.1433
 10
796.3098
 20
-554.417
 10
796.4405
 20
-554.6612
 10
796.5719
 20
-554.9067
 10
796.6931
 20
-555.1333
 10
796.843
 20
-555.4133
 10
797.0038
 20
-555.7138
 10
797.1834
 20
-556.0264
 10
797.4086
 20
-556.3856
 10
797.6575
 20
-556.7454
 10
797.9587
 20
-557.1411000000001
 10
798.3748000000001
 20
-557.6336
 10
798.9295
 20
-558.2177
 10
799.5956
 20
-558.8393
 10
800.3841
 20
-559.4924999999999
 10
801.4191
 20
-560.2496
 10
802.6657
 20
-561.0496000000001
 10
804.1368
 20
-561.8764
 10
805.9965999999999
 20
-562.7848
 10
808.1313
 20
-563.6836
 10
810.477
 20
-564.5328
 10
813.0339
 20
-565.3261
 10
816.3951
 20
-566.1977000000001
 10
819.8007
 20
-566.9152
 10
823.3486
 20
-567.511
 10
827.3732
 20
-568.0216
 10
831.1231
 20
-568.3534
 10
835.0103
 20
-568.5604
 10
839.0919
 20
-568.6334000000001
  0
LINE
  5
78
100
AcDbEntity
  8
3
  6
CONTINUOUS
 62
    7
370
   -1
100
AcDbLine
 10
849.5053
 20
-520.4376999999999
 11
865.4013
 21
-568.6334000000001
  0
LINE
  5
79
100
AcDbEntity
  8
3
  6
CONTINUOUS
 62
    7
370
   -1
100
AcDbLine
 10
798.1934
 20
-349.2703
 11
849.5051999999999
 21
-520.4376
  0
LINE
  5
7A
100
AcDbEntity
  8
3
  6
CONTINUOUS
 62
    7
370
   -1
100
AcDbLine
 10
767.0302
 20
-245.3153
 11
771.1162
 21
-258.9454
  0
LINE
  5
7B
100
AcDbEntity
  8
3
  6
CONTINUOUS
 62
    7
370
   -1
100
AcDbLine
 10
753.4947
 20
-200.163
 11
767.0302
 21
-245.3153
  0
LINE
  5
7C
100
AcDbEntity
  8
3
  6
CONTINUOUS
 62
    7
370
   -1
100
AcDbLine
 10
771.1162
 20
-258.9454
 11
798.1934
 21
-349.2703
  0
LINE
  5
7D
100
AcDbEntity
  8
3
  6
CONTINUOUS
 62
    7
370
   -1
100
AcDbLine
 10
1386.5141
 20
250.2209
 11
1413.0176
 21
250.2209
  0
LINE
  5
7E
100
AcDbEntity
  8
3
  6
CONTINUOUS
 62
    7
370
   -1
100
AcDbLine
 10
1228.0134
 20
44.4649
 11
1366.5141
 21
246.9554
  0
LINE
  5
7F
100
AcDbEntity
  8
3
  6
CONTINUOUS
 62
    7
370
   -1
100
AcDbLine
 10
1351.1412
 20
9.870699999999999
 11
1413.0176
 21
250.2209
  0
LWPOLYLINE
  5
80
100
AcDbEntity
  8
3
  6
CONTINUOUS
 62
    7
370
   -1
100
AcDbPolyline
 90
   30
 70
    0
 43
0
 10
1366.5141
 20
246.9554
 10
1366.5641
 20
247.0285
 10
1366.6341
 20
247.1309
 10
1366.7141
 20
247.2478
 10
1366.8141
 20
247.3863
 10
1366.9441
 20
247.5242
 10
1367.1141
 20
247.6642
 10
1367.3141
 20
247.7985
 10
1367.5141
 20
247.913
 10
1367.7641
 20
248.0379
 10
1368.1141
 20
248.1895
 10
1368.6141
 20
248.3742
 10
1369.3141
 20
248.5913
 10
1370.3141
 20
248.847
 10
1371.3141
 20
249.0592
 10
1372.3141
 20
249.24
 10
1373.3141
 20
249.3966
 10
1374.3141
 20
249.5332
 10
1375.3141
 20
249.6529
 10
1376.3141
 20
249.758
 10
1377.3141
 20
249.8499
 10
1378.3141
 20
249.93
 10
1379.3141
 20
249.9991
 10
1380.3141
 20
250.0579
 10
1381.3141
 20
250.1071
 10
1382.3141
 20
250.1471
 10
1383.3141
 20
250.1783
 10
1384.3141
 20
250.2008
 10
1385.3141
 20
250.2149
 10
1386.5141
 20
250.2209
  0
LINE
  5
81
100
AcDbEntity
  8
3
  6
CONTINUOUS
 62
    7
370
   -1
100
AcDbLine
 10
1386.5141
 20
-250.2209
 11
1413.0176
 21
-250.2209
  0
LWPOLYLINE
  5
82
100
AcDbEntity
  8
3
  6
CONTINUOUS
 62
    7
370
   -1
100
AcDbPolyline
 90
   30
 70
    0
 43
0
 10
1366.5141
 20
-246.9554
 10
1366.5641
 20
-247.0285
 10
1366.6341
 20
-247.1309
 10
1366.7141
 20
-247.2478
 10
1366.8141
 20
-247.3863
 10
1366.9441
 20
-247.5242
 10
1367.1141
 20
-247.6642
 10
1367.3141
 20
-247.7985
 10
1367.5141
 20
-247.913
 10
1367.7641
 20
-248.0379
 10
1368.1141
 20
-248.1895
 10
1368.6141
 20
-248.3742
 10
1369.3141
 20
-248.5913
 10
1370.3141
 20
-248.847
 10
1371.3141
 20
-249.0592
 10
1372.3141
 20
-249.24
 10
1373.3141
 20
-249.3966
 10
1374.3141
 20
-249.5332
 10
1375.3141
 20
-249.6529
 10
1376.3141
 20
-249.758
 10
1377.3141
 20
-249.8499
 10
1378.3141
 20
-249.93
 10
1379.3141
 20
-249.9991
 10
1380.3141
 20
-250.0579
 10
1381.3141
 20
-250.1071
 10
1382.3141
 20
-250.1471
 10
1383.3141
 20
-250.1783
 10
1384.3141
 20
-250.2008
 10
1385.3141
 20
-250.2149
 10
1386.5141
 20
-250.2209
  0
LINE
  5
83
100
AcDbEntity
  8
3
  6
CONTINUOUS
 62
    7
370
   -1
100
AcDbLine
 10
1351.1412
 20
-9.870699999999999
 11
1413.0176
 21
-250.2209
  0
LINE
  5
84
100
AcDbEntity
  8
3
  6
CONTINUOUS
 62
    7
370
   -1
100
AcDbLine
 10
1228.0134
 20
-44.4649
 11
1366.5141
 21
-246.9554
  0
LWPOLYLINE
  5
85
100
AcDbEntity
  8
3
  6
CONTINUOUS
 62
    7
370
   -1
100
AcDbPolyline
 90
   43
 70
    0
 43
0
 10
1228.218
 20
-44.4166
 10
1225.8384
 20
-44.9799
 10
1218.9817
 20
-46.5632
 10
1212.2607
 20
-48.0763
 10
1205.6627
 20
-49.5232
 10
1199.1759
 20
-50.9075
 10
1192.7888
 20
-52.2328
 10
1186.491
 20
-53.502
 10
1180.2722
 20
-54.7179
 10
1174.1229
 20
-55.8832
 10
1168.0341
 20
-57.0004
 10
1161.9966
 20
-58.0714
 10
1155.7253
 20
-59.1449
 10
1149.4917
 20
-60.1721
 10
1143.2861
 20
-61.1552
 10
1137.0995
 20
-62.0957
 10
1130.923
 20
-62.9952
 10
1124.7476
 20
-63.8551
 10
1118.5643
 20
-64.6768
 10
1112.3643
 20
-65.46120000000001
 10
1106.1386
 20
-66.2094
 10
1099.8778
 20
-66.9222
 10
1093.5729
 20
-67.6005
 10
1087.2139
 20
-68.2448
 10
1080.7913
 20
-68.8556
 10
1074.2946
 20
-69.4332
 10
1067.713
 20
-69.9781
 10
1061.3468
 20
-70.46729999999999
 10
1054.8831
 20
-70.9269
 10
1048.3108
 20
-71.3566
 10
1041.6187
 20
-71.7565
 10
1034.7946
 20
-72.12609999999999
 10
1027.8252
 20
-72.46510000000001
 10
1020.6969
 20
-72.7728
 10
1013.3945
 20
-73.0488
 10
1005.902
 20
-73.29219999999999
 10
998.5629
 20
-73.49299999999999
 10
991.0182
 20
-73.6622
 10
983.2501999999999
 20
-73.7988
 10
975.2394
 20
-73.9015
 10
966.9642
 20
-73.9686
 10
958.4015000000001
 20
-73.9987
 10
955.9999
 20
-74.0001
  0
LWPOLYLINE
  5
86
100
AcDbEntity
  8
3
  6
CONTINUOUS
 62
    7
370
   -1
100
AcDbPolyline
 90
   23
 70
    0
 43
0
 10
1351.1555
 20
9.865399999999999
 10
1352.092
 20
9.514799999999999
 10
1353.9753
 20
8.7722
 10
1355.5824
 20
8.1014
 10
1357.0237
 20
7.4609
 10
1358.2629
 20
6.8704
 10
1359.3341
 20
6.3201
 10
1360.2636
 20
5.802
 10
1361.0718
 20
5.3098
 10
1361.7753
 20
4.8384
 10
1362.3871
 20
4.3833
 10
1362.8948
 20
3.9609
 10
1363.3359
 20
3.5472
 10
1363.7168
 20
3.1394
 10
1364.042
 20
2.7354
 10
1364.3038
 20
2.3512
 10
1364.5215
 20
1.9667
 10
1364.6969
 20
1.5797
 10
1364.8317
 20
1.1888
 10
1364.9232
 20
0.8105
 10
1364.9793
 20
0.4253
 10
1364.9999
 20
0.0157
 10
1364.9999
 20
-0.0001
  0
LWPOLYLINE
  5
87
100
AcDbEntity
  8
3
  6
CONTINUOUS
 62
    7
370
   -1
100
AcDbPolyline
 90
   40
 70
    0
 43
0
 10
-16.1515
 20
-11.0464
 10
-16.3866
 20
-10.8546
 10
-16.7272
 20
-10.5688
 10
-17.0516
 20
-10.2869
 10
-17.3606
 20
-10.0082
 10
-17.6552
 20
-9.7325
 10
-17.9359
 20
-9.4596
 10
-18.2035
 20
-9.188800000000001
 10
-18.4586
 20
-8.9199
 10
-18.7019
 20
-8.652699999999999
 10
-18.9338
 20
-8.386799999999999
 10
-19.1549
 20
-8.1219
 10
-19.3655
 20
-7.8578
 10
-19.566
 20
-7.5941
 10
-19.757
 20
-7.3306
 10
-19.9386
 20
-7.067
 10
-20.1113
 20
-6.803
 10
-20.2754
 20
-6.5385
 10
-20.4309
 20
-6.2729
 10
-20.5784
 20
-6.0065
 10
-20.7178
 20
-5.7385
 10
-20.8495
 20
-5.4689
 10
-20.9735
 20
-5.1974
 10
-21.0902
 20
-4.9237
 10
-21.1996
 20
-4.6476
 10
-21.3018
 20
-4.3688
 10
-21.3967
 20
-4.0869
 10
-21.4849
 20
-3.8018
 10
-21.5659
 20
-3.5131
 10
-21.6401
 20
-3.2205
 10
-21.7075
 20
-2.9236
 10
-21.7679
 20
-2.6221
 10
-21.8215
 20
-2.3157
 10
-21.8683
 20
-2.004
 10
-21.908
 20
-1.6868
 10
-21.9408
 20
-1.3634
 10
-21.9666
 20
-1.0334
 10
-21.985
 20
-0.6967
 10
-21.9962
 20
-0.3523
 10
-22
 20
-0.0001
  0
LWPOLYLINE
  5
88
100
AcDbEntity
  8
3
  6
CONTINUOUS
 62
    7
370
   -1
100
AcDbPolyline
 90
   22
 70
    0
 43
0
 10
1364.9999
 20
-0.0001
 10
1364.9817
 20
-0.4001
 10
1364.927
 20
-0.7911
 10
1364.8357
 20
-1.175
 10
1364.7074
 20
-1.5533
 10
1364.5413
 20
-1.9277
 10
1364.3252
 20
-2.317
 10
1364.064
 20
-2.7056
 10
1363.7549
 20
-3.0953
 10
1363.3945
 20
-3.4883
 10
1362.9579
 20
-3.905
 10
1362.4545
 20
-4.3301
 10
1361.8767
 20
-4.7665
 10
1361.2156
 20
-5.2174
 10
1360.4224
 20
-5.7089
 10
1359.5096
 20
-6.2256
 10
1358.457
 20
-6.7739
 10
1357.2389
 20
-7.3615
 10
1355.822
 20
-7.998
 10
1354.2459
 20
-8.6622
 10
1352.3995
 20
-9.3965
 10
1351.1555
 20
-9.865600000000001
  0
LWPOLYLINE
  5
89
100
AcDbEntity
  8
3
  6
CONTINUOUS
 62
    7
370
   -1
100
AcDbPolyline
 90
   40
 70
    0
 43
0
 10
-16.1515
 20
11.0461
 10
-16.3866
 20
10.8545
 10
-16.7272
 20
10.5687
 10
-17.0516
 20
10.2867
 10
-17.3606
 20
10.0081
 10
-17.6552
 20
9.7324
 10
-17.9359
 20
9.4594
 10
-18.2035
 20
9.188599999999999
 10
-18.4586
 20
8.9198
 10
-18.7019
 20
8.6526
 10
-18.9338
 20
8.386699999999999
 10
-19.1549
 20
8.1218
 10
-19.3655
 20
7.8577
 10
-19.566
 20
7.594
 10
-19.757
 20
7.3304
 10
-19.9386
 20
7.0668
 10
-20.1113
 20
6.8029
 10
-20.2754
 20
6.5383
 10
-20.4309
 20
6.2728
 10
-20.5784
 20
6.0062
 10
-20.7178
 20
5.7383
 10
-20.8495
 20
5.4688
 10
-20.9735
 20
5.1973
 10
-21.0902
 20
4.9236
 10
-21.1996
 20
4.6475
 10
-21.3018
 20
4.3687
 10
-21.3967
 20
4.0868
 10
-21.4849
 20
3.8016
 10
-21.5659
 20
3.5129
 10
-21.6401
 20
3.2202
 10
-21.7075
 20
2.9233
 10
-21.7679
 20
2.6219
 10
-21.8215
 20
2.3156
 10
-21.8683
 20
2.0039
 10
-21.908
 20
1.6866
 10
-21.9408
 20
1.3632
 10
-21.9666
 20
1.0333
 10
-21.985
 20
0.6964
 10
-21.9962
 20
0.3522
 10
-22
 20
-0.0001
  0
LWPOLYLINE
  5
8A
100
AcDbEntity
  8
3
  6
CONTINUOUS
 62
    7
370
   -1
100
AcDbPolyline
 90
   42
 70
    0
 43
0
 10
955.9999
 20
73.9999
 10
964.3049
 20
73.9819
 10
972.7030999999999
 20
73.926
 10
980.8278
 20
73.83369999999999
 10
988.7011
 20
73.7067
 10
996.3434
 20
73.54640000000001
 10
1003.7732
 20
73.354
 10
1011.0077
 20
73.1305
 10
1018.0627
 20
72.8767
 10
1025.2678
 20
72.5797
 10
1032.308
 20
72.2512
 10
1039.1974
 20
71.8917
 10
1045.9497
 20
71.5018
 10
1052.5773
 20
71.0817
 10
1059.0919
 20
70.63160000000001
 10
1065.5049
 20
70.15170000000001
 10
1071.8265
 20
69.6421
 10
1078.0669
 20
69.1024
 10
1084.2356
 20
68.53270000000001
 10
1090.3416
 20
67.93259999999999
 10
1096.6729
 20
67.2717
 10
1102.9548
 20
66.5767
 10
1109.1971
 20
65.8466
 10
1115.4091
 20
65.08069999999999
 10
1121.5997
 20
64.2782
 10
1127.778
 20
63.4379
 10
1133.9528
 20
62.5587
 10
1140.1331
 20
61.6393
 10
1146.3278
 20
60.6781
 10
1152.546
 20
59.6736
 10
1158.7969
 20
58.6239
 10
1165.0897
 20
57.5271
 10
1171.4343
 20
56.3809
 10
1177.8407
 20
55.183
 10
1184.319
 20
53.9307
 10
1190.5747
 20
52.683
 10
1196.9157
 20
51.3806
 10
1203.3522
 20
50.0205
 10
1209.8953
 20
48.5992
 10
1216.5565
 20
47.1135
 10
1223.3484
 20
45.5592
 10
1228.218
 20
44.4169
  0
LWPOLYLINE
  5
8B
100
AcDbEntity
  8
3
  6
CONTINUOUS
 62
    7
370
   -1
100
AcDbPolyline
 90
   10
 70
    0
 43
0
 10
108.0001
 20
-53.2501
 10
110.5902
 20
-53.8636
 10
112.9902
 20
-54.4247
 10
115.4292
 20
-54.9871
 10
117.8871
 20
-55.5457
 10
120.3364
 20
-56.0945
 10
123.0209
 20
-56.688
 10
125.9279
 20
-57.3228
 10
129.4015
 20
-58.0725
 10
130
 20
-58.2009
  0
LWPOLYLINE
  5
8C
100
AcDbEntity
  8
3
  6
CONTINUOUS
 62
    7
370
   -1
100
AcDbPolyline
 90
   10
 70
    0
 43
0
 10
108.0001
 20
53.25
 10
110.5902
 20
53.8634
 10
112.9902
 20
54.4246
 10
115.4292
 20
54.9869
 10
117.8871
 20
55.5455
 10
120.3364
 20
56.0944
 10
123.0209
 20
56.6879
 10
125.9279
 20
57.3225
 10
129.4015
 20
58.0724
 10
130
 20
58.2008
  0
LWPOLYLINE
  5
8D
100
AcDbEntity
  8
3
  6
CONTINUOUS
 62
    7
370
   -1
100
AcDbPolyline
 90
    8
 70
    0
 43
0
 10
89.7826
 20
-48.8125
 10
91.31910000000001
 20
-49.2048
 10
93.1788
 20
-49.6705
 10
95.3766
 20
-50.2124
 10
98.2306
 20
-50.9072
 10
101.8874
 20
-51.7887
 10
106.9535
 20
-53.0006
 10
108.0001
 20
-53.2501
  0
LWPOLYLINE
  5
8E
100
AcDbEntity
  8
3
  6
CONTINUOUS
 62
    7
370
   -1
100
AcDbPolyline
 90
    8
 70
    0
 43
0
 10
89.7826
 20
48.8121
 10
91.31910000000001
 20
49.2045
 10
93.1788
 20
49.6702
 10
95.3766
 20
50.212
 10
98.2306
 20
50.9069
 10
101.8874
 20
51.7883
 10
106.9535
 20
53.0002
 10
108.0001
 20
53.2498
  0
LWPOLYLINE
  5
8F
100
AcDbEntity
  8
3
  6
CONTINUOUS
 62
    7
370
   -1
100
AcDbPolyline
 90
   51
 70
    0
 43
0
 10
-16.1515
 20
-11.0464
 10
-16.1088
 20
-11.0806
 10
-15.8113
 20
-11.314
 10
-15.496
 20
-11.5518
 10
-15.144
 20
-11.8073
 10
-14.7726
 20
-12.0676
 10
-14.3593
 20
-12.3474
 10
-13.9242
 20
-12.6323
 10
-13.4677
 20
-12.9225
 10
-12.9625
 20
-13.2341
 10
-12.4336
 20
-13.5511
 10
-11.881
 20
-13.8738
 10
-11.2725
 20
-14.22
 10
-10.6379
 20
-14.572
 10
-9.9777
 20
-14.9299
 10
-9.2531
 20
-15.3136
 10
-8.5002
 20
-15.7036
 10
-7.7194
 20
-16.0995
 10
-6.8654
 20
-16.5238
 10
-5.9807
 20
-16.9545
 10
-5.0408
 20
-17.4032
 10
-4.0692
 20
-17.8584
 10
-3.0392
 20
-18.3324
 10
-1.9767
 20
-18.8129
 10
-0.8821
 20
-19.2994
 10
0.3071
 20
-19.8195
 10
1.531
 20
-20.3459
 10
2.7889
 20
-20.8787
 10
4.1156
 20
-21.4319
 10
5.4769
 20
-21.9912
 10
6.8722
 20
-22.5564
 10
8.3009
 20
-23.127
 10
9.843999999999999
 20
-23.7347
 10
11.4226
 20
-24.3481
 10
13.036
 20
-24.9667
 10
14.728
 20
-25.6068
 10
16.4547
 20
-26.2517
 10
18.2152
 20
-26.901
 10
20.0085
 20
-27.5544
 10
21.8337
 20
-28.2114
 10
23.6897
 20
-28.8718
 10
25.6804
 20
-29.5718
 10
27.7029
 20
-30.2745
 10
29.7561
 20
-30.9797
 10
31.8386
 20
-31.6869
 10
34.0062
 20
-32.4146
 10
36.2018
 20
-33.1433
 10
38.4242
 20
-33.8728
 10
40.6718
 20
-34.6023
 10
42.9431
 20
-35.3315
 10
45.2985
 20
-36.0795
  0
LWPOLYLINE
  5
90
100
AcDbEntity
  8
3
  6
CONTINUOUS
 62
    7
370
   -1
100
AcDbPolyline
 90
   19
 70
    0
 43
0
 10
45.2985
 20
-36.0795
 10
47.6757
 20
-36.826
 10
50.0731
 20
-37.5707
 10
52.489
 20
-38.313
 10
54.9216
 20
-39.0522
 10
57.3694
 20
-39.7881
 10
59.8306
 20
-40.52
 10
62.3035
 20
-41.2474
 10
64.7864
 20
-41.97
 10
67.2775
 20
-42.6869
 10
69.77509999999999
 20
-43.3979
 10
72.27760000000001
 20
-44.1024
 10
74.7831
 20
-44.8
 10
77.2899
 20
-45.4901
 10
79.7963
 20
-46.1724
 10
82.3005
 20
-46.8462
 10
84.8008
 20
-47.5111
 10
87.2953
 20
-48.1667
 10
89.7826
 20
-48.8125
  0
LWPOLYLINE
  5
91
100
AcDbEntity
  8
3
  6
CONTINUOUS
 62
    7
370
   -1
100
AcDbPolyline
 90
   51
 70
    0
 43
0
 10
130
 20
-58.2009
 10
132
 20
-58.6234
 10
132.4767
 20
-58.7234
 10
134
 20
-59.0385
 10
136
 20
-59.4459
 10
136.296
 20
-59.5083
 10
138
 20
-59.8466
 10
141.3597
 20
-60.5062
 10
145.1337
 20
-61.2407
 10
148
 20
-61.7916
 10
149.3553
 20
-62.0491
 10
151.5876
 20
-62.4675
 10
153.7216
 20
-62.8601
 10
155.8048
 20
-63.2358
 10
158
 20
-63.6239
 10
158.4111
 20
-63.6957
 10
160.7707
 20
-64.1031
 10
163.1669
 20
-64.5089
 10
165.5825
 20
-64.91030000000001
 10
168
 20
-65.3043
 10
168.8757
 20
-65.4452
 10
171.2831
 20
-65.8271
 10
173.5626
 20
-66.1812
 10
175.838
 20
-66.52670000000001
 10
178
 20
-66.84780000000001
 10
179.092
 20
-67.00700000000001
 10
181.2867
 20
-67.3214
 10
183.4833
 20
-67.6285
 10
185.681
 20
-67.9285
 10
188
 20
-68.2371
 10
188.1821
 20
-68.26090000000001
 10
190.3516
 20
-68.5416
 10
192.4127
 20
-68.8008
 10
194.3709
 20
-69.03959999999999
 10
196.2317
 20
-69.25879999999999
 10
198
 20
-69.45999999999999
 10
199.6957
 20
-69.6456
 10
201.5793
 20
-69.8442
 10
203.567
 20
-70.04600000000001
 10
205.724
 20
-70.2567
 10
208
 20
-70.47110000000001
 10
208.3702
 20
-70.5052
 10
210.7776
 20
-70.7231
 10
213.1851
 20
-70.9333
 10
215.5925
 20
-71.1356
 10
218
 20
-71.3301
 10
218.8392
 20
-71.396
 10
221.1294
 20
-71.57080000000001
 10
223.4196
 20
-71.73820000000001
 10
225.7098
 20
-71.89790000000001
 10
228
 20
-72.05
  0
LWPOLYLINE
  5
92
100
AcDbEntity
  8
3
  6
CONTINUOUS
 62
    7
370
   -1
100
AcDbPolyline
 90
   34
 70
    0
 43
0
 10
228
 20
-72.05
 10
228.9844
 20
-72.113
 10
231.2383
 20
-72.2517
 10
233.4922
 20
-72.3828
 10
235.7462
 20
-72.5063
 10
238.0001
 20
-72.6223
 10
238.2086
 20
-72.6326
 10
240.4628
 20
-72.7405
 10
242.8416
 20
-72.8467
 10
245.3515
 20
-72.95099999999999
 10
248
 20
-73.0531
 10
249.6566
 20
-73.113
 10
252.339
 20
-73.2042
 10
255.1695
 20
-73.29259999999999
 10
258
 20
-73.373
 10
258.875
 20
-73.3964
 10
261.7548
 20
-73.4683
 10
264.7935
 20
-73.5364
 10
268
 20
-73.6001
 10
270.5909
 20
-73.6459
 10
274.091
 20
-73.7008
 10
278
 20
-73.7542
 10
279.4788
 20
-73.77249999999999
 10
283.625
 20
-73.8188
 10
288.0001
 20
-73.8601
 10
288.4103
 20
-73.8635
 10
292.8742
 20
-73.89709999999999
 10
298
 20
-73.9276
 10
301.4471
 20
-73.9443
 10
308
 20
-73.9695
 10
311.3964
 20
-73.9799
 10
318.0001
 20
-73.9944
 10
321.7415
 20
-73.9988
 10
328
 20
-74.0001
  0
LWPOLYLINE
  5
93
100
AcDbEntity
  8
3
  6
CONTINUOUS
 62
    7
370
   -1
100
AcDbPolyline
 90
   51
 70
    0
 43
0
 10
89.7826
 20
48.8124
 10
87.2953
 20
48.1665
 10
84.8008
 20
47.511
 10
82.3005
 20
46.8459
 10
79.7963
 20
46.1722
 10
77.2899
 20
45.49
 10
74.7831
 20
44.7998
 10
72.27760000000001
 20
44.1023
 10
69.77509999999999
 20
43.3977
 10
67.2775
 20
42.6868
 10
64.7864
 20
41.9697
 10
62.3035
 20
41.2473
 10
59.8306
 20
40.5199
 10
57.3694
 20
39.788
 10
54.9216
 20
39.0521
 10
52.489
 20
38.3127
 10
50.0731
 20
37.5706
 10
47.6757
 20
36.8259
 10
45.2985
 20
36.0793
 10
42.9431
 20
35.3314
 10
40.6718
 20
34.6022
 10
38.4242
 20
33.8726
 10
36.2018
 20
33.1432
 10
34.0062
 20
32.4144
 10
31.8386
 20
31.6868
 10
29.7561
 20
30.9796
 10
27.7029
 20
30.2744
 10
25.6804
 20
29.5717
 10
23.6897
 20
28.8716
 10
21.8337
 20
28.2113
 10
20.0085
 20
27.5542
 10
18.2152
 20
26.9009
 10
16.4547
 20
26.2516
 10
14.728
 20
25.6066
 10
13.036
 20
24.9664
 10
11.4226
 20
24.3479
 10
9.843999999999999
 20
23.7346
 10
8.3009
 20
23.1268
 10
6.8722
 20
22.5562
 10
5.4769
 20
21.9911
 10
4.1156
 20
21.4318
 10
2.7889
 20
20.8785
 10
1.531
 20
20.3458
 10
0.3071
 20
19.8193
 10
-0.8821
 20
19.2993
 10
-1.9767
 20
18.8126
 10
-3.0392
 20
18.3323
 10
-4.0692
 20
17.8583
 10
-5.0408
 20
17.4031
 10
-5.9807
 20
16.9542
 10
-6.8654
 20
16.5236
  0
LWPOLYLINE
  5
94
100
AcDbEntity
  8
3
  6
CONTINUOUS
 62
    7
370
   -1
100
AcDbPolyline
 90
   19
 70
    0
 43
0
 10
-6.8654
 20
16.5236
 10
-7.7194
 20
16.0994
 10
-8.5002
 20
15.7034
 10
-9.2531
 20
15.3135
 10
-9.9777
 20
14.9297
 10
-10.6379
 20
14.5719
 10
-11.2725
 20
14.2198
 10
-11.881
 20
13.8737
 10
-12.4336
 20
13.551
 10
-12.9625
 20
13.2339
 10
-13.4677
 20
12.9224
 10
-13.9242
 20
12.6322
 10
-14.3593
 20
12.3472
 10
-14.7726
 20
12.0674
 10
-15.144
 20
11.8071
 10
-15.496
 20
11.5515
 10
-15.8113
 20
11.3138
 10
-16.1088
 20
11.0804
 10
-16.1515
 20
11.0461
  0
LWPOLYLINE
  5
95
100
AcDbEntity
  8
3
  6
CONTINUOUS
 62
    7
370
   -1
100
AcDbPolyline
 90
   51
 70
    0
 43
0
 10
130
 20
58.2008
 10
132
 20
58.6233
 10
132.4767
 20
58.7231
 10
134
 20
59.0383
 10
136
 20
59.4457
 10
136.296
 20
59.5081
 10
138
 20
59.8463
 10
141.3597
 20
60.5061
 10
145.1337
 20
61.2405
 10
148
 20
61.7915
 10
149.3553
 20
62.0488
 10
151.5876
 20
62.4673
 10
153.7216
 20
62.86
 10
155.8048
 20
63.2357
 10
158
 20
63.6238
 10
158.4111
 20
63.6956
 10
160.7707
 20
64.10290000000001
 10
163.1669
 20
64.5087
 10
165.5825
 20
64.91
 10
168
 20
65.30419999999999
 10
168.8757
 20
65.4451
 10
171.2831
 20
65.827
 10
173.5626
 20
66.181
 10
175.838
 20
66.5266
 10
178
 20
66.8475
 10
179.092
 20
67.0068
 10
181.2867
 20
67.3212
 10
183.4833
 20
67.6283
 10
185.681
 20
67.9282
 10
188
 20
68.2368
 10
188.1821
 20
68.2607
 10
190.3516
 20
68.5414
 10
192.4127
 20
68.80070000000001
 10
194.3709
 20
69.0393
 10
196.2317
 20
69.2587
 10
198
 20
69.4597
 10
199.6957
 20
69.6455
 10
201.5793
 20
69.8441
 10
203.567
 20
70.0458
 10
205.724
 20
70.2565
 10
208
 20
70.4709
 10
208.3702
 20
70.5051
 10
210.7776
 20
70.723
 10
213.1851
 20
70.9332
 10
215.5925
 20
71.13549999999999
 10
218
 20
71.33
 10
218.8392
 20
71.3959
 10
221.1294
 20
71.5707
 10
223.4196
 20
71.738
 10
225.7098
 20
71.8978
 10
228
 20
72.04989999999999
  0
LWPOLYLINE
  5
96
100
AcDbEntity
  8
3
  6
CONTINUOUS
 62
    7
370
   -1
100
AcDbPolyline
 90
   34
 70
    0
 43
0
 10
228
 20
72.04989999999999
 10
228.9844
 20
72.1129
 10
231.2383
 20
72.2516
 10
233.4922
 20
72.3827
 10
235.7462
 20
72.5061
 10
238.0001
 20
72.6221
 10
238.2086
 20
72.6324
 10
240.4628
 20
72.74039999999999
 10
242.8416
 20
72.8466
 10
245.3515
 20
72.9508
 10
248
 20
73.053
 10
249.6566
 20
73.1129
 10
252.339
 20
73.2041
 10
255.1695
 20
73.2924
 10
258
 20
73.3729
 10
258.875
 20
73.39619999999999
 10
261.7548
 20
73.46810000000001
 10
264.7935
 20
73.5363
 10
268
 20
73.59999999999999
 10
270.5909
 20
73.64579999999999
 10
274.091
 20
73.7007
 10
278
 20
73.754
 10
279.4788
 20
73.7723
 10
283.625
 20
73.81870000000001
 10
288.0001
 20
73.8599
 10
288.4103
 20
73.8634
 10
292.8742
 20
73.8969
 10
298
 20
73.92749999999999
 10
301.4471
 20
73.94410000000001
 10
308
 20
73.96939999999999
 10
311.3964
 20
73.9796
 10
318.0001
 20
73.9941
 10
321.7415
 20
73.9987
 10
328
 20
73.9999
  0
LWPOLYLINE
  5
97
100
AcDbEntity
  8
3
  6
CONTINUOUS
 62
    7
370
   -1
100
AcDbPolyline
 90
   34
 70
    0
 43
0
 10
474.155
 20
157.7038
 10
474.14
 20
157.7611
 10
474.1134
 20
157.8704
 10
474.093
 20
157.9645
 10
474.055
 20
158.1722
 10
474.0262
 20
158.3684
 10
473.9991
 20
158.589
 10
473.988
 20
158.6905
 10
473.9788
 20
158.7794
 10
473.9653
 20
158.9177
 10
473.8952
 20
159.7889
 10
473.8604
 20
160.3144
 10
473.8154
 20
161.0796
 10
473.7553
 20
162.2482
 10
473.6553
 20
164.5613
 10
473.5458
 20
167.6066
 10
473.4879
 20
169.4428
 10
473.2937
 20
176.8419
 10
473.2567
 20
178.5079
 10
473.2125
 20
180.6346
 10
473.1827
 20
182.1541
 10
473.1345
 20
184.8006
 10
473.086
 20
187.7248
 10
473.0789
 20
188.1789
 10
473.0327
 20
191.3571
 10
472.9951
 20
194.2997
 10
472.9769
 20
195.8768
 10
472.9697
 20
196.545
 10
472.9559
 20
197.8932
 10
472.9454
 20
199.0061
 10
472.9049
 20
204.6046
 10
472.8889
 20
209.4049
 10
472.8956
 20
214.0508
 10
472.9244
 20
217.7138
  0
LWPOLYLINE
  5
98
100
AcDbEntity
  8
3
  6
CONTINUOUS
 62
    7
370
   -1
100
AcDbPolyline
 90
   34
 70
    0
 43
0
 10
472.9244
 20
217.7138
 10
472.945
 20
219.1703
 10
472.9655
 20
220.254
 10
473.016
 20
222.0561
 10
473.0528
 20
222.9047
 10
473.0717
 20
223.2399
 10
473.0892
 20
223.5
 10
473.0963
 20
223.5934
 10
473.1048
 20
223.6963
 10
473.1349
 20
223.9972
 10
473.1692
 20
224.2489
 10
473.1984
 20
224.4133
 10
473.2347
 20
224.5777
 10
473.2456
 20
224.621
 10
473.2644
 20
224.69
 10
473.3113
 20
224.8419
 10
473.359
 20
224.9742
 10
473.6059
 20
225.4873
 10
473.8162
 20
225.8102
 10
473.991
 20
226.0381
 10
474.3973
 20
226.4865
 10
474.7809
 20
226.8337
 10
475.1407
 20
227.1184
 10
475.3344
 20
227.2608
 10
475.7571
 20
227.5517
 10
476.4121
 20
227.9608
 10
477.0875
 20
228.3358
 10
478.1361
 20
228.8513
 10
478.5264
 20
229.0282
 10
479.3777
 20
229.3919
 10
481.2266
 20
230.0807
 10
483.1409
 20
230.6857
 10
483.5641
 20
230.8091
 10
485.2254
 20
231.264
  0
LWPOLYLINE
  5
99
100
AcDbEntity
  8
3
  6
CONTINUOUS
 62
    7
370
   -1
100
AcDbPolyline
 90
   34
 70
    0
 43
0
 10
485.2254
 20
231.264
 10
488.7286
 20
232.0979
 10
489.3399
 20
232.2283
 10
490.1905
 20
232.4026
 10
493.1498
 20
232.9447
 10
494.1309
 20
233.1036
 10
498.1545
 20
233.6721
 10
498.9349
 20
233.7679
 10
500.6358
 20
233.9613
 10
504.1366
 20
234.2976
 10
509.8852
 20
234.6874
 10
516.2788
 20
234.9139
 10
523.096
 20
234.9482
 10
526.4109
 20
234.896
 10
527.933
 20
234.858
 10
530.895
 20
234.7598
 10
537.4165
 20
234.4365
 10
542.1925
 20
234.1111
 10
544.2594
 20
233.948
 10
547.8999
 20
233.6288
 10
551.533
 20
233.2602
 10
557.8076
 20
232.4932
 10
568.3717
 20
230.8535
 10
573.864
 20
229.8468
 10
576.5705
 20
229.3191
 10
578.3203999999999
 20
228.9694
 10
579.889
 20
228.6509
 10
583.3049999999999
 20
227.9406
 10
590.2172
 20
226.4577
 10
596.8943
 20
225.011
 10
596.9872
 20
224.9919
 10
597.099
 20
224.9682
 10
597.4519
 20
224.8896
 10
597.8040999999999
 20
224.81
  0
LWPOLYLINE
  5
9A
100
AcDbEntity
  8
3
  6
CONTINUOUS
 62
    7
370
   -1
100
AcDbPolyline
 90
   34
 70
    0
 43
0
 10
474.155
 20
-157.7033
 10
474.14
 20
-157.7606
 10
474.1134
 20
-157.8699
 10
474.093
 20
-157.964
 10
474.055
 20
-158.1717
 10
474.0262
 20
-158.368
 10
473.9991
 20
-158.5886
 10
473.988
 20
-158.6901
 10
473.9788
 20
-158.7789
 10
473.9653
 20
-158.9172
 10
473.8952
 20
-159.7884
 10
473.8604
 20
-160.3139
 10
473.8154
 20
-161.0791
 10
473.7553
 20
-162.2477
 10
473.6553
 20
-164.5609
 10
473.5458
 20
-167.6061
 10
473.4879
 20
-169.4423
 10
473.2937
 20
-176.8414
 10
473.2567
 20
-178.5074
 10
473.2125
 20
-180.6342
 10
473.1827
 20
-182.1536
 10
473.1345
 20
-184.8001
 10
473.086
 20
-187.7243
 10
473.0789
 20
-188.1784
 10
473.0327
 20
-191.3566
 10
472.9951
 20
-194.2992
 10
472.9769
 20
-195.8763
 10
472.9697
 20
-196.5445
 10
472.9559
 20
-197.8927
 10
472.9454
 20
-199.0057
 10
472.9049
 20
-204.6041
 10
472.8889
 20
-209.4045
 10
472.8956
 20
-214.0503
 10
472.9244
 20
-217.7133
  0
LWPOLYLINE
  5
9B
100
AcDbEntity
  8
3
  6
CONTINUOUS
 62
    7
370
   -1
100
AcDbPolyline
 90
   34
 70
    0
 43
0
 10
472.9244
 20
-217.7133
 10
472.945
 20
-219.1698
 10
472.9655
 20
-220.2536
 10
473.016
 20
-222.0556
 10
473.0528
 20
-222.9042
 10
473.0717
 20
-223.2394
 10
473.0892
 20
-223.4995
 10
473.0963
 20
-223.5929
 10
473.1048
 20
-223.6958
 10
473.1349
 20
-223.9967
 10
473.1692
 20
-224.2484
 10
473.1984
 20
-224.4128
 10
473.2347
 20
-224.5772
 10
473.2456
 20
-224.6205
 10
473.2644
 20
-224.6895
 10
473.3113
 20
-224.8414
 10
473.359
 20
-224.9737
 10
473.6059
 20
-225.4868
 10
473.8162
 20
-225.8097
 10
473.991
 20
-226.0376
 10
474.3973
 20
-226.486
 10
474.7809
 20
-226.8332
 10
475.1407
 20
-227.1179
 10
475.3344
 20
-227.2603
 10
475.7571
 20
-227.5512
 10
476.4121
 20
-227.9603
 10
477.0875
 20
-228.3353
 10
478.1361
 20
-228.8508
 10
478.5264
 20
-229.0277
 10
479.3777
 20
-229.3914
 10
481.2266
 20
-230.0802
 10
483.1409
 20
-230.6853
 10
483.5641
 20
-230.8086
 10
485.2254
 20
-231.2635
  0
LWPOLYLINE
  5
9C
100
AcDbEntity
  8
3
  6
CONTINUOUS
 62
    7
370
   -1
100
AcDbPolyline
 90
   34
 70
    0
 43
0
 10
485.2254
 20
-231.2635
 10
488.7286
 20
-232.0974
 10
489.3399
 20
-232.2278
 10
490.1905
 20
-232.4021
 10
493.1498
 20
-232.9442
 10
494.1309
 20
-233.1031
 10
498.1545
 20
-233.6716
 10
498.9349
 20
-233.7674
 10
500.6358
 20
-233.9608
 10
504.1366
 20
-234.2971
 10
509.8852
 20
-234.6869
 10
516.2788
 20
-234.9134
 10
523.096
 20
-234.9477
 10
526.4109
 20
-234.8955
 10
527.933
 20
-234.8575
 10
530.895
 20
-234.7593
 10
537.4165
 20
-234.436
 10
542.1925
 20
-234.1106
 10
544.2594
 20
-233.9475
 10
547.8999
 20
-233.6283
 10
551.533
 20
-233.2597
 10
557.8076
 20
-232.4927
 10
568.3717
 20
-230.853
 10
573.864
 20
-229.8463
 10
576.5705
 20
-229.3187
 10
578.3203999999999
 20
-228.9689
 10
579.889
 20
-228.6504
 10
583.3049999999999
 20
-227.9401
 10
590.2172
 20
-226.4572
 10
596.8943
 20
-225.0105
 10
596.9872
 20
-224.9914
 10
597.099
 20
-224.9677
 10
597.4519
 20
-224.8892
 10
597.8040999999999
 20
-224.8095
  0
LWPOLYLINE
  5
9D
100
AcDbEntity
  8
3
  6
CONTINUOUS
 62
    7
370
   -1
100
AcDbPolyline
 90
   15
 70
    0
 43
0
 10
476.3417
 20
-155.0408
 10
476.1443
 20
-155.1785
 10
475.794868
 20
-155.442535
 10
475.626567
 20
-155.580752
 10
475.3823
 20
-155.7969
 10
475.09707
 20
-156.079537
 10
474.9649
 20
-156.2255
 10
474.81653
 20
-156.404422
 10
474.725445
 20
-156.524214
 10
474.5631
 20
-156.7628
 10
474.4298
 20
-156.9933
 10
474.3002
 20
-157.2683
 10
474.1939
 20
-157.566
 10
474.1828
 20
-157.6038
 10
474.1729
 20
-157.6385
  0
LWPOLYLINE
  5
9E
100
AcDbEntity
  8
3
  6
CONTINUOUS
 62
    7
370
   -1
100
AcDbPolyline
 90
   34
 70
    0
 43
0
 10
474.1729
 20
157.639
 10
474.1828
 20
157.6043
 10
474.1939
 20
157.5665
 10
474.3002
 20
157.2688
 10
474.4298
 20
156.9937
 10
474.5631
 20
156.7633
 10
474.9649
 20
156.226
 10
475.3823
 20
155.7974
 10
476.1443
 20
155.1789
 10
476.3417
 20
155.0412
 10
476.7706
 20
154.7651
 10
478.1114
 20
154.046
 10
479.1651
 20
153.582
 10
479.5567
 20
153.4262
 10
480.4097
 20
153.112
 10
481.3118
 20
152.8109
 10
481.5637
 20
152.7316
 10
482.7092
 20
152.3951
 10
485.4448
 20
151.7257
 10
490.163
 20
150.8761
 10
494.2167
 20
150.3259
 10
494.5312
 20
150.2878
 10
495.3829
 20
150.1874
 10
498.3188
 20
149.8766
 10
499.2273
 20
149.7935
 10
500.789
 20
149.6648
 10
504.1923
 20
149.4346
 10
510.9655
 20
149.1603
 10
517.4761
 20
149.0998
 10
524.4129
 20
149.2283
 10
527.7822
 20
149.3572
 10
529.3280999999999
 20
149.4303
 10
536.2806
 20
149.8654
 10
542.1813
 20
150.3668
  0
LINE
  5
9F
100
AcDbEntity
  8
3
  6
CONTINUOUS
 62
    7
370
   -1
100
AcDbLine
 10
520.2334
 20
-74.0001
 11
579.7063317625249
 21
-156.8430208488272
  0
LINE
  5
A0
100
AcDbEntity
  8
3
  6
CONTINUOUS
 62
    7
370
   -1
100
AcDbLine
 10
328
 20
73.9999
 11
520.5911064340382
 21
73.75400099438322
  0
LINE
  5
A1
100
AcDbEntity
  8
0
  6
ByLayer
 62
  256
370
   -1
100
AcDbLine
 10
754.3561425225122
 20
-73.29358346780481
 11
955.3973450627233
 21
-74.3258874603091
  0
LINE
  5
A2
100
AcDbEntity
  8
3
  6
CONTINUOUS
 62
    7
370
   -1
100
AcDbLine
 10
617.0357298968945
 20
-219.6307172753696
 11
795.2917
 21
-552.5146
  0
LINE
  5
A3
100
AcDbEntity
  8
3
  6
CONTINUOUS
 62
    7
370
   -1
100
AcDbLine
 10
597.8040999999999
 20
224.81
 11
617.157900175246
 21
219.6612711496488
  0
LINE
  5
A4
100
AcDbEntity
  8
0
  6
ByLayer
 62
  256
370
   -1
100
AcDbLine
 10
754.5428959598353
 20
73.6441025468251
 11
956.0027913543272
 21
73.94496728707503
  0
LWPOLYLINE
  5
A5
100
AcDbEntity
  8
3
  6
CONTINUOUS
 62
    7
370
   -1
100
AcDbPolyline
 90
   19
 70
    0
 43
0
 10
542.1813
 20
150.3668
 10
544.6091
 20
150.6079
 10
545.8569
 20
150.7398
 10
549.0736000000001
 20
151.1044
 10
550.14487
 20
151.233826
 10
552.2855
 20
151.5089
 10
554.959817
 20
151.885078
 10
556.2950039999999
 20
152.0857
 10
558.2953
 20
152.4023
 10
559.7273300000001
 20
152.640078
 10
561.634306
 20
152.970112
 10
562.586767
 20
153.1407
 10
564.7273
 20
153.5381
 10
568.024334
 20
154.186337
 10
569.669707
 20
154.525433
 10
572.1338
 20
155.0528
 10
573.716415
 20
155.403433
 10
576.876
 20
156.1307
 10
579.7063317625242
 20
156.843020848827
  0
LINE
  5
A6
100
AcDbEntity
  8
0
  6
ByLayer
 62
  256
370
   -1
100
AcDbLine
 10
865.4013
 20
568.6334000000001
 11
754.5433
 21
200.0433
  0
LINE
  5
A7
100
AcDbEntity
  8
3
  6
CONTINUOUS
 62
    7
370
   -1
100
AcDbLine
 10
617.157900175246
 20
219.6612711496488
 11
795.2917
 21
552.5146
  0
LINE
  5
A8
100
AcDbEntity
  8
3
  6
CONTINUOUS
 62
    7
370
   -1
100
AcDbLine
 10
754.5452447168732
 20
73.64527692534408
 11
754.5433
 21
200.0433
  0
LINE
  5
A9
100
AcDbEntity
  8
3
  6
CONTINUOUS
 62
    7
370
   -1
100
AcDbLine
 10
520.5911064340382
 20
73.75400099438322
 11
579.7063317625242
 21
156.843020848827
  0
LINE
  5
AA
100
AcDbEntity
  8
3
  6
CONTINUOUS
 62
    7
370
   -1
100
AcDbLine
 10
328
 20
-74.0001
 11
520.2334
 21
-74.0001
  0
LWPOLYLINE
  5
AB
100
AcDbEntity
  8
3
  6
CONTINUOUS
 62
    7
370
   -1
100
AcDbPolyline
 90
   34
 70
    0
 43
0
 10
579.7063317625249
 20
-156.8430208488272
 10
576.876
 20
-156.1302
 10
572.1338
 20
-155.0524
 10
564.7273
 20
-153.5376
 10
558.2953
 20
-152.4018
 10
552.2855
 20
-151.5084
 10
549.0736000000001
 20
-151.1039
 10
545.8569
 20
-150.7392
 10
544.6091
 20
-150.6074
 10
542.1813
 20
-150.3663
 10
536.2806
 20
-149.8649
 10
529.3280999999999
 20
-149.4298
 10
527.7822
 20
-149.3567
 10
524.4129
 20
-149.2278
 10
517.4761
 20
-149.0993
 10
510.9655
 20
-149.1598
 10
504.1923
 20
-149.4341
 10
500.789
 20
-149.6643
 10
499.2272
 20
-149.793
 10
498.3188
 20
-149.8761
 10
495.3829
 20
-150.1869
 10
494.5312
 20
-150.2873
 10
494.2167
 20
-150.3254
 10
490.163
 20
-150.8756
 10
485.4448
 20
-151.7252
 10
482.7092
 20
-152.3946
 10
481.5637
 20
-152.7311
 10
481.1924
 20
-152.8486
 10
480.4097
 20
-153.1115
 10
479.5567
 20
-153.4257
 10
479.1652
 20
-153.5815
 10
478.1114
 20
-154.0455
 10
476.7706
 20
-154.7647
 10
476.3417
 20
-155.0408
  0
LINE
  5
AC
100
AcDbEntity
  8
3
  6
CONTINUOUS
 62
    7
370
   -1
100
AcDbLine
 10
597.8040999999999
 20
-224.8095
 11
617.0357298968945
 21
-219.6307172753696
  0
LINE
  5
AD
100
AcDbEntity
  8
3
  6
CONTINUOUS
 62
    7
370
   -1
100
AcDbLine
 10
753.4947
 20
-200.163
 11
754.5433
 21
-73.3361
  0
ENDSEC
  0
SECTION
  2
OBJECTS
  0
DICTIONARY
  5
C
330
0
100
AcDbDictionary
281
    1
  3
ACAD_GROUP
350
D
  0
DICTIONARY
  5
D
330
C
100
AcDbDictionary
281
    1
  0
ENDSEC
  0
EOF
