999
dxfrw 0.6.3
  0
SECTION
  2
HEADER
  9
$ACADVER
  1
AC1021
  9
$DWGCODEPAGE
  3
ANSI_1252
  9
$INSBASE
 10
0
 20
0
 30
0
  9
$EXTMIN
 10
-55391.7421875
 20
-49047.5234375
 30
0
  9
$EXTMAX
 10
17529.2265625
 20
9674.951171875
 30
0
  9
$LIMMIN
 10
0
 20
0
  9
$LIMMAX
 10
420
 20
297
  9
$ORTHOMODE
 70
    0
  9
$REGENMODE
 70
    1
  9
$FILLMODE
 70
    1
  9
$QTEXTMODE
 70
    0
  9
$MIRRTEXT
 70
    0
  9
$LTSCALE
 40
1
  9
$ATTMODE
 70
    0
  9
$TEXTSIZE
 40
2.5
  9
$TRACEWID
 40
15.68
  9
$TEXTSTYLE
  7
STANDARD
  9
$CLAYER
  8
0
  9
$CELTYPE
  6
BYLAYER
  9
$CECOLOR
 62
  256
  9
$CELTSCALE
 40
1
  9
$DISPSILH
 70
    0
  9
$DIMSCALE
 40
2.5
  9
$DIMASZ
 40
2.5
  9
$DIMEXO
 40
0.625
  9
$DIMDLI
 40
3.75
  9
$DIMRND
 40
0
  9
$DIMDLE
 40
0
  9
$DIMEXE
 40
1.25
  9
$DIMTP
 40
0
  9
$DIMTM
 40
0
  9
$DIMTXT
 40
2.5
  9
$DIMCEN
 40
2.5
  9
$DIMTSZ
 40
0
  9
$DIMTOL
 70
    0
  9
$DIMLIM
 70
    0
  9
$DIMTIH
 70
    0
  9
$DIMTOH
 70
    0
  9
$DIMSE1
 70
    0
  9
$DIMSE2
 70
    0
  9
$DIMTAD
 70
    1
  9
$DIMZIN
 70
    8
  9
$DIMBLK
  1

  9
$DIMASO
 70
    1
  9
$DIMSHO
 70
    1
  9
$DIMPOST
  1

  9
$DIMAPOST
  1

  9
$DIMALT
 70
    0
  9
$DIMALTD
 70
    3
  9
$DIMALTF
 40
0.03937
  9
$DIMLFAC
 40
1
  9
$DIMTOFL
 70
    1
  9
$DIMTVP
 40
0
  9
$DIMTIX
 70
    0
  9
$DIMSOXD
 70
    0
  9
$DIMSAH
 70
    0
  9
$DIMBLK1
  1

  9
$DIMBLK2
  1

  9
$DIMSTYLE
  2
Standard
  9
$DIMCLRD
 70
    0
  9
$DIMCLRE
 70
    0
  9
$DIMCLRT
 70
    0
  9
$DIMTFAC
 40
1
  9
$DIMGAP
 40
0.625
  9
$DIMJUST
 70
    0
  9
$DIMSD1
 70
    0
  9
$DIMSD2
 70
    0
  9
$DIMTOLJ
 70
    0
  9
$DIMTZIN
 70
    8
  9
$DIMALTZ
 70
    0
  9
$DIMALTTZ
 70
    0
  9
$DIMUPT
 70
    0
  9
$DIMDEC
 70
    4
  9
$DIMTDEC
 70
    2
  9
$DIMALTU
 70
    2
  9
$DIMALTTD
 70
    3
  9
$DIMTXSTY
  7
STANDARD
  9
$DIMAUNIT
 70
    0
  9
$DIMADEC
 70
    0
  9
$DIMALTRND
 40
0
  9
$DIMAZIN
 70
    0
  9
$DIMDSEP
 70
   44
  9
$DIMATFIT
 70
    3
  9
$DIMFRAC
 70
    0
  9
$DIMLDRBLK
  1
STANDARD
  9
$DIMLUNIT
 70
    2
  9
$DIMLWD
 70
   -2
  9
$DIMLWE
 70
   -2
  9
$DIMTMOVE
 70
    0
  9
$DIMFXL
 40
1
  9
$DIMFXLON
 70
    0
  9
$DIMJOGANG
 40
0.7854
  9
$DIMTFILL
 70
    0
  9
$DIMTFILLCLR
 70
    0
  9
$DIMARCSYM
 70
    0
  9
$DIMLTYPE
  6

  9
$DIMLTEX1
  6

  9
$DIMLTEX2
  6

  9
$LUNITS
 70
    2
  9
$LUPREC
 70
    4
  9
$SKETCHINC
 40
1
  9
$FILLETRAD
 40
0
  9
$AUNITS
 70
    0
  9
$AUPREC
 70
    2
  9
$MENU
  1
.
  9
$ELEVATION
 40
0
  9
$PELEVATION
 40
0
  9
$THICKNESS
 40
0
  9
$LIMCHECK
 70
    0
  9
$CHAMFERA
 40
0
  9
$CHAMFERB
 40
0
  9
$CHAMFERC
 40
0
  9
$CHAMFERD
 40
0
  9
$SKPOLY
 70
    0
  9
$USRTIMER
 70
    1
  9
$ANGBASE
 50
0
  9
$ANGDIR
 70
    0
  9
$PDMODE
 70
   34
  9
$PDSIZE
 40
0
  9
$PLINEWID
 40
0
  9
$SPLFRAME
 70
    0
  9
$SPLINETYPE
 70
    2
  9
$SPLINESEGS
 70
    8
  9
$HANDSEED
  5
20000
  9
$SURFTAB1
 70
    6
  9
$SURFTAB2
 70
    6
  9
$SURFTYPE
 70
    6
  9
$SURFU
 70
    6
  9
$SURFV
 70
    6
  9
$UCSBASE
  2

  9
$UCSNAME
  2

  9
$UCSORG
 10
0
 20
0
 30
0
  9
$UCSXDIR
 10
1
 20
0
 30
0
  9
$UCSYDIR
 10
0
 20
1
 30
0
  9
$UCSORTHOREF
  2

  9
$UCSORTHOVIEW
 70
    0
  9
$UCSORGTOP
 10
0
 20
0
 30
0
  9
$UCSORGBOTTOM
 10
0
 20
0
 30
0
  9
$UCSORGLEFT
 10
0
 20
0
 30
0
  9
$UCSORGRIGHT
 10
0
 20
0
 30
0
  9
$UCSORGFRONT
 10
0
 20
0
 30
0
  9
$UCSORGBACK
 10
0
 20
0
 30
0
  9
$PUCSBASE
  2

  9
$PUCSNAME
  2

  9
$PUCSORG
 10
0
 20
0
 30
0
  9
$PUCSXDIR
 10
1
 20
0
 30
0
  9
$PUCSYDIR
 10
0
 20
1
 30
0
  9
$PUCSORTHOREF
  2

  9
$PUCSORTHOVIEW
 70
    0
  9
$PUCSORGTOP
 10
0
 20
0
 30
0
  9
$PUCSORGBOTTOM
 10
0
 20
0
 30
0
  9
$PUCSORGLEFT
 10
0
 20
0
 30
0
  9
$PUCSORGRIGHT
 10
0
 20
0
 30
0
  9
$PUCSORGFRONT
 10
0
 20
0
 30
0
  9
$PUCSORGBACK
 10
0
 20
0
 30
0
  9
$USERI1
 70
    0
  9
$USERI2
 70
    0
  9
$USERI3
 70
    0
  9
$USERI4
 70
    0
  9
$USERI5
 70
    0
  9
$USERR1
 40
0
  9
$USERR2
 40
0
  9
$USERR3
 40
0
  9
$USERR4
 40
0
  9
$USERR5
 40
0
  9
$WORLDVIEW
 70
    1
  9
$SHADEDGE
 70
    3
  9
$SHADEDIF
 70
   70
  9
$TILEMODE
 70
    1
  9
$MAXACTVP
 70
   64
  9
$PINSBASE
 10
0
 20
0
 30
0
  9
$PLIMCHECK
 70
    0
  9
$PEXTMIN
 10
0
 20
0
 30
0
  9
$PEXTMAX
 10
0
 20
0
 30
0
  9
$SNAPSTYLE
 70
    0
  9
$PLIMMIN
 10
0
 20
0
  9
$PLIMMAX
 10
210
 20
297
  9
$UNITMODE
 70
    0
  9
$VISRETAIN
 70
    1
  9
$PLINEGEN
 70
    0
  9
$PSLTSCALE
 70
    1
  9
$TREEDEPTH
 70
 3020
  9
$CMLSTYLE
  2
Standard
  9
$CMLJUST
 70
    0
  9
$CMLSCALE
 40
20
  9
$PROXYGRAPHICS
 70
    1
  9
$MEASUREMENT
 70
    1
  9
$CELWEIGHT
370
   -1
  9
$ENDCAPS
280
    0
  9
$JOINSTYLE
280
    0
  9
$LWDISPLAY
290
    0
  9
$INSUNITS
 70
    4
  9
$HYPERLINKBASE
  1

  9
$STYLESHEET
  1

  9
$XEDIT
290
    1
  9
$CEPSNTYPE
380
    0
  9
$PSTYLEMODE
290
    1
  9
$EXTNAMES
290
    1
  9
$PSVPSCALE
 40
1
  9
$OLESTARTUP
290
    0
  9
$SORTENTS
280
  127
  9
$INDEXCTL
280
    0
  9
$HIDETEXT
280
    1
  9
$XCLIPFRAME
290
    0
  9
$HALOGAP
280
    0
  9
$OBSCOLOR
 70
  257
  9
$OBSLTYPE
280
    0
  9
$INTERSECTIONDISPLAY
280
    0
  9
$INTERSECTIONCOLOR
 70
  257
  9
$DIMASSOC
280
    1
  9
$PROJECTNAME
  1

  9
$CAMERADISPLAY
290
    0
  9
$LENSLENGTH
 40
50
  9
$CAMERAHEIGHT
 40
0
  9
$STEPSPERSEC
 40
2
  9
$STEPSIZE
 40
50
  9
$3DDWFPREC
 40
2
  9
$PSOLWIDTH
 40
5
  9
$PSOLHEIGHT
 40
80
  9
$LOFTANG1
 40
1.570796326794897
  9
$LOFTANG2
 40
1.570796326794897
  9
$LOFTMAG1
 40
0
  9
$LOFTMAG2
 40
0
  9
$LOFTPARAM
 70
    7
  9
$LOFTNORMALS
280
    1
  9
$LATITUDE
 40
1
  9
$LONGITUDE
 40
1
  9
$NORTHDIRECTION
 40
0
  9
$TIMEZONE
 70
-8000
  9
$LIGHTGLYPHDISPLAY
280
    1
  9
$TILEMODELIGHTSYNCH
280
    1
  9
$SOLIDHIST
280
    1
  9
$SHOWHIST
280
    1
  9
$DWFFRAME
280
    2
  9
$DGNFRAME
280
    0
  9
$REALWORLDSCALE
290
    1
  9
$INTERFERECOLOR
 62
    1
  9
$CSHADOW
280
    0
  9
$SHADOWPLANELOCATION
 40
0
  0
ENDSEC
  0
SECTION
  2
CLASSES
  0
ENDSEC
  0
SECTION
  2
TABLES
  0
TABLE
  2
VPORT
  5
8
330
0
100
AcDbSymbolTable
 70
    1
  0
VPORT
  5
31
330
2
100
AcDbSymbolTableRecord
100
AcDbViewportTableRecord
  2
*ACTIVE
 70
    0
 10
0
 20
0
 11
1
 21
1
 12
21453.69148639838
 22
9760.463243811875
 13
0
 23
0
 14
10
 24
10
 15
10
 25
10
 16
0
 26
0
 36
1
 17
0
 27
0
 37
0
 40
62428.3094604205
 41
1.692724458204334
 42
50
 43
0
 44
0
 50
0
 51
0
 71
    0
 72
  100
 73
    1
 74
    3
 75
    0
 76
    1
 77
    0
 78
    0
281
    0
 65
    1
110
0
120
0
130
0
111
1
121
0
131
0
112
0
122
1
132
0
 79
    0
146
0
348
10020
 60
    7
 61
    5
292
1
282
    1
141
0
142
0
 63
  250
421
3358443
  0
ENDTAB
  0
TABLE
  2
LTYPE
  5
5
330
0
100
AcDbSymbolTable
 70
    4
  0
LTYPE
  5
14
330
5
100
AcDbSymbolTableRecord
100
AcDbLinetypeTableRecord
  2
ByBlock
 70
    0
  3

 72
   65
 73
    0
 40
0
  0
LTYPE
  5
15
330
5
100
AcDbSymbolTableRecord
100
AcDbLinetypeTableRecord
  2
ByLayer
 70
    0
  3

 72
   65
 73
    0
 40
0
  0
LTYPE
  5
16
330
5
100
AcDbSymbolTableRecord
100
AcDbLinetypeTableRecord
  2
Continuous
 70
    0
  3
Solid line
 72
   65
 73
    0
 40
0
  0
LTYPE
  5
32
330
5
100
AcDbSymbolTableRecord
100
AcDbLinetypeTableRecord
  2
DOT
 70
    0
  3
Dot . . . . . . . . . . . . . . . . . . . . . .
 72
   65
 73
    2
 40
6.35
 49
0
 74
    0
 49
-6.35
 74
    0
  0
LTYPE
  5
33
330
5
100
AcDbSymbolTableRecord
100
AcDbLinetypeTableRecord
  2
DOTTINY
 70
    0
  3
Dot (.15x) .....................................
 72
   65
 73
    2
 40
0.9525
 49
0
 74
    0
 49
-0.9525
 74
    0
  0
LTYPE
  5
34
330
5
100
AcDbSymbolTableRecord
100
AcDbLinetypeTableRecord
  2
DOT2
 70
    0
  3
Dot (.5x) .....................................
 72
   65
 73
    2
 40
3.175
 49
0
 74
    0
 49
-3.175
 74
    0
  0
LTYPE
  5
35
330
5
100
AcDbSymbolTableRecord
100
AcDbLinetypeTableRecord
  2
DOTX2
 70
    0
  3
Dot (2x) .  .  .  .  .  .  .  .  .  .  .  .  .
 72
   65
 73
    2
 40
12.7
 49
0
 74
    0
 49
-12.7
 74
    0
  0
LTYPE
  5
36
330
5
100
AcDbSymbolTableRecord
100
AcDbLinetypeTableRecord
  2
DASHED
 70
    0
  3
Dashed _ _ _ _ _ _ _ _ _ _ _ _ _ _ _ _ _
 72
   65
 73
    2
 40
19.05
 49
12.7
 74
    0
 49
-6.35
 74
    0
  0
LTYPE
  5
37
330
5
100
AcDbSymbolTableRecord
100
AcDbLinetypeTableRecord
  2
DASHEDTINY
 70
    0
  3
Dashed (.15x) _ _ _ _ _ _ _ _ _ _ _ _ _ _ _ _ _
 72
   65
 73
    2
 40
2.8575
 49
1.905
 74
    0
 49
-0.9525
 74
    0
  0
LTYPE
  5
38
330
5
100
AcDbSymbolTableRecord
100
AcDbLinetypeTableRecord
  2
DASHED2
 70
    0
  3
Dashed (.5x) _ _ _ _ _ _ _ _ _ _ _ _ _ _ _ _ _
 72
   65
 73
    2
 40
9.524999999999999
 49
6.35
 74
    0
 49
-3.175
 74
    0
  0
LTYPE
  5
39
330
5
100
AcDbSymbolTableRecord
100
AcDbLinetypeTableRecord
  2
DASHEDX2
 70
    0
  3
Dashed (2x) ____  ____  ____  ____  ____  ___
 72
   65
 73
    2
 40
38.09999999999999
 49
25.4
 74
    0
 49
-12.7
 74
    0
  0
LTYPE
  5
3A
330
5
100
AcDbSymbolTableRecord
100
AcDbLinetypeTableRecord
  2
DASHDOT
 70
    0
  3
Dash dot __ . __ . __ . __ . __ . __ . __ . __
 72
   65
 73
    4
 40
25.4
 49
12.7
 74
    0
 49
-6.35
 74
    0
 49
0
 74
    0
 49
-6.35
 74
    0
  0
LTYPE
  5
3B
330
5
100
AcDbSymbolTableRecord
100
AcDbLinetypeTableRecord
  2
DASHDOTTINY
 70
    0
  3
Dash dot (.15x) _._._._._._._._._._._._._._._.
 72
   65
 73
    4
 40
3.81
 49
1.905
 74
    0
 49
-0.9525
 74
    0
 49
0
 74
    0
 49
-0.9525
 74
    0
  0
LTYPE
  5
3C
330
5
100
AcDbSymbolTableRecord
100
AcDbLinetypeTableRecord
  2
DASHDOT2
 70
    0
  3
Dash dot (.5x) _._._._._._._._._._._._._._._.
 72
   65
 73
    4
 40
12.7
 49
6.35
 74
    0
 49
-3.175
 74
    0
 49
0
 74
    0
 49
-3.175
 74
    0
  0
LTYPE
  5
3D
330
5
100
AcDbSymbolTableRecord
100
AcDbLinetypeTableRecord
  2
DASHDOTX2
 70
    0
  3
Dash dot (2x) ____  .  ____  .  ____  .  ___
 72
   65
 73
    4
 40
50.8
 49
25.4
 74
    0
 49
-12.7
 74
    0
 49
0
 74
    0
 49
-12.7
 74
    0
  0
LTYPE
  5
3E
330
5
100
AcDbSymbolTableRecord
100
AcDbLinetypeTableRecord
  2
DIVIDE
 70
    0
  3
Divide ____ . . ____ . . ____ . . ____ . . ____
 72
   65
 73
    6
 40
31.75
 49
12.7
 74
    0
 49
-6.35
 74
    0
 49
0
 74
    0
 49
-6.35
 74
    0
 49
0
 74
    0
 49
-6.35
 74
    0
  0
LTYPE
  5
3F
330
5
100
AcDbSymbolTableRecord
100
AcDbLinetypeTableRecord
  2
DIVIDETINY
 70
    0
  3
Divide (.15x) __..__..__..__..__..__..__..__.._
 72
   65
 73
    6
 40
4.7625
 49
1.905
 74
    0
 49
-0.9525
 74
    0
 49
0
 74
    0
 49
-0.9525
 74
    0
 49
0
 74
    0
 49
-0.9525
 74
    0
  0
LTYPE
  5
40
330
5
100
AcDbSymbolTableRecord
100
AcDbLinetypeTableRecord
  2
DIVIDE2
 70
    0
  3
Divide (.5x) __..__..__..__..__..__..__..__.._
 72
   65
 73
    6
 40
15.875
 49
6.35
 74
    0
 49
-3.175
 74
    0
 49
0
 74
    0
 49
-3.175
 74
    0
 49
0
 74
    0
 49
-3.175
 74
    0
  0
LTYPE
  5
41
330
5
100
AcDbSymbolTableRecord
100
AcDbLinetypeTableRecord
  2
DIVIDEX2
 70
    0
  3
Divide (2x) ________  .  .  ________  .  .  _
 72
   65
 73
    6
 40
63.5
 49
25.4
 74
    0
 49
-12.7
 74
    0
 49
0
 74
    0
 49
-12.7
 74
    0
 49
0
 74
    0
 49
-12.7
 74
    0
  0
LTYPE
  5
42
330
5
100
AcDbSymbolTableRecord
100
AcDbLinetypeTableRecord
  2
BORDER
 70
    0
  3
Border __ __ . __ __ . __ __ . __ __ . __ __ .
 72
   65
 73
    6
 40
44.45
 49
12.7
 74
    0
 49
-6.35
 74
    0
 49
12.7
 74
    0
 49
-6.35
 74
    0
 49
0
 74
    0
 49
-6.35
 74
    0
  0
LTYPE
  5
43
330
5
100
AcDbSymbolTableRecord
100
AcDbLinetypeTableRecord
  2
BORDERTINY
 70
    0
  3
Border (.15x) __.__.__.__.__.__.__.__.__.__.__.
 72
   65
 73
    6
 40
6.6675
 49
1.905
 74
    0
 49
-0.9525
 74
    0
 49
1.905
 74
    0
 49
-0.9525
 74
    0
 49
0
 74
    0
 49
-0.9525
 74
    0
  0
LTYPE
  5
44
330
5
100
AcDbSymbolTableRecord
100
AcDbLinetypeTableRecord
  2
BORDER2
 70
    0
  3
Border (.5x) __.__.__.__.__.__.__.__.__.__.__.
 72
   65
 73
    6
 40
22.225
 49
6.35
 74
    0
 49
-3.175
 74
    0
 49
6.35
 74
    0
 49
-3.175
 74
    0
 49
0
 74
    0
 49
-3.175
 74
    0
  0
LTYPE
  5
45
330
5
100
AcDbSymbolTableRecord
100
AcDbLinetypeTableRecord
  2
BORDERX2
 70
    0
  3
Border (2x) ____  ____  .  ____  ____  .  ___
 72
   65
 73
    6
 40
88.89999999999999
 49
25.4
 74
    0
 49
-12.7
 74
    0
 49
25.4
 74
    0
 49
-12.7
 74
    0
 49
0
 74
    0
 49
-12.7
 74
    0
  0
LTYPE
  5
46
330
5
100
AcDbSymbolTableRecord
100
AcDbLinetypeTableRecord
  2
CENTER
 70
    0
  3
Center ____ _ ____ _ ____ _ ____ _ ____ _ ____
 72
   65
 73
    4
 40
50.8
 49
31.75
 74
    0
 49
-6.35
 74
    0
 49
6.35
 74
    0
 49
-6.35
 74
    0
  0
LTYPE
  5
47
330
5
100
AcDbSymbolTableRecord
100
AcDbLinetypeTableRecord
  2
CENTERTINY
 70
    0
  3
Center (.15x) ___ _ ___ _ ___ _ ___ _ ___ _ ___
 72
   65
 73
    4
 40
7.619999999999999
 49
4.7625
 74
    0
 49
-0.9525
 74
    0
 49
0.9525
 74
    0
 49
-0.9525
 74
    0
  0
LTYPE
  5
48
330
5
100
AcDbSymbolTableRecord
100
AcDbLinetypeTableRecord
  2
CENTER2
 70
    0
  3
Center (.5x) ___ _ ___ _ ___ _ ___ _ ___ _ ___
 72
   65
 73
    4
 40
28.575
 49
19.05
 74
    0
 49
-3.175
 74
    0
 49
3.175
 74
    0
 49
-3.175
 74
    0
  0
LTYPE
  5
49
330
5
100
AcDbSymbolTableRecord
100
AcDbLinetypeTableRecord
  2
CENTERX2
 70
    0
  3
Center (2x) ________  __  ________  __  _____
 72
   65
 73
    4
 40
101.6
 49
63.5
 74
    0
 49
-12.7
 74
    0
 49
12.7
 74
    0
 49
-12.7
 74
    0
  0
ENDTAB
  0
TABLE
  2
LAYER
  5
2
330
0
100
AcDbSymbolTable
 70
    1
  0
LAYER
  5
10
330
2
100
AcDbSymbolTableRecord
100
AcDbLayerTableRecord
  2
0
 70
    0
 62
    7
  6
CONTINUOUS
370
   -3
390
F
  0
LAYER
  5
4A
330
2
100
AcDbSymbolTableRecord
100
AcDbLayerTableRecord
  2
CargoDoors
 70
    0
 62
    7
  6
DASHED
370
   -3
390
F
  0
ENDTAB
  0
TABLE
  2
STYLE
  5
3
330
0
100
AcDbSymbolTable
 70
    3
  0
STYLE
  5
4B
330
2
100
AcDbSymbolTableRecord
100
AcDbTextStyleTableRecord
  2
Standard
 70
    0
 40
0
 41
1
 50
0
 71
    0
 42
1
  3
txt
  4

  0
ENDTAB
  0
TABLE
  2
VIEW
  5
6
330
0
100
AcDbSymbolTable
 70
    0
  0
ENDTAB
  0
TABLE
  2
UCS
  5
7
330
0
100
AcDbSymbolTable
 70
    0
  0
ENDTAB
  0
TABLE
  2
APPID
  5
9
330
0
100
AcDbSymbolTable
 70
    1
  0
APPID
  5
12
330
9
100
AcDbSymbolTableRecord
100
AcDbRegAppTableRecord
  2
ACAD
 70
    0
  0
APPID
  5
4C
330
9
100
AcDbSymbolTableRecord
100
AcDbRegAppTableRecord
  2
LibreCad
 70
    0
  0
ENDTAB
  0
TABLE
  2
DIMSTYLE
  5
A
330
0
100
AcDbSymbolTable
 70
    1
100
AcDbDimStyleTable
 71
    1
  0
DIMSTYLE
105
4D
330
A
100
AcDbSymbolTableRecord
100
AcDbDimStyleTableRecord
  2
Standard
 70
    0
 40
1
 41
2.5
 42
0.625
 43
0.38
 44
1.25
 45
0
 46
0
 47
0
 48
0
 49
1
140
2.5
141
0.09
142
2.5
143
25.4
144
1
145
0
146
1
147
0.625
148
0
 71
    0
 72
    0
 73
    0
 74
    1
 75
    0
 76
    0
 77
    0
 78
    1
 79
    0
170
    0
171
    2
172
    0
173
    0
174
    0
175
    0
176
    0
177
    0
178
    0
179
    0
271
    4
272
    4
273
    2
274
    2
275
    0
276
    0
277
    2
278
    0
279
    0
280
    0
281
    0
282
    0
283
    1
284
    0
285
    0
286
    0
288
    0
289
    3
340
standard
341

371
   -2
372
   -2
  0
ENDTAB
  0
TABLE
  2
BLOCK_RECORD
  5
1
330
0
100
AcDbSymbolTable
 70
    2
  0
BLOCK_RECORD
  5
1F
330
1
100
AcDbSymbolTableRecord
100
AcDbBlockTableRecord
  2
*Model_Space
 70
    0
280
    1
281
    0
  0
BLOCK_RECORD
  5
1E
330
1
100
AcDbSymbolTableRecord
100
AcDbBlockTableRecord
  2
*Paper_Space
 70
    0
280
    1
281
    0
  0
ENDTAB
  0
ENDSEC
  0
SECTION
  2
BLOCKS
  0
BLOCK
  5
20
330
1F
100
AcDbEntity
  8
0
100
AcDbBlockBegin
  2
*Model_Space
 70
    0
 10
0
 20
0
 30
0
  3
*Model_Space
  1

  0
ENDBLK
  5
21
330
1F
100
AcDbEntity
  8
0
100
AcDbBlockEnd
  0
BLOCK
  5
1C
330
1B
100
AcDbEntity
  8
0
100
AcDbBlockBegin
  2
*Paper_Space
 70
    0
 10
0
 20
0
 30
0
  3
*Paper_Space
  1

  0
ENDBLK
  5
1D
330
1F
100
AcDbEntity
  8
0
100
AcDbBlockEnd
  0
ENDSEC
  0
SECTION
  2
ENTITIES
  0
LINE
  5
4E
100
AcDbEntity
  8
0
  6
ByLayer
 62
    7
370
   -3
100
AcDbLine
 10
-8082.673828124998
 20
-1296.88232421875
 11
-7788.994140624998
 21
-1299.552734375
  0
LINE
  5
4F
100
AcDbEntity
  8
0
  6
ByLayer
 62
    7
370
   -3
100
AcDbLine
 10
1721.970703125
 20
-6266.265869140625
 11
1967.189453125
 21
-6305.741455078125
  0
LINE
  5
50
100
AcDbEntity
  8
0
  6
ByLayer
 62
    7
370
   -3
100
AcDbLine
 10
1721.970703125
 20
-9866.084716796877
 11
1967.232421875
 21
-9826.600830078127
  0
LWPOLYLINE
  5
51
100
AcDbEntity
  8
0
  6
ByLayer
 62
    7
370
   -1
100
AcDbPolyline
 90
   10
 70
    0
 43
0
 10
-17939.416015625
 20
-25795.40234375
 10
-17940.3359375
 20
-25795.61328125
 10
-17940.84375
 20
-25795.765625
 10
-17941.685546875
 20
-25796.083984375
 10
-17942.505859375
 20
-25796.49609375
 10
-17942.912109375
 20
-25796.7578125
 10
-17943.2578125
 20
-25797.0390625
 10
-17943.45703125
 20
-25797.2578125
 10
-17943.591796875
 20
-25797.474609375
 10
-17943.658203125
 20
-25797.767578125
  0
LWPOLYLINE
  5
52
100
AcDbEntity
  8
0
  6
ByLayer
 62
    7
370
   -1
100
AcDbPolyline
 90
   11
 70
    0
 43
0
 10
-17939.416015625
 20
-25795.40234375
 10
-17940.322265625
 20
-25795.609375
 10
-17940.8359375
 20
-25795.763671875
 10
-17941.66796875
 20
-25796.076171875
 10
-17942.287109375
 20
-25796.373046875
 10
-17942.845703125
 20
-25796.7109375
 10
-17943.2890625
 20
-25797.0703125
 10
-17943.453125
 20
-25797.251953125
 10
-17943.5703125
 20
-25797.431640625
 10
-17943.638671875
 20
-25797.603515625
 10
-17943.658203125
 20
-25797.767578125
  0
LWPOLYLINE
  5
53
100
AcDbEntity
  8
0
  6
ByLayer
 62
    7
370
   -1
100
AcDbPolyline
 90
    8
 70
    0
 43
0
 10
-17943.658203125
 20
-25797.767578125
 10
-17943.6328125
 20
-25797.908203125
 10
-17943.568359375
 20
-25798.03515625
 10
-17943.330078125
 20
-25798.255859375
 10
-17942.990234375
 20
-25798.412109375
 10
-17942.55859375
 20
-25798.521484375
 10
-17942.00390625
 20
-25798.587890625
 10
-17941.404296875
 20
-25798.60546875
  0
LWPOLYLINE
  5
54
100
AcDbEntity
  8
0
  6
ByLayer
 62
    7
370
   -1
100
AcDbPolyline
 90
   20
 70
    0
 43
0
 10
-17702.87109375
 20
-25803.814453125
 10
-17711.412109375
 20
-25804.455078125
 10
-17721.21875
 20
-25805.13671875
 10
-17731.3203125
 20
-25805.765625
 10
-17738.716796875
 20
-25806.173828125
 10
-17745.271484375
 20
-25806.4921875
 10
-17751.912109375
 20
-25806.767578125
 10
-17758.611328125
 20
-25806.990234375
 10
-17765.365234375
 20
-25807.15625
 10
-17772.658203125
 20
-25807.2578125
 10
-17779.703125
 20
-25807.27734375
 10
-17787.921875
 20
-25807.1953125
 10
-17796.181640625
 20
-25807.001953125
 10
-17804.462890625
 20
-25806.697265625
 10
-17812.751953125
 20
-25806.287109375
 10
-17819.1171875
 20
-25805.91015625
 10
-17825.490234375
 20
-25805.484375
 10
-17835.6640625
 20
-25804.720703125
 10
-17845.822265625
 20
-25803.87890625
 10
-17855.9921875
 20
-25802.97265625
  0
LWPOLYLINE
  5
55
100
AcDbEntity
  8
0
  6
ByLayer
 62
    7
370
   -1
100
AcDbPolyline
 90
    9
 70
    0
 43
0
 10
-17943.658203125
 20
-25797.767578125
 10
-17943.626953125
 20
-25797.923828125
 10
-17943.546875
 20
-25798.064453125
 10
-17943.400390625
 20
-25798.208984375
 10
-17943.19921875
 20
-25798.328125
 10
-17942.91015625
 20
-25798.439453125
 10
-17942.57421875
 20
-25798.517578125
 10
-17942.005859375
 20
-25798.587890625
 10
-17941.404296875
 20
-25798.60546875
  0
LWPOLYLINE
  5
56
100
AcDbEntity
  8
0
  6
ByLayer
 62
    7
370
   -1
100
AcDbPolyline
 90
   42
 70
    0
 43
0
 10
-17520.916015625
 20
-25786.083984375
 10
-17528.634765625
 20
-25787.03125
 10
-17539.5078125
 20
-25788.255859375
 10
-17554.033203125
 20
-25789.849609375
 10
-17576.2109375
 20
-25792.169921875
 10
-17610.173828125
 20
-25795.583984375
 10
-17635.62890625
 20
-25798.0625
 10
-17657.783203125
 20
-25800.123046875
 10
-17678.17578125
 20
-25801.91015625
 10
-17693.98828125
 20
-25803.203125
 10
-17707.45703125
 20
-25804.228515625
 10
-17721.10546875
 20
-25805.169921875
 10
-17730.57421875
 20
-25805.755859375
 10
-17740.52734375
 20
-25806.29296875
 10
-17750.904296875
 20
-25806.751953125
 10
-17761.568359375
 20
-25807.09375
 10
-17766.986328125
 20
-25807.208984375
 10
-17772.46484375
 20
-25807.279296875
 10
-17778.01171875
 20
-25807.302734375
 10
-17783.62890625
 20
-25807.27734375
 10
-17789.296875
 20
-25807.1953125
 10
-17794.998046875
 20
-25807.0625
 10
-17800.72265625
 20
-25806.873046875
 10
-17806.458984375
 20
-25806.634765625
 10
-17812.203125
 20
-25806.345703125
 10
-17817.955078125
 20
-25806.01171875
 10
-17823.720703125
 20
-25805.634765625
 10
-17835.28515625
 20
-25804.78125
 10
-17846.841796875
 20
-25803.8203125
 10
-17858.42578125
 20
-25802.779296875
 10
-17875.8671875
 20
-25801.142578125
 10
-17881.662109375
 20
-25800.61328125
 10
-17887.48046875
 20
-25800.115234375
 10
-17893.32421875
 20
-25799.66796875
 10
-17897.43359375
 20
-25799.400390625
 10
-17901.541015625
 20
-25799.18359375
 10
-17905.662109375
 20
-25799.015625
 10
-17909.775390625
 20
-25798.8984375
 10
-17914.251953125
 20
-25798.81640625
 10
-17923.314453125
 20
-25798.7421875
 10
-17938.93359375
 20
-25798.62890625
 10
-17941.5390625
 20
-25798.60546875
  0
LWPOLYLINE
  5
57
100
AcDbEntity
  8
0
  6
ByLayer
 62
    7
370
   -1
100
AcDbPolyline
 90
  107
 70
    0
 43
0
 10
-16622.939453125
 20
-24581.861328125
 10
-16629.443359375
 20
-24607.0703125
 10
-16635.880859375
 20
-24632.173828125
 10
-16645.94921875
 20
-24671.6875
 10
-16660.76171875
 20
-24730.234375
 10
-16675.6796875
 20
-24789.490234375
 10
-16690.43359375
 20
-24848.130859375
 10
-16704.33984375
 20
-24903.1875
 10
-16714.560546875
 20
-24943.388671875
 10
-16722.609375
 20
-24974.80078125
 10
-16729.87109375
 20
-25002.921875
 10
-16737.14453125
 20
-25030.8359375
 10
-16745.083984375
 20
-25060.962890625
 10
-16752.73828125
 20
-25089.6171875
 10
-16760.439453125
 20
-25118.013671875
 10
-16768.185546875
 20
-25146.078125
 10
-16772.08203125
 20
-25159.98828125
 10
-16776
 20
-25173.830078125
 10
-16782.783203125
 20
-25197.412109375
 10
-16786.392578125
 20
-25209.7578125
 10
-16790.033203125
 20
-25222.060546875
 10
-16794.931640625
 20
-25238.365234375
 10
-16799.875
 20
-25254.513671875
 10
-16804.861328125
 20
-25270.482421875
 10
-16810.173828125
 20
-25287.126953125
 10
-16815.552734375
 20
-25303.57421875
 10
-16821.013671875
 20
-25319.849609375
 10
-16825.05859375
 20
-25331.611328125
 10
-16830.107421875
 20
-25345.9453125
 10
-16835.244140625
 20
-25360.11328125
 10
-16840.462890625
 20
-25374.078125
 10
-16843.103515625
 20
-25380.974609375
 10
-16845.763671875
 20
-25387.810546875
 10
-16849.345703125
 20
-25396.826171875
 10
-16852.96875
 20
-25405.724609375
 10
-16856.6328125
 20
-25414.505859375
 10
-16859.107421875
 20
-25420.306640625
 10
-16861.60546875
 20
-25426.0546875
 10
-16864.0078125
 20
-25431.482421875
 10
-16866.431640625
 20
-25436.861328125
 10
-16870.41796875
 20
-25445.490234375
 10
-16874.46875
 20
-25453.978515625
 10
-16878.583984375
 20
-25462.314453125
 10
-16882.767578125
 20
-25470.48828125
 10
-16885.03125
 20
-25474.787109375
 10
-16887.3125
 20
-25479.03515625
 10
-16889.5703125
 20
-25483.150390625
 10
-16891.84765625
 20
-25487.2109375
 10
-16894.943359375
 20
-25492.59375
 10
-16898.07421875
 20
-25497.875
 10
-16901.2421875
 20
-25503.05078125
 10
-16905.232421875
 20
-25509.333984375
 10
-16909.28515625
 20
-25515.447265625
 10
-16913.3984375
 20
-25521.380859375
 10
-16915.46484375
 20
-25524.259765625
 10
-16917.548828125
 20
-25527.091796875
 10
-16920.35546875
 20
-25530.796875
 10
-16923.19140625
 20
-25534.41796875
 10
-16926.05859375
 20
-25537.951171875
 10
-16929.54296875
 20
-25542.07421875
 10
-16933.0703125
 20
-25546.0625
 10
-16936.642578125
 20
-25549.9140625
 10
-16940.2578125
 20
-25553.623046875
 10
-16943.9140625
 20
-25557.185546875
 10
-16947.703125
 20
-25560.681640625
 10
-16951.53515625
 20
-25564.01953125
 10
-16954.859375
 20
-25566.7578125
 10
-16958.216796875
 20
-25569.380859375
 10
-16961.611328125
 20
-25571.890625
 10
-16965.044921875
 20
-25574.2890625
 10
-16968.515625
 20
-25576.576171875
 10
-16971.4375
 20
-25578.3984375
 10
-16974.384765625
 20
-25580.14453125
 10
-16977.359375
 20
-25581.81640625
 10
-16979.591796875
 20
-25583.015625
 10
-16981.837890625
 20
-25584.173828125
 10
-16984.12890625
 20
-25585.30859375
 10
-16986.43359375
 20
-25586.404296875
 10
-16989.21484375
 20
-25587.669921875
 10
-16992.01171875
 20
-25588.880859375
 10
-16996.375
 20
-25590.654296875
 10
-17000.779296875
 20
-25592.3203125
 10
-17005.228515625
 20
-25593.88671875
 10
-17008.49609375
 20
-25594.970703125
 10
-17011.79296875
 20
-25596.015625
 10
-17015.322265625
 20
-25597.08203125
 10
-17018.8828125
 20
-25598.111328125
 10
-17025.892578125
 20
-25600.0234375
 10
-17033.638671875
 20
-25601.99609375
 10
-17041.51171875
 20
-25603.888671875
 10
-17043.888671875
 20
-25604.443359375
 10
-17054.1875
 20
-25606.78125
 10
-17070.546875
 20
-25610.404296875
 10
-17132.916015625
 20
-25624.16796875
 10
-17212.048828125
 20
-25641.533203125
 10
-17291.24609375
 20
-25658.8046875
 10
-17370.455078125
 20
-25675.96484375
 10
-17449.603515625
 20
-25692.9921875
 10
-17513.12890625
 20
-25706.5625
 10
-17572.251953125
 20
-25719.115234375
 10
-17631.509765625
 20
-25731.62109375
 10
-17690.873046875
 20
-25744.0703125
 10
-17735.416015625
 20
-25753.361328125
 10
-17779.93359375
 20
-25762.603515625
 10
-17824.39453125
 20
-25771.794921875
 10
-17868.77734375
 20
-25780.931640625
 10
-17939.416015625
 20
-25795.40234375
  0
LWPOLYLINE
  5
58
100
AcDbEntity
  8
0
  6
ByLayer
 62
    7
370
   -1
100
AcDbPolyline
 90
    4
 70
    0
 43
0
 10
-17923.15625
 20
-25793.314453125
 10
-17930.4765625
 20
-25794.296875
 10
-17937.79296875
 20
-25795.201171875
 10
-17939.416015625
 20
-25795.40234375
  0
LWPOLYLINE
  5
59
100
AcDbEntity
  8
0
  6
ByLayer
 62
    7
370
   -1
100
AcDbPolyline
 90
   17
 70
    0
 43
0
 10
-17702.87109375
 20
-25803.814453125
 10
-17714.220703125
 20
-25804.65625
 10
-17724.95703125
 20
-25805.376953125
 10
-17735.185546875
 20
-25805.984375
 10
-17745.28125
 20
-25806.4921875
 10
-17755.0234375
 20
-25806.87890625
 10
-17764.47265625
 20
-25807.13671875
 10
-17773.6796875
 20
-25807.265625
 10
-17783.005859375
 20
-25807.2578125
 10
-17792.138671875
 20
-25807.111328125
 10
-17801.10546875
 20
-25806.833984375
 10
-17809.93359375
 20
-25806.4375
 10
-17815.26171875
 20
-25806.14453125
 10
-17820.54296875
 20
-25805.818359375
 10
-17830.998046875
 20
-25805.08203125
 10
-17843.57421875
 20
-25804.0703125
 10
-17855.98828125
 20
-25802.97265625
  0
LWPOLYLINE
  5
5A
100
AcDbEntity
  8
0
  6
ByLayer
 62
    7
370
   -1
100
AcDbPolyline
 90
    5
 70
    0
 43
0
 10
-15054.41796875
 20
-24582.212890625
 10
-15054.267578125
 20
-24582.322265625
 10
-15054.17578125
 20
-24582.43359375
 10
-15054.150390625
 20
-24582.544921875
 10
-15054.181640625
 20
-24582.62890625
  0
LWPOLYLINE
  5
5B
100
AcDbEntity
  8
0
  6
ByLayer
 62
    7
370
   -1
100
AcDbPolyline
 90
  135
 70
    0
 43
0
 10
-17520.841796875
 20
-25786.076171875
 10
-17353.14453125
 20
-25764.734375
 10
-17185.076171875
 20
-25743.482421875
 10
-17017.294921875
 20
-25722.412109375
 10
-16849.8515625
 20
-25701.51953125
 10
-16682.19921875
 20
-25680.732421875
 10
-16514.171875
 20
-25660.013671875
 10
-16345.775390625
 20
-25639.359375
 10
-16270.654296875
 20
-25630.181640625
 10
-16233.62890625
 20
-25625.662109375
 10
-16208.890625
 20
-25622.61328125
 10
-16196.525390625
 20
-25621.046875
 10
-16185.25390625
 20
-25619.578125
 10
-16173.98828125
 20
-25618.052734375
 10
-16164.8671875
 20
-25616.76953125
 10
-16155.75390625
 20
-25615.431640625
 10
-16148.36328125
 20
-25614.302734375
 10
-16140.978515625
 20
-25613.12890625
 10
-16134.705078125
 20
-25612.09375
 10
-16128.4375
 20
-25611.01953125
 10
-16118.2265625
 20
-25609.177734375
 10
-16108.037109375
 20
-25607.21484375
 10
-16097.875
 20
-25605.119140625
 10
-16092.806640625
 20
-25604.017578125
 10
-16087.744140625
 20
-25602.876953125
 10
-16078.232421875
 20
-25600.623046875
 10
-16068.751953125
 20
-25598.2265625
 10
-16059.310546875
 20
-25595.685546875
 10
-16049.91015625
 20
-25592.99609375
 10
-16045.2265625
 20
-25591.595703125
 10
-16040.5546875
 20
-25590.15625
 10
-16034.345703125
 20
-25588.177734375
 10
-16028.158203125
 20
-25586.130859375
 10
-16021.994140625
 20
-25584.015625
 10
-16017.451171875
 20
-25582.404296875
 10
-16012.921875
 20
-25580.75390625
 10
-16008.375
 20
-25579.0546875
 10
-16003.841796875
 20
-25577.318359375
 10
-15994.8515625
 20
-25573.74609375
 10
-15985.91796875
 20
-25570.03125
 10
-15977.046875
 20
-25566.173828125
 10
-15968.0859375
 20
-25562.109375
 10
-15959.189453125
 20
-25557.91015625
 10
-15950.35546875
 20
-25553.578125
 10
-15941.5859375
 20
-25549.119140625
 10
-15932.87890625
 20
-25544.537109375
 10
-15924.05859375
 20
-25539.740234375
 10
-15915.302734375
 20
-25534.82421875
 10
-15906.611328125
 20
-25529.798828125
 10
-15897.982421875
 20
-25524.6640625
 10
-15889.416015625
 20
-25519.427734375
 10
-15882.109375
 20
-25514.853515625
 10
-15874.84765625
 20
-25510.2109375
 10
-15867.630859375
 20
-25505.50390625
 10
-15862.32421875
 20
-25501.982421875
 10
-15857.0390625
 20
-25498.427734375
 10
-15851.62109375
 20
-25494.732421875
 10
-15846.224609375
 20
-25491.001953125
 10
-15837.07421875
 20
-25484.564453125
 10
-15827.986328125
 20
-25478.03515625
 10
-15818.962890625
 20
-25471.419921875
 10
-15810
 20
-25464.720703125
 10
-15801.935546875
 20
-25458.5859375
 10
-15793.916015625
 20
-25452.390625
 10
-15785.9453125
 20
-25446.1328125
 10
-15779.99609375
 20
-25441.404296875
 10
-15774.0703125
 20
-25436.642578125
 10
-15768.0390625
 20
-25431.744140625
 10
-15762.029296875
 20
-25426.814453125
 10
-15750.0859375
 20
-25416.869140625
 10
-15738.234375
 20
-25406.8125
 10
-15726.177734375
 20
-25396.39453125
 10
-15714.2109375
 20
-25385.873046875
 10
-15702.330078125
 20
-25375.25390625
 10
-15690.318359375
 20
-25364.345703125
 10
-15678.388671875
 20
-25353.345703125
 10
-15666.5390625
 20
-25342.26171875
 10
-15654.6875
 20
-25331.021484375
 10
-15642.912109375
 20
-25319.703125
 10
-15631.20703125
 20
-25308.310546875
 10
-15619.404296875
 20
-25296.6796875
 10
-15607.669921875
 20
-25284.98046875
 10
-15596.00390625
 20
-25273.212890625
 10
-15584.1796875
 20
-25261.15625
 10
-15572.421875
 20
-25249.03515625
 10
-15560.7265625
 20
-25236.853515625
 10
-15548.99609375
 20
-25224.509765625
 10
-15537.326171875
 20
-25212.107421875
 10
-15525.71484375
 20
-25199.650390625
 10
-15514.171875
 20
-25187.1484375
 10
-15502.6875
 20
-25174.595703125
 10
-15491.255859375
 20
-25161.990234375
 10
-15479.76171875
 20
-25149.201171875
 10
-15468.3203125
 20
-25136.361328125
 10
-15456.935546875
 20
-25123.47265625
 10
-15445.451171875
 20
-25110.361328125
 10
-15434.021484375
 20
-25097.201171875
 10
-15422.646484375
 20
-25083.9921875
 10
-15411.296875
 20
-25070.703125
 10
-15400.001953125
 20
-25057.3671875
 10
-15388.76171875
 20
-25043.984375
 10
-15380.3828125
 20
-25033.935546875
 10
-15372.03515625
 20
-25023.861328125
 10
-15363.734375
 20
-25013.783203125
 10
-15355.46484375
 20
-25003.6796875
 10
-15344.40234375
 20
-24990.060546875
 10
-15333.39453125
 20
-24976.396484375
 10
-15322.443359375
 20
-24962.685546875
 10
-15311.482421875
 20
-24948.845703125
 10
-15300.580078125
 20
-24934.958984375
 10
-15289.736328125
 20
-24921.02734375
 10
-15274.072265625
 20
-24900.685546875
 10
-15258.53515625
 20
-24880.24609375
 10
-15250.77734375
 20
-24869.94140625
 10
-15243.05078125
 20
-24859.61328125
 10
-15235.421875
 20
-24849.345703125
 10
-15227.82421875
 20
-24839.0546875
 10
-15217.666015625
 20
-24825.189453125
 10
-15207.56640625
 20
-24811.279296875
 10
-15197.529296875
 20
-24797.328125
 10
-15187.5
 20
-24783.26171875
 10
-15177.53125
 20
-24769.150390625
 10
-15167.625
 20
-24754.99609375
 10
-15157.8125
 20
-24740.84375
 10
-15148.0625
 20
-24726.6484375
 10
-15138.373046875
 20
-24712.412109375
 10
-15128.7890625
 20
-24698.193359375
 10
-15119.267578125
 20
-24683.931640625
 10
-15109.806640625
 20
-24669.62890625
 10
-15100.396484375
 20
-24655.26171875
 10
-15091.048828125
 20
-24640.853515625
 10
-15081.763671875
 20
-24626.404296875
 10
-15072.505859375
 20
-24611.853515625
 10
-15063.310546875
 20
-24597.26171875
 10
-15054.181640625
 20
-24582.62890625
  0
LWPOLYLINE
  5
5C
100
AcDbEntity
  8
0
  6
ByLayer
 62
    7
370
   -1
100
AcDbPolyline
 90
  102
 70
    0
 43
0
 10
-17939.416015625
 20
-25795.40234375
 10
-17846.466796875
 20
-25776.34375
 10
-17799.546875
 20
-25766.6640625
 10
-17752.509765625
 20
-25756.916015625
 10
-17705.953125
 20
-25747.220703125
 10
-17659.341796875
 20
-25737.466796875
 10
-17616.126953125
 20
-25728.3828125
 10
-17572.931640625
 20
-25719.259765625
 10
-17486.732421875
 20
-25700.93359375
 10
-17400.943359375
 20
-25682.5390625
 10
-17335.208984375
 20
-25668.34375
 10
-17256.79296875
 20
-25651.3046875
 10
-17178.1875
 20
-25634.115234375
 10
-17099.8203125
 20
-25616.873046875
 10
-17062.72265625
 20
-25608.673828125
 10
-17056.578125
 20
-25607.3125
 10
-17046.66015625
 20
-25605.083984375
 10
-17042.21875
 20
-25604.0546875
 10
-17034.126953125
 20
-25602.115234375
 10
-17026.10546875
 20
-25600.078125
 10
-17019.7109375
 20
-25598.34375
 10
-17013.392578125
 20
-25596.50390625
 10
-17007.787109375
 20
-25594.740234375
 10
-17005.0078125
 20
-25593.810546875
 10
-17002.2421875
 20
-25592.84765625
 10
-16998.126953125
 20
-25591.33203125
 10
-16994.044921875
 20
-25589.72265625
 10
-16989.998046875
 20
-25588.013671875
 10
-16985.986328125
 20
-25586.1953125
 10
-16981.78515625
 20
-25584.146484375
 10
-16977.626953125
 20
-25581.962890625
 10
-16973.51171875
 20
-25579.63671875
 10
-16969.44140625
 20
-25577.1640625
 10
-16965.416015625
 20
-25574.541015625
 10
-16961.4375
 20
-25571.763671875
 10
-16957.501953125
 20
-25568.833984375
 10
-16953.61328125
 20
-25565.748046875
 10
-16949.771484375
 20
-25562.5078125
 10
-16945.974609375
 20
-25559.111328125
 10
-16942.224609375
 20
-25555.5625
 10
-16938.51953125
 20
-25551.86328125
 10
-16934.5625
 20
-25547.6953125
 10
-16930.66015625
 20
-25543.357421875
 10
-16926.810546875
 20
-25538.857421875
 10
-16923.015625
 20
-25534.197265625
 10
-16919.2734375
 20
-25529.3828125
 10
-16915.58203125
 20
-25524.419921875
 10
-16911.94140625
 20
-25519.3125
 10
-16908.54296875
 20
-25514.349609375
 10
-16905.189453125
 20
-25509.26953125
 10
-16901.876953125
 20
-25504.0703125
 10
-16898.609375
 20
-25498.76171875
 10
-16896.451171875
 20
-25495.16015625
 10
-16894.314453125
 20
-25491.513671875
 10
-16890.08984375
 20
-25484.0859375
 10
-16885.9375
 20
-25476.484375
 10
-16882.662109375
 20
-25470.287109375
 10
-16879.4296875
 20
-25463.990234375
 10
-16876.23828125
 20
-25457.59765625
 10
-16873.87109375
 20
-25452.744140625
 10
-16871.52734375
 20
-25447.83984375
 10
-16866.900390625
 20
-25437.888671875
 10
-16864.513671875
 20
-25432.6171875
 10
-16862.150390625
 20
-25427.296875
 10
-16859.65625
 20
-25421.580078125
 10
-16857.1875
 20
-25415.8125
 10
-16852.4609375
 20
-25404.494140625
 10
-16847.814453125
 20
-25392.99609375
 10
-16842.94921875
 20
-25380.576171875
 10
-16838.1640625
 20
-25367.984375
 10
-16833.45703125
 20
-25355.232421875
 10
-16828.822265625
 20
-25342.333984375
 10
-16824.255859375
 20
-25329.294921875
 10
-16821.43359375
 20
-25321.080078125
 10
-16818.634765625
 20
-25312.818359375
 10
-16813.107421875
 20
-25296.154296875
 10
-16807.666015625
 20
-25279.3203125
 10
-16802.302734375
 20
-25262.328125
 10
-16798.8046875
 20
-25251.046875
 10
-16795.337890625
 20
-25239.705078125
 10
-16791.822265625
 20
-25228.048828125
 10
-16788.333984375
 20
-25216.3359375
 10
-16782.580078125
 20
-25196.716796875
 10
-16776.89453125
 20
-25176.96484375
 10
-16771.267578125
 20
-25157.095703125
 10
-16767.083984375
 20
-25142.119140625
 10
-16762.927734375
 20
-25127.08203125
 10
-16754.68359375
 20
-25096.8359375
 10
-16750.177734375
 20
-25080.07421875
 10
-16745.693359375
 20
-25063.2578125
 10
-16736.7890625
 20
-25029.4765625
 10
-16728.126953125
 20
-24996.189453125
 10
-16719.515625
 20
-24962.755859375
 10
-16710.599609375
 20
-24927.84375
 10
-16701.7109375
 20
-24892.810546875
 10
-16694.20703125
 20
-24863.099609375
 10
-16679.20703125
 20
-24803.51953125
 10
-16659.01171875
 20
-24723.302734375
 10
-16648.841796875
 20
-24683.083984375
 10
-16641.169921875
 20
-24652.89453125
 10
-16633.453125
 20
-24622.693359375
 10
-16622.939453125
 20
-24581.861328125
  0
LWPOLYLINE
  5
5D
100
AcDbEntity
  8
0
  6
ByLayer
 62
    7
370
   -1
100
AcDbPolyline
 90
   13
 70
    0
 43
0
 10
-16555.1484375
 20
-24334.05859375
 10
-16558.271484375
 20
-24344.333984375
 10
-16561.35546875
 20
-24354.6171875
 10
-16567.416015625
 20
-24375.20703125
 10
-16573.341796875
 20
-24395.822265625
 10
-16579.146484375
 20
-24416.458984375
 10
-16582.951171875
 20
-24430.203125
 10
-16586.7109375
 20
-24443.951171875
 10
-16594.119140625
 20
-24471.466796875
 10
-16601.404296875
 20
-24498.9921875
 10
-16608.626953125
 20
-24526.625
 10
-16613.408203125
 20
-24545.04296875
 10
-16622.939453125
 20
-24581.861328125
  0
LWPOLYLINE
  5
5E
100
AcDbEntity
  8
0
  6
ByLayer
 62
    7
370
   -1
100
AcDbPolyline
 90
   14
 70
    0
 43
0
 10
-14980.2890625
 20
-24447.00390625
 10
-14989.5703125
 20
-24465.267578125
 10
-14994.234375
 20
-24474.3828125
 10
-15001.279296875
 20
-24488.02734375
 10
-15008.404296875
 20
-24501.623046875
 10
-15015.669921875
 20
-24515.21875
 10
-15019.5078125
 20
-24522.279296875
 10
-15023.384765625
 20
-24529.326171875
 10
-15026.98828125
 20
-24535.7890625
 10
-15030.630859375
 20
-24542.236328125
 10
-15036.41796875
 20
-24552.298828125
 10
-15042.30859375
 20
-24562.318359375
 10
-15048.30859375
 20
-24572.291015625
 10
-15054.41796875
 20
-24582.212890625
  0
LWPOLYLINE
  5
5F
100
AcDbEntity
  8
0
  6
ByLayer
 62
    7
370
   -1
100
AcDbPolyline
 90
   11
 70
    0
 43
0
 10
-14984.10546875
 20
-24454.529296875
 10
-14974.93359375
 20
-24436.484375
 10
-14965.703125
 20
-24418.4609375
 10
-14960.373046875
 20
-24408.154296875
 10
-14954.98828125
 20
-24397.83984375
 10
-14949.537109375
 20
-24387.501953125
 10
-14944.0078125
 20
-24377.13671875
 10
-14938.396484375
 20
-24366.7421875
 10
-14932.705078125
 20
-24356.326171875
 10
-14926.935546875
 20
-24345.90234375
 10
-14921.095703125
 20
-24335.482421875
  0
LWPOLYLINE
  5
60
100
AcDbEntity
  8
0
  6
ByLayer
 62
    7
370
   -1
100
AcDbPolyline
 90
   14
 70
    0
 43
0
 10
-14980.287109375
 20
-24447.001953125
 10
-14987.255859375
 20
-24460.724609375
 10
-14996.8671875
 20
-24479.501953125
 10
-15001.716796875
 20
-24488.8671875
 10
-15008.666015625
 20
-24502.11328125
 10
-15015.716796875
 20
-24515.3046875
 10
-15019.556640625
 20
-24522.369140625
 10
-15023.435546875
 20
-24529.4140625
 10
-15027.013671875
 20
-24535.83203125
 10
-15030.630859375
 20
-24542.234375
 10
-15036.4140625
 20
-24552.291015625
 10
-15042.30078125
 20
-24562.306640625
 10
-15048.30078125
 20
-24572.27734375
 10
-15054.41796875
 20
-24582.212890625
  0
LWPOLYLINE
  5
61
100
AcDbEntity
  8
0
  6
ByLayer
 62
    7
370
   -1
100
AcDbPolyline
 90
    5
 70
    0
 43
0
 10
-15054.181640625
 20
-24582.62890625
 10
-15054.150390625
 20
-24582.525390625
 10
-15054.18359375
 20
-24582.419921875
 10
-15054.275390625
 20
-24582.31640625
 10
-15054.41796875
 20
-24582.212890625
  0
LWPOLYLINE
  5
62
100
AcDbEntity
  8
0
  6
ByLayer
 62
    7
370
   -1
100
AcDbPolyline
 90
   12
 70
    0
 43
0
 10
-15054.173828125
 20
-24582.6171875
 10
-15047.462890625
 20
-24571.662109375
 10
-15040.912109375
 20
-24560.681640625
 10
-15034.509765625
 20
-24549.6640625
 10
-15028.240234375
 20
-24538.603515625
 10
-15022.08984375
 20
-24527.494140625
 10
-15016.044921875
 20
-24516.3359375
 10
-15010.091796875
 20
-24505.1328125
 10
-15003.072265625
 20
-24491.685546875
 10
-14995.349609375
 20
-24476.662109375
 10
-14987.794921875
 20
-24461.814453125
 10
-14980.287109375
 20
-24447.001953125
  0
LWPOLYLINE
  5
63
100
AcDbEntity
  8
0
  6
ByLayer
 62
    7
370
   -1
100
AcDbPolyline
 90
   10
 70
    0
 43
0
 10
-17939.416015625
 20
9663.05078125
 10
-17940.3359375
 20
9663.26171875
 10
-17940.84375
 20
9663.4140625
 10
-17941.685546875
 20
9663.732421875
 10
-17942.505859375
 20
9664.14453125
 10
-17942.912109375
 20
9664.40625
 10
-17943.2578125
 20
9664.6875
 10
-17943.45703125
 20
9664.90625
 10
-17943.591796875
 20
9665.123046875
 10
-17943.658203125
 20
9665.416015625
  0
LWPOLYLINE
  5
64
100
AcDbEntity
  8
0
  6
ByLayer
 62
    7
370
   -1
100
AcDbPolyline
 90
    8
 70
    0
 43
0
 10
-17943.658203125
 20
9665.416015625
 10
-17943.6328125
 20
9665.5546875
 10
-17943.5703125
 20
9665.681640625
 10
-17943.3359375
 20
9665.900390625
 10
-17943
 20
9666.056640625
 10
-17942.578125
 20
9666.166015625
 10
-17942.029296875
 20
9666.234375
 10
-17941.435546875
 20
9666.25390625
  0
LWPOLYLINE
  5
65
100
AcDbEntity
  8
0
  6
ByLayer
 62
    7
370
   -1
100
AcDbPolyline
 90
   11
 70
    0
 43
0
 10
-17939.416015625
 20
9663.05078125
 10
-17940.322265625
 20
9663.2578125
 10
-17940.8359375
 20
9663.412109375
 10
-17941.66796875
 20
9663.724609375
 10
-17942.287109375
 20
9664.021484375
 10
-17942.845703125
 20
9664.359375
 10
-17943.2890625
 20
9664.71875
 10
-17943.453125
 20
9664.900390625
 10
-17943.5703125
 20
9665.080078125
 10
-17943.638671875
 20
9665.251953125
 10
-17943.658203125
 20
9665.416015625
  0
LWPOLYLINE
  5
66
100
AcDbEntity
  8
0
  6
ByLayer
 62
    7
370
   -1
100
AcDbPolyline
 90
    9
 70
    0
 43
0
 10
-17943.658203125
 20
9665.416015625
 10
-17943.626953125
 20
9665.568359375
 10
-17943.55078125
 20
9665.708984375
 10
-17943.404296875
 20
9665.853515625
 10
-17943.20703125
 20
9665.97265625
 10
-17942.921875
 20
9666.083984375
 10
-17942.59375
 20
9666.1640625
 10
-17942.033203125
 20
9666.234375
 10
-17941.435546875
 20
9666.25390625
  0
LWPOLYLINE
  5
67
100
AcDbEntity
  8
0
  6
ByLayer
 62
    7
370
   -1
100
AcDbPolyline
 90
   20
 70
    0
 43
0
 10
-17702.87109375
 20
9671.462890625
 10
-17711.412109375
 20
9672.103515625
 10
-17721.21875
 20
9672.78515625
 10
-17731.3203125
 20
9673.4140625
 10
-17738.716796875
 20
9673.822265625
 10
-17745.271484375
 20
9674.140625
 10
-17751.912109375
 20
9674.416015625
 10
-17758.611328125
 20
9674.638671875
 10
-17765.365234375
 20
9674.8046875
 10
-17772.658203125
 20
9674.90625
 10
-17779.703125
 20
9674.92578125
 10
-17787.921875
 20
9674.84375
 10
-17796.181640625
 20
9674.650390625
 10
-17804.462890625
 20
9674.345703125
 10
-17812.751953125
 20
9673.935546875
 10
-17819.1171875
 20
9673.55859375
 10
-17825.490234375
 20
9673.1328125
 10
-17835.6640625
 20
9672.369140625
 10
-17845.822265625
 20
9671.52734375
 10
-17855.9921875
 20
9670.62109375
  0
LWPOLYLINE
  5
68
100
AcDbEntity
  8
0
  6
ByLayer
 62
    7
370
   -1
100
AcDbPolyline
 90
   42
 70
    0
 43
0
 10
-17520.916015625
 20
9653.732421875
 10
-17528.634765625
 20
9654.6796875
 10
-17539.5078125
 20
9655.904296875
 10
-17554.033203125
 20
9657.498046875
 10
-17576.2109375
 20
9659.818359375
 10
-17610.173828125
 20
9663.232421875
 10
-17635.62890625
 20
9665.7109375
 10
-17657.783203125
 20
9667.771484375
 10
-17678.17578125
 20
9669.55859375
 10
-17693.98828125
 20
9670.8515625
 10
-17707.45703125
 20
9671.876953125
 10
-17721.10546875
 20
9672.818359375
 10
-17730.57421875
 20
9673.404296875
 10
-17740.52734375
 20
9673.94140625
 10
-17750.904296875
 20
9674.400390625
 10
-17761.568359375
 20
9674.7421875
 10
-17766.986328125
 20
9674.857421875
 10
-17772.46484375
 20
9674.927734375
 10
-17778.01171875
 20
9674.951171875
 10
-17783.62890625
 20
9674.92578125
 10
-17789.296875
 20
9674.84375
 10
-17794.998046875
 20
9674.7109375
 10
-17800.72265625
 20
9674.521484375
 10
-17806.458984375
 20
9674.283203125
 10
-17812.203125
 20
9673.994140625
 10
-17817.955078125
 20
9673.66015625
 10
-17823.720703125
 20
9673.283203125
 10
-17835.28515625
 20
9672.4296875
 10
-17846.841796875
 20
9671.46875
 10
-17858.42578125
 20
9670.427734375
 10
-17875.8671875
 20
9668.791015625
 10
-17881.662109375
 20
9668.26171875
 10
-17887.48046875
 20
9667.763671875
 10
-17893.32421875
 20
9667.31640625
 10
-17897.43359375
 20
9667.048828125
 10
-17901.541015625
 20
9666.83203125
 10
-17905.662109375
 20
9666.6640625
 10
-17909.775390625
 20
9666.546875
 10
-17914.251953125
 20
9666.46484375
 10
-17923.314453125
 20
9666.390625
 10
-17938.93359375
 20
9666.27734375
 10
-17941.5390625
 20
9666.25390625
  0
LWPOLYLINE
  5
69
100
AcDbEntity
  8
0
  6
ByLayer
 62
    7
370
   -1
100
AcDbPolyline
 90
  107
 70
    0
 43
0
 10
-16622.939453125
 20
8449.509765625
 10
-16629.443359375
 20
8474.71875
 10
-16635.880859375
 20
8499.822265625
 10
-16645.94921875
 20
8539.3359375
 10
-16660.76171875
 20
8597.8828125
 10
-16675.6796875
 20
8657.138671875
 10
-16690.43359375
 20
8715.779296875
 10
-16704.33984375
 20
8770.8359375
 10
-16714.560546875
 20
8811.037109375
 10
-16722.609375
 20
8842.44921875
 10
-16729.87109375
 20
8870.5703125
 10
-16737.14453125
 20
8898.484375
 10
-16745.083984375
 20
8928.611328125
 10
-16752.73828125
 20
8957.265625
 10
-16760.439453125
 20
8985.662109375
 10
-16768.185546875
 20
9013.7265625
 10
-16772.08203125
 20
9027.63671875
 10
-16776
 20
9041.478515625
 10
-16782.783203125
 20
9065.060546875
 10
-16786.392578125
 20
9077.40625
 10
-16790.033203125
 20
9089.708984375
 10
-16794.931640625
 20
9106.013671875
 10
-16799.875
 20
9122.162109375
 10
-16804.861328125
 20
9138.130859375
 10
-16810.173828125
 20
9154.775390625
 10
-16815.552734375
 20
9171.22265625
 10
-16821.013671875
 20
9187.498046875
 10
-16825.05859375
 20
9199.259765625
 10
-16830.107421875
 20
9213.59375
 10
-16835.244140625
 20
9227.76171875
 10
-16840.462890625
 20
9241.7265625
 10
-16843.103515625
 20
9248.623046875
 10
-16845.763671875
 20
9255.458984375
 10
-16849.345703125
 20
9264.474609375
 10
-16852.96875
 20
9273.373046875
 10
-16856.6328125
 20
9282.154296875
 10
-16859.107421875
 20
9287.955078125
 10
-16861.60546875
 20
9293.703125
 10
-16864.0078125
 20
9299.130859375
 10
-16866.431640625
 20
9304.509765625
 10
-16870.41796875
 20
9313.138671875
 10
-16874.46875
 20
9321.626953125
 10
-16878.583984375
 20
9329.962890625
 10
-16882.767578125
 20
9338.13671875
 10
-16885.03125
 20
9342.435546875
 10
-16887.3125
 20
9346.68359375
 10
-16889.5703125
 20
9350.798828125
 10
-16891.84765625
 20
9354.859375
 10
-16894.943359375
 20
9360.2421875
 10
-16898.07421875
 20
9365.5234375
 10
-16901.2421875
 20
9370.69921875
 10
-16905.232421875
 20
9376.982421875
 10
-16909.28515625
 20
9383.095703125
 10
-16913.3984375
 20
9389.029296875
 10
-16915.46484375
 20
9391.908203125
 10
-16917.548828125
 20
9394.740234375
 10
-16920.35546875
 20
9398.4453125
 10
-16923.19140625
 20
9402.06640625
 10
-16926.05859375
 20
9405.599609375
 10
-16929.54296875
 20
9409.72265625
 10
-16933.0703125
 20
9413.7109375
 10
-16936.642578125
 20
9417.5625
 10
-16940.2578125
 20
9421.271484375
 10
-16943.9140625
 20
9424.833984375
 10
-16947.703125
 20
9428.330078125
 10
-16951.53515625
 20
9431.66796875
 10
-16954.859375
 20
9434.40625
 10
-16958.216796875
 20
9437.029296875
 10
-16961.611328125
 20
9439.5390625
 10
-16965.044921875
 20
9441.9375
 10
-16968.515625
 20
9444.224609375
 10
-16971.4375
 20
9446.046875
 10
-16974.384765625
 20
9447.79296875
 10
-16977.359375
 20
9449.46484375
 10
-16979.591796875
 20
9450.6640625
 10
-16981.837890625
 20
9451.822265625
 10
-16984.12890625
 20
9452.95703125
 10
-16986.43359375
 20
9454.052734375
 10
-16989.21484375
 20
9455.318359375
 10
-16992.01171875
 20
9456.529296875
 10
-16996.375
 20
9458.302734375
 10
-17000.779296875
 20
9459.96875
 10
-17005.228515625
 20
9461.53515625
 10
-17008.49609375
 20
9462.619140625
 10
-17011.79296875
 20
9463.6640625
 10
-17015.322265625
 20
9464.73046875
 10
-17018.8828125
 20
9465.759765625
 10
-17025.892578125
 20
9467.671875
 10
-17033.638671875
 20
9469.64453125
 10
-17041.51171875
 20
9471.537109375
 10
-17043.888671875
 20
9472.091796875
 10
-17054.1875
 20
9474.4296875
 10
-17070.546875
 20
9478.052734375
 10
-17132.916015625
 20
9491.81640625
 10
-17212.048828125
 20
9509.181640625
 10
-17291.24609375
 20
9526.453125
 10
-17370.455078125
 20
9543.61328125
 10
-17449.603515625
 20
9560.640625
 10
-17513.12890625
 20
9574.2109375
 10
-17572.251953125
 20
9586.763671875
 10
-17631.509765625
 20
9599.26953125
 10
-17690.873046875
 20
9611.71875
 10
-17735.416015625
 20
9621.009765625
 10
-17779.93359375
 20
9630.251953125
 10
-17824.39453125
 20
9639.443359375
 10
-17868.77734375
 20
9648.580078125
 10
-17939.416015625
 20
9663.05078125
  0
LWPOLYLINE
  5
6A
100
AcDbEntity
  8
0
  6
ByLayer
 62
    7
370
   -1
100
AcDbPolyline
 90
   17
 70
    0
 43
0
 10
-17702.87109375
 20
9671.462890625
 10
-17714.220703125
 20
9672.3046875
 10
-17724.95703125
 20
9673.025390625
 10
-17735.185546875
 20
9673.6328125
 10
-17745.28125
 20
9674.140625
 10
-17755.0234375
 20
9674.52734375
 10
-17764.47265625
 20
9674.78515625
 10
-17773.6796875
 20
9674.9140625
 10
-17783.005859375
 20
9674.90625
 10
-17792.138671875
 20
9674.759765625
 10
-17801.10546875
 20
9674.482421875
 10
-17809.93359375
 20
9674.0859375
 10
-17815.26171875
 20
9673.79296875
 10
-17820.54296875
 20
9673.466796875
 10
-17830.998046875
 20
9672.73046875
 10
-17843.57421875
 20
9671.71875
 10
-17855.98828125
 20
9670.62109375
  0
LWPOLYLINE
  5
6B
100
AcDbEntity
  8
0
  6
ByLayer
 62
    7
370
   -1
100
AcDbPolyline
 90
    5
 70
    0
 43
0
 10
-15054.41796875
 20
8449.861328125
 10
-15054.267578125
 20
8449.970703125
 10
-15054.17578125
 20
8450.08203125
 10
-15054.150390625
 20
8450.193359375
 10
-15054.181640625
 20
8450.27734375
  0
LWPOLYLINE
  5
6C
100
AcDbEntity
  8
0
  6
ByLayer
 62
    7
370
   -1
100
AcDbPolyline
 90
  135
 70
    0
 43
0
 10
-17520.841796875
 20
9653.724609375
 10
-17353.14453125
 20
9632.3828125
 10
-17185.076171875
 20
9611.130859375
 10
-17017.294921875
 20
9590.060546875
 10
-16849.8515625
 20
9569.16796875
 10
-16682.19921875
 20
9548.380859375
 10
-16514.171875
 20
9527.662109375
 10
-16345.775390625
 20
9507.0078125
 10
-16270.654296875
 20
9497.830078125
 10
-16233.62890625
 20
9493.310546875
 10
-16208.890625
 20
9490.26171875
 10
-16196.525390625
 20
9488.6953125
 10
-16185.25390625
 20
9487.2265625
 10
-16173.98828125
 20
9485.701171875
 10
-16164.8671875
 20
9484.41796875
 10
-16155.75390625
 20
9483.080078125
 10
-16148.36328125
 20
9481.951171875
 10
-16140.978515625
 20
9480.77734375
 10
-16134.705078125
 20
9479.7421875
 10
-16128.4375
 20
9478.66796875
 10
-16118.2265625
 20
9476.826171875
 10
-16108.037109375
 20
9474.86328125
 10
-16097.875
 20
9472.767578125
 10
-16092.806640625
 20
9471.666015625
 10
-16087.744140625
 20
9470.525390625
 10
-16078.232421875
 20
9468.271484375
 10
-16068.751953125
 20
9465.875
 10
-16059.310546875
 20
9463.333984375
 10
-16049.91015625
 20
9460.64453125
 10
-16045.2265625
 20
9459.244140625
 10
-16040.5546875
 20
9457.8046875
 10
-16034.345703125
 20
9455.826171875
 10
-16028.158203125
 20
9453.779296875
 10
-16021.994140625
 20
9451.6640625
 10
-16017.451171875
 20
9450.052734375
 10
-16012.921875
 20
9448.40234375
 10
-16008.375
 20
9446.703125
 10
-16003.841796875
 20
9444.966796875
 10
-15994.8515625
 20
9441.39453125
 10
-15985.91796875
 20
9437.6796875
 10
-15977.046875
 20
9433.822265625
 10
-15968.0859375
 20
9429.7578125
 10
-15959.189453125
 20
9425.55859375
 10
-15950.35546875
 20
9421.2265625
 10
-15941.5859375
 20
9416.767578125
 10
-15932.87890625
 20
9412.185546875
 10
-15924.05859375
 20
9407.388671875
 10
-15915.302734375
 20
9402.47265625
 10
-15906.611328125
 20
9397.447265625
 10
-15897.982421875
 20
9392.3125
 10
-15889.416015625
 20
9387.076171875
 10
-15882.109375
 20
9382.501953125
 10
-15874.84765625
 20
9377.859375
 10
-15867.630859375
 20
9373.15234375
 10
-15862.32421875
 20
9369.630859375
 10
-15857.0390625
 20
9366.076171875
 10
-15851.62109375
 20
9362.380859375
 10
-15846.224609375
 20
9358.650390625
 10
-15837.07421875
 20
9352.212890625
 10
-15827.986328125
 20
9345.68359375
 10
-15818.962890625
 20
9339.068359375
 10
-15810
 20
9332.369140625
 10
-15801.935546875
 20
9326.234375
 10
-15793.916015625
 20
9320.0390625
 10
-15785.9453125
 20
9313.78125
 10
-15779.99609375
 20
9309.052734375
 10
-15774.0703125
 20
9304.291015625
 10
-15768.0390625
 20
9299.392578125
 10
-15762.029296875
 20
9294.462890625
 10
-15750.0859375
 20
9284.517578125
 10
-15738.234375
 20
9274.4609375
 10
-15726.177734375
 20
9264.04296875
 10
-15714.2109375
 20
9253.521484375
 10
-15702.330078125
 20
9242.90234375
 10
-15690.318359375
 20
9231.994140625
 10
-15678.388671875
 20
9220.994140625
 10
-15666.5390625
 20
9209.91015625
 10
-15654.6875
 20
9198.669921875
 10
-15642.912109375
 20
9187.3515625
 10
-15631.20703125
 20
9175.958984375
 10
-15619.404296875
 20
9164.328125
 10
-15607.669921875
 20
9152.62890625
 10
-15596.00390625
 20
9140.861328125
 10
-15584.1796875
 20
9128.8046875
 10
-15572.421875
 20
9116.68359375
 10
-15560.7265625
 20
9104.501953125
 10
-15548.99609375
 20
9092.158203125
 10
-15537.326171875
 20
9079.755859375
 10
-15525.71484375
 20
9067.298828125
 10
-15514.171875
 20
9054.796875
 10
-15502.6875
 20
9042.244140625
 10
-15491.255859375
 20
9029.638671875
 10
-15479.76171875
 20
9016.849609375
 10
-15468.3203125
 20
9004.009765625
 10
-15456.935546875
 20
8991.12109375
 10
-15445.451171875
 20
8978.009765625
 10
-15434.021484375
 20
8964.849609375
 10
-15422.646484375
 20
8951.640625
 10
-15411.296875
 20
8938.3515625
 10
-15400.001953125
 20
8925.015625
 10
-15388.76171875
 20
8911.6328125
 10
-15380.3828125
 20
8901.583984375
 10
-15372.03515625
 20
8891.509765625
 10
-15363.734375
 20
8881.431640625
 10
-15355.46484375
 20
8871.328125
 10
-15344.40234375
 20
8857.708984375
 10
-15333.39453125
 20
8844.044921875
 10
-15322.443359375
 20
8830.333984375
 10
-15311.482421875
 20
8816.494140625
 10
-15300.580078125
 20
8802.607421875
 10
-15289.736328125
 20
8788.67578125
 10
-15274.072265625
 20
8768.333984375
 10
-15258.53515625
 20
8747.89453125
 10
-15250.77734375
 20
8737.58984375
 10
-15243.05078125
 20
8727.26171875
 10
-15235.421875
 20
8716.994140625
 10
-15227.82421875
 20
8706.703125
 10
-15217.666015625
 20
8692.837890625
 10
-15207.56640625
 20
8678.927734375
 10
-15197.529296875
 20
8664.9765625
 10
-15187.5
 20
8650.91015625
 10
-15177.53125
 20
8636.798828125
 10
-15167.625
 20
8622.64453125
 10
-15157.8125
 20
8608.4921875
 10
-15148.0625
 20
8594.296875
 10
-15138.373046875
 20
8580.060546875
 10
-15128.7890625
 20
8565.841796875
 10
-15119.267578125
 20
8551.580078125
 10
-15109.806640625
 20
8537.27734375
 10
-15100.396484375
 20
8522.91015625
 10
-15091.048828125
 20
8508.501953125
 10
-15081.763671875
 20
8494.052734375
 10
-15072.505859375
 20
8479.501953125
 10
-15063.310546875
 20
8464.91015625
 10
-15054.181640625
 20
8450.27734375
  0
LWPOLYLINE
  5
6D
100
AcDbEntity
  8
0
  6
ByLayer
 62
    7
370
   -1
100
AcDbPolyline
 90
   13
 70
    0
 43
0
 10
-16555.1484375
 20
8201.70703125
 10
-16558.271484375
 20
8211.982421875
 10
-16561.35546875
 20
8222.265625
 10
-16567.416015625
 20
8242.85546875
 10
-16573.341796875
 20
8263.470703125
 10
-16579.146484375
 20
8284.1083984375
 10
-16582.951171875
 20
8297.8515625
 10
-16586.7109375
 20
8311.6005859375
 10
-16594.119140625
 20
8339.115234375
 10
-16601.404296875
 20
8366.640625
 10
-16608.626953125
 20
8394.2734375
 10
-16613.408203125
 20
8412.69140625
 10
-16622.939453125
 20
8449.509765625
  0
LWPOLYLINE
  5
6E
100
AcDbEntity
  8
0
  6
ByLayer
 62
    7
370
   -1
100
AcDbPolyline
 90
   14
 70
    0
 43
0
 10
-14980.2890625
 20
8314.65234375
 10
-14989.5703125
 20
8332.916015625
 10
-14994.234375
 20
8342.03125
 10
-15001.279296875
 20
8355.67578125
 10
-15008.404296875
 20
8369.271484375
 10
-15015.669921875
 20
8382.8671875
 10
-15019.5078125
 20
8389.927734375
 10
-15023.384765625
 20
8396.974609375
 10
-15026.98828125
 20
8403.4375
 10
-15030.630859375
 20
8409.884765625
 10
-15036.41796875
 20
8419.947265625
 10
-15042.30859375
 20
8429.966796875
 10
-15048.30859375
 20
8439.939453125
 10
-15054.41796875
 20
8449.861328125
  0
LWPOLYLINE
  5
6F
100
AcDbEntity
  8
0
  6
ByLayer
 62
    7
370
   -1
100
AcDbPolyline
 90
   11
 70
    0
 43
0
 10
-14984.10546875
 20
8322.177734375
 10
-14974.93359375
 20
8304.1337890625
 10
-14965.703125
 20
8286.109375
 10
-14960.373046875
 20
8275.8037109375
 10
-14954.98828125
 20
8265.4892578125
 10
-14949.537109375
 20
8255.1513671875
 10
-14944.0078125
 20
8244.7861328125
 10
-14938.396484375
 20
8234.390625
 10
-14932.705078125
 20
8223.974609375
 10
-14926.935546875
 20
8213.55078125
 10
-14921.095703125
 20
8203.1318359375
  0
LWPOLYLINE
  5
70
100
AcDbEntity
  8
0
  6
ByLayer
 62
    7
370
   -1
100
AcDbPolyline
 90
    5
 70
    0
 43
0
 10
-15054.18359375
 20
8450.279296875
 10
-15054.150390625
 20
8450.173828125
 10
-15054.18359375
 20
8450.0703125
 10
-15054.2734375
 20
8449.96484375
 10
-15054.41796875
 20
8449.861328125
  0
LWPOLYLINE
  5
71
100
AcDbEntity
  8
0
  6
ByLayer
 62
    7
370
   -1
100
AcDbPolyline
 90
   14
 70
    0
 43
0
 10
-14980.287109375
 20
8314.6513671875
 10
-14987.255859375
 20
8328.373046875
 10
-14996.8671875
 20
8347.150390625
 10
-15001.716796875
 20
8356.515625
 10
-15008.666015625
 20
8369.76171875
 10
-15015.716796875
 20
8382.953125
 10
-15019.556640625
 20
8390.017578125
 10
-15023.435546875
 20
8397.0625
 10
-15027.013671875
 20
8403.48046875
 10
-15030.630859375
 20
8409.8828125
 10
-15036.4140625
 20
8419.939453125
 10
-15042.30078125
 20
8429.955078125
 10
-15048.30078125
 20
8439.92578125
 10
-15054.41796875
 20
8449.861328125
  0
LWPOLYLINE
  5
72
100
AcDbEntity
  8
0
  6
ByLayer
 62
    7
370
   -1
100
AcDbPolyline
 90
   11
 70
    0
 43
0
 10
-7648.130859374998
 20
-10295.00756835938
 10
-7622.759765624998
 20
-10287.30859375
 10
-7597.341796874998
 20
-10279.71215820312
 10
-7571.884765624998
 20
-10272.21728515625
 10
-7546.384765624998
 20
-10264.822265625
 10
-7520.853515624998
 20
-10257.52661132812
 10
-7504.876953124998
 20
-10253.01635742188
 10
-7488.892578124998
 20
-10248.5439453125
 10
-7456.888671874998
 20
-10239.71166992188
 10
-7424.845703124998
 20
-10231.02758789062
 10
-7392.767578124998
 20
-10222.4892578125
  0
ARC
  5
73
100
AcDbEntity
  8
0
  6
ByLayer
 62
    7
370
   -3
100
AcDbCircle
 10
-7648.583984374998
 20
-10295.05639648438
 40
0.458268697665497
100
AcDbArc
 50
332.7860444835223
 51
6.108447406128506
  0
LWPOLYLINE
  5
74
100
AcDbEntity
  8
0
  6
ByLayer
 62
    7
370
   -1
100
AcDbPolyline
 90
    8
 70
    0
 43
0
 10
-7447.767578124998
 20
-10237.2236328125
 10
-7476.177734374998
 20
-10245.029296875
 10
-7504.708984374998
 20
-10253.01977539062
 10
-7533.212890624998
 20
-10261.15356445312
 10
-7561.830078124998
 20
-10269.470703125
 10
-7590.521484374998
 20
-10277.95874023438
 10
-7619.365234374998
 20
-10286.64135742188
 10
-7648.298828124998
 20
-10295.5
  0
LWPOLYLINE
  5
75
100
AcDbEntity
  8
0
  6
ByLayer
 62
    7
370
   -1
100
AcDbPolyline
 90
   13
 70
    0
 43
0
 10
-7392.771484374998
 20
-10222.48950195312
 10
-7424.798828124998
 20
-10231.01684570312
 10
-7456.802734374998
 20
-10239.69213867188
 10
-7488.779296874998
 20
-10248.51782226562
 10
-7504.755859374998
 20
-10252.98803710938
 10
-7520.724609374998
 20
-10257.49731445312
 10
-7536.685546874998
 20
-10262.04565429688
 10
-7552.638671874998
 20
-10266.63330078125
 10
-7568.580078124998
 20
-10271.26123046875
 10
-7584.513671874998
 20
-10275.92919921875
 10
-7605.740234374998
 20
-10282.21655273438
 10
-7626.947265624998
 20
-10288.57739257812
 10
-7648.130859374998
 20
-10295.01220703125
  0
LWPOLYLINE
  5
76
100
AcDbEntity
  8
0
  6
ByLayer
 62
    7
370
   -1
100
AcDbPolyline
 90
   39
 70
    0
 43
0
 10
-6454.966796874998
 20
-10041.7275390625
 10
-6475.146484374998
 20
-10044.34423828125
 10
-6495.318359374998
 20
-10047.02392578125
 10
-6517.005859374998
 20
-10049.97290039062
 10
-6538.681640624998
 20
-10052.98803710938
 10
-6561.677734374998
 20
-10056.25732421875
 10
-6584.662109374998
 20
-10059.595703125
 10
-6608.841796874998
 20
-10063.181640625
 10
-6633.005859374998
 20
-10066.84130859375
 10
-6658.220703124998
 20
-10070.73828125
 10
-6683.419921874998
 20
-10074.71362304688
 10
-6709.396484374998
 20
-10078.8955078125
 10
-6735.357421874998
 20
-10083.16040039062
 10
-6762.056640624998
 20
-10087.63549804688
 10
-6788.740234374998
 20
-10092.19897460938
 10
-6816.228515624998
 20
-10096.99584960938
 10
-6843.701171874998
 20
-10101.88818359375
 10
-6871.876953124998
 20
-10107.00927734375
 10
-6900.037109374998
 20
-10112.23266601562
 10
-6928.849609374998
 20
-10117.68872070312
 10
-6957.642578124998
 20
-10123.25439453125
 10
-6987.029296874998
 20
-10129.05395507812
 10
-7016.392578124998
 20
-10134.97094726562
 10
-7046.287109374998
 20
-10141.12182617188
 10
-7076.154296874998
 20
-10147.39721679688
 10
-7106.474609374998
 20
-10153.90283203125
 10
-7136.763671874998
 20
-10160.54028320312
 10
-7168.931640624998
 20
-10167.74243164062
 10
-7201.064453124998
 20
-10175.09716796875
 10
-7222.810546874998
 20
-10180.16723632812
 10
-7244.541015624998
 20
-10185.30908203125
 10
-7266.255859374998
 20
-10190.5234375
 10
-7287.861328124998
 20
-10195.78930664062
 10
-7309.455078124998
 20
-10201.12890625
 10
-7331.025390624998
 20
-10206.54248046875
 10
-7346.521484374998
 20
-10210.48095703125
 10
-7362.009765624998
 20
-10214.45874023438
 10
-7377.396484374998
 20
-10218.45385742188
 10
-7392.771484374998
 20
-10222.48950195312
  0
ARC
  5
77
100
AcDbEntity
  8
0
  6
ByLayer
 62
    7
370
   -3
100
AcDbCircle
 10
-9778.119140625
 20
-14400.20166015625
 40
0.4029668360481132
100
AcDbArc
 50
81.62528905391487
 51
91.11021011043196
  0
LWPOLYLINE
  5
78
100
AcDbEntity
  8
0
  6
ByLayer
 62
    7
370
   -1
100
AcDbPolyline
 90
    8
 70
    0
 43
0
 10
-7447.767578124998
 20
-5895.126953125
 10
-7476.177734374998
 20
-5887.3212890625
 10
-7504.708984374998
 20
-5879.330810546875
 10
-7533.212890624998
 20
-5871.197021484375
 10
-7561.830078124998
 20
-5862.8798828125
 10
-7590.521484374998
 20
-5854.391845703125
 10
-7619.365234374998
 20
-5845.709228515625
 10
-7648.298828124998
 20
-5836.8505859375
  0
LWPOLYLINE
  5
79
100
AcDbEntity
  8
0
  6
ByLayer
 62
    7
370
   -1
100
AcDbPolyline
 90
   13
 70
    0
 43
0
 10
-7392.771484374998
 20
-5909.861083984375
 10
-7424.798828124998
 20
-5901.333740234375
 10
-7456.802734374998
 20
-5892.658447265625
 10
-7488.779296874998
 20
-5883.832763671875
 10
-7504.755859374998
 20
-5879.362548828125
 10
-7520.724609374998
 20
-5874.853271484375
 10
-7536.685546874998
 20
-5870.304931640625
 10
-7552.638671874998
 20
-5865.71728515625
 10
-7568.580078124998
 20
-5861.08935546875
 10
-7584.513671874998
 20
-5856.42138671875
 10
-7605.740234374998
 20
-5850.134033203125
 10
-7626.947265624998
 20
-5843.773193359375
 10
-7648.134765624998
 20
-5837.33837890625
  0
LWPOLYLINE
  5
7A
100
AcDbEntity
  8
0
  6
ByLayer
 62
    7
370
   -1
100
AcDbPolyline
 90
   39
 70
    0
 43
0
 10
-6454.958984374998
 20
-6090.624145507812
 10
-6475.138671874998
 20
-6088.007446289062
 10
-6495.310546874998
 20
-6085.327880859375
 10
-6516.998046874998
 20
-6082.37890625
 10
-6538.673828124998
 20
-6079.36376953125
 10
-6561.669921874998
 20
-6076.094604492188
 10
-6584.654296874998
 20
-6072.756225585938
 10
-6608.833984374998
 20
-6069.170166015625
 10
-6633.001953124998
 20
-6065.510620117188
 10
-6658.212890624998
 20
-6061.613647460938
 10
-6683.412109374998
 20
-6057.638305664062
 10
-6709.388671874998
 20
-6053.456420898438
 10
-6735.353515624998
 20
-6049.191528320312
 10
-6762.052734374998
 20
-6044.716430664062
 10
-6788.736328124998
 20
-6040.152954101562
 10
-6816.224609374998
 20
-6035.35595703125
 10
-6843.693359374998
 20
-6030.463745117188
 10
-6871.873046874998
 20
-6025.342529296875
 10
-6900.029296874998
 20
-6020.119018554688
 10
-6928.845703124998
 20
-6014.662841796875
 10
-6957.634765624998
 20
-6009.09716796875
 10
-6987.025390624998
 20
-6003.297607421875
 10
-7016.388671874998
 20
-5997.380615234375
 10
-7046.283203124998
 20
-5991.229736328125
 10
-7076.150390624998
 20
-5984.9541015625
 10
-7106.470703124998
 20
-5978.448486328125
 10
-7136.763671874998
 20
-5971.81103515625
 10
-7168.931640624998
 20
-5964.60888671875
 10
-7201.060546874998
 20
-5957.25390625
 10
-7222.810546874998
 20
-5952.183837890625
 10
-7244.541015624998
 20
-5947.0419921875
 10
-7266.251953124998
 20
-5941.82763671875
 10
-7287.861328124998
 20
-5936.5615234375
 10
-7309.451171874998
 20
-5931.221923828125
 10
-7331.025390624998
 20
-5925.808349609375
 10
-7346.521484374998
 20
-5921.869873046875
 10
-7362.009765624998
 20
-5917.891845703125
 10
-7377.396484374998
 20
-5913.89697265625
 10
-7392.771484374998
 20
-5909.861083984375
  0
LINE
  5
7B
100
AcDbEntity
  8
0
  6
ByLayer
 62
    7
370
   -3
100
AcDbLine
 10
1721.970703125
 20
-9865.094116210939
 11
1721.970703125
 21
-9865.127563476564
  0
LINE
  5
7C
100
AcDbEntity
  8
0
  6
ByLayer
 62
    7
370
   -3
100
AcDbLine
 10
-1044.029296875
 20
-10041.72998046875
 11
-1044.029296875
 21
-10041.27270507813
  0
LWPOLYLINE
  5
7D
100
AcDbEntity
  8
0
  6
ByLayer
 62
    7
370
   -1
100
AcDbPolyline
 90
   18
 70
    0
 43
0
 10
-1044.029296875
 20
-10041.27270507813
 10
-979.236328125
 20
-10040.56103515625
 10
-914.373046875
 20
-10039.716796875
 10
-849.451171875
 20
-10038.72973632813
 10
-784.490234375
 20
-10037.59155273438
 10
-719.501953125
 20
-10036.29711914063
 10
-687.005859375
 20
-10035.59008789063
 10
-654.501953125
 20
-10034.84252929688
 10
-593.603515625
 20
-10033.33325195313
 10
-532.697265625
 20
-10031.68090820313
 10
-471.787109375
 20
-10029.88598632813
 10
-410.880859375
 20
-10027.94946289063
 10
-349.986328125
 20
-10025.87231445313
 10
-289.107421875
 20
-10023.65673828125
 10
-228.248046875
 20
-10021.30444335938
 10
-167.412109375
 20
-10018.8173828125
 10
-106.599609375
 20
-10016.19750976563
 10
-45.814453125
 20
-10013.4462890625
  0
LINE
  5
7E
100
AcDbEntity
  8
0
  6
ByLayer
 62
    7
370
   -3
100
AcDbLine
 10
-30263.990234375
 20
-8767.17724609375
 11
-30263.837890625
 21
-8767.206298828125
  0
LINE
  5
7F
100
AcDbEntity
  8
0
  6
ByLayer
 62
    7
370
   -3
100
AcDbLine
 10
1721.970703125
 20
-9866.077880859377
 11
1721.970703125
 21
-9865.127563476564
  0
LINE
  5
80
100
AcDbEntity
  8
0
  6
ByLayer
 62
    7
370
   -3
100
AcDbLine
 10
-30263.884765625
 20
-8767.199523925781
 11
-30264.041015625
 21
-8767.17041015625
  0
LINE
  5
81
100
AcDbEntity
  8
0
  6
ByLayer
 62
    7
370
   -3
100
AcDbLine
 10
-32267.181640625
 20
-8270.42626953125
 11
-32267.197265625
 21
-8268.970642089844
  0
LWPOLYLINE
  5
82
100
AcDbEntity
  8
0
  6
ByLayer
 62
    7
370
   -1
100
AcDbPolyline
 90
   84
 70
    0
 43
0
 10
-32267.181640625
 20
-8270.42626953125
 10
-32256.603515625
 20
-8276.679016113281
 10
-32245.970703125
 20
-8282.845489501953
 10
-32235.294921875
 20
-8288.926818847656
 10
-32224.568359375
 20
-8294.924285888672
 10
-32217.404296875
 20
-8298.871063232422
 10
-32210.220703125
 20
-8302.781555175781
 10
-32202.998046875
 20
-8306.6669921875
 10
-32195.755859375
 20
-8310.516662597656
 10
-32181.232421875
 20
-8318.099578857422
 10
-32166.642578125
 20
-8325.544128417969
 10
-32151.982421875
 20
-8332.853210449219
 10
-32137.255859375
 20
-8340.029693603516
 10
-32122.470703125
 20
-8347.076416015625
 10
-32111.537109375
 20
-8352.187591552734
 10
-32100.568359375
 20
-8357.231079101562
 10
-32089.576171875
 20
-8362.208038330078
 10
-32081.310546875
 20
-8365.897827148438
 10
-32073.025390625
 20
-8369.551391601562
 10
-32056.416015625
 20
-8376.751831054688
 10
-32039.744140625
 20
-8383.813293457031
 10
-32023.017578125
 20
-8390.739807128906
 10
-32006.236328125
 20
-8397.535400390625
 10
-31989.404296875
 20
-8404.204162597656
 10
-31972.525390625
 20
-8410.749938964844
 10
-31955.134765625
 20
-8417.3515625
 10
-31937.701171875
 20
-8423.831604003906
 10
-31920.224609375
 20
-8430.193908691406
 10
-31902.705078125
 20
-8436.442504882812
 10
-31885.150390625
 20
-8442.581237792969
 10
-31874.220703125
 20
-8446.341857910156
 10
-31863.279296875
 20
-8450.0625
 10
-31852.197265625
 20
-8453.787353515625
 10
-31841.099609375
 20
-8457.47314453125
 10
-31819.001953125
 20
-8464.68994140625
 10
-31799.626953125
 20
-8470.886840820312
 10
-31780.220703125
 20
-8476.978820800781
 10
-31760.783203125
 20
-8482.969970703125
 10
-31741.314453125
 20
-8488.864624023438
 10
-31728.744140625
 20
-8492.616882324219
 10
-31716.162109375
 20
-8496.331848144531
 10
-31702.720703125
 20
-8500.257568359375
 10
-31689.267578125
 20
-8504.143432617188
 10
-31663.181640625
 20
-8511.5615234375
 10
-31642.322265625
 20
-8517.388916015625
 10
-31621.435546875
 20
-8523.134765625
 10
-31600.533203125
 20
-8528.802978515625
 10
-31584.841796875
 20
-8533.005676269531
 10
-31569.138671875
 20
-8537.168701171875
 10
-31537.705078125
 20
-8545.382690429688
 10
-31506.232421875
 20
-8553.458557128906
 10
-31480.064453125
 20
-8560.072265625
 10
-31453.876953125
 20
-8566.605346679688
 10
-31427.669921875
 20
-8573.063171386719
 10
-31408.001953125
 20
-8577.8603515625
 10
-31388.326171875
 20
-8582.620361328125
 10
-31348.947265625
 20
-8592.038146972656
 10
-31313.052734375
 20
-8600.509826660156
 10
-31277.138671875
 20
-8608.890014648438
 10
-31241.205078125
 20
-8617.188110351562
 10
-31214.244140625
 20
-8623.363403320312
 10
-31187.275390625
 20
-8629.501708984375
 10
-31142.166015625
 20
-8639.690002441406
 10
-31097.041015625
 20
-8649.78955078125
 10
-31051.892578125
 20
-8659.804077148438
 10
-30991.439453125
 20
-8673.081970214844
 10
-30930.951171875
 20
-8686.224975585938
 10
-30870.294921875
 20
-8699.272705078125
 10
-30809.611328125
 20
-8712.193054199219
 10
-30748.802734375
 20
-8725.002685546875
 10
-30687.966796875
 20
-8737.67431640625
 10
-30657.505859375
 20
-8743.962219238281
 10
-30627.041015625
 20
-8750.212341308594
 10
-30596.564453125
 20
-8756.423156738281
 10
-30566.080078125
 20
-8762.593200683594
 10
-30525.392578125
 20
-8770.760192871094
 10
-30484.685546875
 20
-8778.847473144531
 10
-30443.962890625
 20
-8786.850646972656
 10
-30403.201171875
 20
-8794.769409179688
 10
-30362.419921875
 20
-8802.594421386719
 10
-30321.619140625
 20
-8810.320556640625
 10
-30280.791015625
 20
-8817.944519042969
 10
-30239.943359375
 20
-8825.458984375
 10
-30199.072265625
 20
-8832.8583984375
  0
LINE
  5
83
100
AcDbEntity
  8
0
  6
ByLayer
 62
    7
370
   -3
100
AcDbLine
 10
-32267.158203125
 20
-8258.717895507812
 11
-32267.158203125
 21
-8254.844696044922
  0
LINE
  5
84
100
AcDbEntity
  8
0
  6
ByLayer
 62
    7
370
   -3
100
AcDbLine
 10
-32267.158203125
 20
-8250.508972167969
 11
-32267.158203125
 21
-8066.17529296875
  0
LINE
  5
85
100
AcDbEntity
  8
0
  6
ByLayer
 62
    7
370
   -3
100
AcDbLine
 10
1721.970703125
 20
-6267.223022460938
 11
1721.970703125
 21
-6267.256469726562
  0
LINE
  5
86
100
AcDbEntity
  8
0
  6
ByLayer
 62
    7
370
   -3
100
AcDbLine
 10
-1044.029296875
 20
-6091.077880859375
 11
-1044.029296875
 21
-6090.62060546875
  0
LWPOLYLINE
  5
87
100
AcDbEntity
  8
0
  6
ByLayer
 62
    7
370
   -1
100
AcDbPolyline
 90
   17
 70
    0
 43
0
 10
-45.779296875
 20
-6118.905883789062
 10
-107.236328125
 20
-6116.125
 10
-168.712890625
 20
-6113.478515625
 10
-230.216796875
 20
-6110.967895507812
 10
-291.744140625
 20
-6108.595092773438
 10
-353.294921875
 20
-6106.361938476562
 10
-414.861328125
 20
-6104.2705078125
 10
-476.435546875
 20
-6102.322631835938
 10
-538.013671875
 20
-6100.519775390625
 10
-599.587890625
 20
-6098.86279296875
 10
-661.154296875
 20
-6097.351806640625
 10
-725.044921875
 20
-6095.93701171875
 10
-788.923828125
 20
-6094.676513671875
 10
-852.775390625
 20
-6093.56689453125
 10
-916.583984375
 20
-6092.602661132812
 10
-980.341796875
 20
-6091.7763671875
 10
-1044.029296875
 20
-6091.077880859375
  0
LINE
  5
88
100
AcDbEntity
  8
0
  6
ByLayer
 62
    7
370
   -3
100
AcDbLine
 10
-30263.861328125
 20
-7365.14892578125
 11
-30264.013671875
 21
-7365.177978515625
  0
LINE
  5
89
100
AcDbEntity
  8
0
  6
ByLayer
 62
    7
370
   -3
100
AcDbLine
 10
1721.970703125
 20
-6267.223022460938
 11
1721.970703125
 21
-6266.275512695312
  0
LINE
  5
8A
100
AcDbEntity
  8
0
  6
ByLayer
 62
    7
370
   -3
100
AcDbLine
 10
1721.970703125
 20
-6266.266479492188
 11
1721.970703125
 21
-6267.223022460938
  0
LINE
  5
8B
100
AcDbEntity
  8
0
  6
ByLayer
 62
    7
370
   -3
100
AcDbLine
 10
-30264.064453125
 20
-7365.184814453125
 11
-30263.912109375
 21
-7365.155700683594
  0
ARC
  5
8C
100
AcDbEntity
  8
0
  6
ByLayer
 62
    7
370
   -3
100
AcDbCircle
 10
-31476.873046875
 20
-7865.46598815918
 40
790.3270995066641
100
AcDbArc
 50
179.967736690839
 51
180.2672268255658
  0
ARC
  5
8D
100
AcDbEntity
  8
0
  6
ByLayer
 62
    7
370
   -3
100
AcDbCircle
 10
-32256.939453125
 20
-7862.281829833984
 40
10.24925147477044
100
AcDbArc
 50
178.0009837193338
 51
180.2165946332484
  0
LWPOLYLINE
  5
8E
100
AcDbEntity
  8
0
  6
ByLayer
 62
    7
370
   -1
100
AcDbPolyline
 90
   84
 70
    0
 43
0
 10
-32267.181640625
 20
-7861.92431640625
 10
-32256.603515625
 20
-7855.671569943428
 10
-32245.970703125
 20
-7849.505111694336
 10
-32235.294921875
 20
-7843.423767089844
 10
-32224.568359375
 20
-7837.426300048828
 10
-32217.404296875
 20
-7833.479522705078
 10
-32210.220703125
 20
-7829.569030761719
 10
-32202.998046875
 20
-7825.68359375
 10
-32195.755859375
 20
-7821.833923339844
 10
-32181.232421875
 20
-7814.251007080078
 10
-32166.642578125
 20
-7806.806457519531
 10
-32151.982421875
 20
-7799.497375488281
 10
-32137.255859375
 20
-7792.320892333984
 10
-32122.470703125
 20
-7785.274169921875
 10
-32111.537109375
 20
-7780.162994384766
 10
-32100.568359375
 20
-7775.119506835938
 10
-32089.576171875
 20
-7770.142547607422
 10
-32081.310546875
 20
-7766.452758789062
 10
-32073.025390625
 20
-7762.799194335938
 10
-32056.416015625
 20
-7755.598785400391
 10
-32039.744140625
 20
-7748.537322998047
 10
-32023.017578125
 20
-7741.610809326172
 10
-32006.236328125
 20
-7734.815185546875
 10
-31989.404296875
 20
-7728.146453857422
 10
-31972.525390625
 20
-7721.600646972656
 10
-31955.134765625
 20
-7714.999053955078
 10
-31937.701171875
 20
-7708.519012451172
 10
-31920.224609375
 20
-7702.156677246094
 10
-31902.705078125
 20
-7695.908081054688
 10
-31885.150390625
 20
-7689.769348144531
 10
-31874.220703125
 20
-7686.008728027344
 10
-31863.279296875
 20
-7682.2880859375
 10
-31852.197265625
 20
-7678.563262939453
 10
-31841.099609375
 20
-7674.87744140625
 10
-31819.001953125
 20
-7667.660675048828
 10
-31799.626953125
 20
-7661.463745117188
 10
-31780.220703125
 20
-7655.371795654297
 10
-31760.783203125
 20
-7649.380615234375
 10
-31741.314453125
 20
-7643.485992431641
 10
-31728.744140625
 20
-7639.733734130859
 10
-31716.162109375
 20
-7636.018768310547
 10
-31702.720703125
 20
-7632.093048095703
 10
-31689.267578125
 20
-7628.207153320312
 10
-31663.181640625
 20
-7620.789093017578
 10
-31642.322265625
 20
-7614.961669921875
 10
-31621.435546875
 20
-7609.215881347656
 10
-31600.533203125
 20
-7603.547637939453
 10
-31584.841796875
 20
-7599.344940185547
 10
-31569.138671875
 20
-7595.181884765625
 10
-31537.705078125
 20
-7586.967895507812
 10
-31506.232421875
 20
-7578.892028808594
 10
-31480.064453125
 20
-7572.278350830078
 10
-31453.876953125
 20
-7565.745239257812
 10
-31427.669921875
 20
-7559.287445068359
 10
-31408.001953125
 20
-7554.490264892578
 10
-31388.326171875
 20
-7549.730224609375
 10
-31348.947265625
 20
-7540.312438964844
 10
-31313.052734375
 20
-7531.840759277344
 10
-31277.138671875
 20
-7523.460571289062
 10
-31241.205078125
 20
-7515.162475585938
 10
-31214.244140625
 20
-7508.987182617188
 10
-31187.275390625
 20
-7502.848876953125
 10
-31142.166015625
 20
-7492.660583496094
 10
-31097.041015625
 20
-7482.56103515625
 10
-31051.892578125
 20
-7472.546508789062
 10
-30991.439453125
 20
-7459.268615722656
 10
-30930.951171875
 20
-7446.125610351562
 10
-30870.294921875
 20
-7433.077880859375
 10
-30809.611328125
 20
-7420.157531738281
 10
-30748.802734375
 20
-7407.347961425781
 10
-30687.966796875
 20
-7394.67626953125
 10
-30657.505859375
 20
-7388.388366699219
 10
-30627.041015625
 20
-7382.138244628906
 10
-30596.564453125
 20
-7375.927429199219
 10
-30566.080078125
 20
-7369.757385253906
 10
-30525.392578125
 20
-7361.590454101562
 10
-30484.685546875
 20
-7353.503112792969
 10
-30443.962890625
 20
-7345.499938964844
 10
-30403.201171875
 20
-7337.581176757812
 10
-30362.419921875
 20
-7329.756164550781
 10
-30321.619140625
 20
-7322.030029296875
 10
-30280.791015625
 20
-7314.406066894531
 10
-30239.943359375
 20
-7306.8916015625
 10
-30199.072265625
 20
-7299.4921875
  0
LINE
  5
8F
100
AcDbEntity
  8
0
  6
ByLayer
 62
    7
370
   -3
100
AcDbLine
 10
-32267.158203125
 20
-8066.17529296875
 11
-32267.158203125
 21
-7873.632690429688
  0
LWPOLYLINE
  5
90
100
AcDbEntity
  8
0
  6
ByLayer
 62
    7
370
   -1
100
AcDbPolyline
 90
   52
 70
    0
 43
0
 10
-26967.306640625
 20
-9337.515625
 10
-26929.291015625
 20
-9344.02490234375
 10
-26891.267578125
 20
-9350.476684570312
 10
-26817.904296875
 20
-9362.816162109375
 10
-26747.236328125
 20
-9374.649291992188
 10
-26677.087890625
 20
-9386.427856445312
 10
-26642.021484375
 20
-9392.352661132812
 10
-26590.083984375
 20
-9401.19775390625
 10
-26538.166015625
 20
-9410.146606445312
 10
-26487.146484375
 20
-9419.067749023438
 10
-26436.150390625
 20
-9428.128540039062
 10
-26386.013671875
 20
-9437.190551757812
 10
-26335.904296875
 20
-9446.404907226562
 10
-26286.154296875
 20
-9455.708129882812
 10
-26236.435546875
 20
-9465.150756835938
 10
-26185.974609375
 20
-9474.865844726562
 10
-26135.537109375
 20
-9484.686645507812
 10
-26100.986328125
 20
-9491.464477539062
 10
-26031.900390625
 20
-9505.1044921875
 10
-25925.462890625
 20
-9526.23583984375
 10
-25817.255859375
 20
-9547.725463867188
 10
-25762.802734375
 20
-9558.507690429688
 10
-25708.341796875
 20
-9569.2568359375
 10
-25617.822265625
 20
-9587.028930664062
 10
-25527.279296875
 20
-9604.674194335938
 10
-25479.345703125
 20
-9613.957397460938
 10
-25431.404296875
 20
-9623.200073242188
 10
-25383.634765625
 20
-9632.366943359375
 10
-25335.857421875
 20
-9641.491088867188
 10
-25274.201171875
 20
-9653.197875976562
 10
-25212.529296875
 20
-9664.828857421875
 10
-25150.845703125
 20
-9676.380981445312
 10
-25091.833984375
 20
-9687.352661132812
 10
-25032.806640625
 20
-9698.241088867188
 10
-24973.763671875
 20
-9709.037353515625
 10
-24918.431640625
 20
-9719.05859375
 10
-24863.08203125
 20
-9728.973754882812
 10
-24807.7109375
 20
-9738.764892578125
 10
-24757.27734375
 20
-9747.554809570312
 10
-24730.43359375
 20
-9752.176025390625
 10
-24703.583984375
 20
-9756.754516601562
 10
-24679.962890625
 20
-9760.74365234375
 10
-24656.333984375
 20
-9764.694946289062
 10
-24634.341796875
 20
-9768.335693359375
 10
-24612.34375
 20
-9771.939331054688
 10
-24590.33984375
 20
-9775.50341796875
 10
-24568.328125
 20
-9779.025634765625
 10
-24546.310546875
 20
-9782.503540039062
 10
-24524.28515625
 20
-9785.934692382812
 10
-24488.611328125
 20
-9791.395141601562
 10
-24464.8203125
 20
-9794.990234375
 10
-24417.234375
 20
-9802.142944335938
  0
LWPOLYLINE
  5
91
100
AcDbEntity
  8
0
  6
ByLayer
 62
    7
370
   -1
100
AcDbPolyline
 90
   52
 70
    0
 43
0
 10
-26967.306640625
 20
-6794.8349609375
 10
-26929.291015625
 20
-6788.32568359375
 10
-26891.267578125
 20
-6781.873901367188
 10
-26817.904296875
 20
-6769.534423828125
 10
-26747.236328125
 20
-6757.701293945312
 10
-26677.087890625
 20
-6745.922729492188
 10
-26642.021484375
 20
-6739.997924804688
 10
-26590.083984375
 20
-6731.15283203125
 10
-26538.166015625
 20
-6722.203979492188
 10
-26487.146484375
 20
-6713.282836914062
 10
-26436.150390625
 20
-6704.222045898438
 10
-26386.013671875
 20
-6695.160034179688
 10
-26335.904296875
 20
-6685.945678710938
 10
-26286.154296875
 20
-6676.642456054688
 10
-26236.435546875
 20
-6667.199829101562
 10
-26185.974609375
 20
-6657.484741210938
 10
-26135.537109375
 20
-6647.663940429688
 10
-26100.986328125
 20
-6640.886108398438
 10
-26031.900390625
 20
-6627.24609375
 10
-25925.462890625
 20
-6606.11474609375
 10
-25817.255859375
 20
-6584.625122070312
 10
-25762.802734375
 20
-6573.842895507812
 10
-25708.341796875
 20
-6563.09375
 10
-25617.822265625
 20
-6545.321655273438
 10
-25527.279296875
 20
-6527.676391601562
 10
-25479.345703125
 20
-6518.393188476562
 10
-25431.404296875
 20
-6509.150512695312
 10
-25383.634765625
 20
-6499.983642578125
 10
-25335.857421875
 20
-6490.859497070312
 10
-25274.201171875
 20
-6479.152709960938
 10
-25212.529296875
 20
-6467.521728515625
 10
-25150.845703125
 20
-6455.969604492188
 10
-25091.833984375
 20
-6444.997924804688
 10
-25032.806640625
 20
-6434.109497070312
 10
-24973.763671875
 20
-6423.313232421875
 10
-24918.431640625
 20
-6413.2919921875
 10
-24863.08203125
 20
-6403.376831054688
 10
-24807.7109375
 20
-6393.585693359375
 10
-24757.27734375
 20
-6384.795776367188
 10
-24730.43359375
 20
-6380.174560546875
 10
-24703.583984375
 20
-6375.596069335938
 10
-24679.962890625
 20
-6371.60693359375
 10
-24656.333984375
 20
-6367.655639648438
 10
-24634.341796875
 20
-6364.014892578125
 10
-24612.34375
 20
-6360.411254882812
 10
-24590.33984375
 20
-6356.84716796875
 10
-24568.328125
 20
-6353.324951171875
 10
-24546.310546875
 20
-6349.847045898438
 10
-24524.28515625
 20
-6346.415893554688
 10
-24488.611328125
 20
-6340.955444335938
 10
-24464.8203125
 20
-6337.3603515625
 10
-24417.234375
 20
-6330.207641601562
  0
LWPOLYLINE
  5
92
100
AcDbEntity
  8
0
  6
ByLayer
 62
    7
370
   -1
100
AcDbPolyline
 90
   95
 70
    0
 43
0
 10
-24417.234375
 20
-9802.143188476562
 10
-24368.947265625
 20
-9809.353393554688
 10
-24320.646484375
 20
-9816.458251953125
 10
-24272.328125
 20
-9823.457275390625
 10
-24223.99609375
 20
-9830.350219726562
 10
-24175.646484375
 20
-9837.13671875
 10
-24127.1875
 20
-9843.829467773438
 10
-24078.71484375
 20
-9850.414428710938
 10
-24030.2265625
 20
-9856.890625
 10
-23981.72265625
 20
-9863.257690429688
 10
-23933.20703125
 20
-9869.5146484375
 10
-23884.626953125
 20
-9875.667114257812
 10
-23836.033203125
 20
-9881.707763671875
 10
-23787.423828125
 20
-9887.635864257812
 10
-23738.802734375
 20
-9893.450561523438
 10
-23690.16796875
 20
-9899.151000976562
 10
-23641.51171875
 20
-9904.7373046875
 10
-23592.84375
 20
-9910.207763671875
 10
-23544.16015625
 20
-9915.5615234375
 10
-23495.466796875
 20
-9920.7978515625
 10
-23446.759765625
 20
-9925.916259765625
 10
-23398.064453125
 20
-9930.912841796875
 10
-23349.359375
 20
-9935.790283203125
 10
-23300.642578125
 20
-9940.5478515625
 10
-23251.912109375
 20
-9945.184814453125
 10
-23203.171875
 20
-9949.700927734375
 10
-23154.47265625
 20
-9954.091064453125
 10
-23105.76171875
 20
-9958.359619140625
 10
-23057.0390625
 20
-9962.5068359375
 10
-23008.30859375
 20
-9966.531982421875
 10
-22959.56640625
 20
-9970.435302734375
 10
-22910.8828125
 20
-9974.211181640625
 10
-22862.19140625
 20
-9977.865478515625
 10
-22813.48828125
 20
-9981.398681640625
 10
-22764.779296875
 20
-9984.810791015625
 10
-22716.060546875
 20
-9988.10205078125
 10
-22667.408203125
 20
-9991.268310546875
 10
-22618.748046875
 20
-9994.315185546875
 10
-22570.080078125
 20
-9997.24365234375
 10
-22521.40625
 20
-10000.05419921875
 10
-22472.7265625
 20
-10002.748046875
 10
-22424.109375
 20
-10005.32202148438
 10
-22375.48828125
 20
-10007.78149414062
 10
-22326.861328125
 20
-10010.1279296875
 10
-22278.228515625
 20
-10012.36254882812
 10
-22229.591796875
 20
-10014.48681640625
 10
-22189.109375
 20
-10016.17163085938
 10
-22148.625
 20
-10017.78173828125
 10
-22108.13671875
 20
-10019.31860351562
 10
-22077.76953125
 20
-10020.423828125
 10
-22047.400390625
 20
-10021.48876953125
 10
-21986.658203125
 20
-10023.5
 10
-21925.974609375
 20
-10025.3544921875
 10
-21865.28515625
 20
-10027.05859375
 10
-21804.591796875
 20
-10028.61743164062
 10
-21743.89453125
 20
-10030.03515625
 10
-21683.232421875
 20
-10031.31640625
 10
-21622.568359375
 20
-10032.46728515625
 10
-21561.90234375
 20
-10033.4931640625
 10
-21501.232421875
 20
-10034.39965820312
 10
-21447.314453125
 20
-10035.10986328125
 10
-21393.396484375
 20
-10035.73461914062
 10
-21339.4765625
 20
-10036.27807617188
 10
-21299.037109375
 20
-10036.63500976562
 10
-21258.595703125
 20
-10036.95068359375
 10
-21177.697265625
 20
-10037.46557617188
 10
-21096.796875
 20
-10037.837890625
 10
-21015.896484375
 20
-10038.08325195312
 10
-20958.259765625
 20
-10038.18920898438
 10
-20900.623046875
 20
-10038.24438476562
 10
-20836.83203125
 20
-10038.2529296875
 10
-20773.041015625
 20
-10038.2138671875
 10
-20692.013671875
 20
-10038.10717773438
 10
-20637.99609375
 20
-10038.00756835938
 10
-20529.9609375
 20
-10037.76000976562
 10
-20408.283203125
 20
-10037.43969726562
 10
-20286.60546875
 20
-10037.11840820312
 10
-20124.171875
 20
-10036.76098632812
 10
-20042.95703125
 20
-10036.63647460938
 10
-19921.001953125
 20
-10036.54296875
 10
-19799.048828125
 20
-10036.5810546875
 10
-19677.01953125
 20
-10036.76684570312
 10
-19554.990234375
 20
-10037.10424804688
 10
-19432.98046875
 20
-10037.59033203125
 10
-19310.970703125
 20
-10038.20532226562
 10
-19229.740234375
 20
-10038.67309570312
 10
-19067.28125
 20
-10039.68627929688
 10
-18959.30859375
 20
-10040.36157226562
 10
-18905.32421875
 20
-10040.67895507812
 10
-18824.345703125
 20
-10041.10766601562
 10
-18743.806640625
 20
-10041.45190429688
 10
-18703.537109375
 20
-10041.58154296875
 10
-18663.267578125
 20
-10041.67578125
 10
-18622.998046875
 20
-10041.73022460938
 10
-18582.728515625
 20
-10041.73950195312
  0
LWPOLYLINE
  5
93
100
AcDbEntity
  8
0
  6
ByLayer
 62
    7
370
   -1
100
AcDbPolyline
 90
   95
 70
    0
 43
0
 10
-24417.234375
 20
-6330.207397460938
 10
-24368.947265625
 20
-6322.997192382812
 10
-24320.646484375
 20
-6315.892333984375
 10
-24272.328125
 20
-6308.893310546875
 10
-24223.99609375
 20
-6302.000366210938
 10
-24175.646484375
 20
-6295.2138671875
 10
-24127.1875
 20
-6288.521118164062
 10
-24078.71484375
 20
-6281.936157226562
 10
-24030.2265625
 20
-6275.4599609375
 10
-23981.72265625
 20
-6269.092895507812
 10
-23933.20703125
 20
-6262.8359375
 10
-23884.626953125
 20
-6256.683471679688
 10
-23836.033203125
 20
-6250.642822265625
 10
-23787.423828125
 20
-6244.714721679688
 10
-23738.802734375
 20
-6238.900024414062
 10
-23690.16796875
 20
-6233.199584960938
 10
-23641.51171875
 20
-6227.61328125
 10
-23592.84375
 20
-6222.142944335938
 10
-23544.16015625
 20
-6216.7890625
 10
-23495.466796875
 20
-6211.552734375
 10
-23446.759765625
 20
-6206.434448242188
 10
-23398.064453125
 20
-6201.437744140625
 10
-23349.359375
 20
-6196.560302734375
 10
-23300.642578125
 20
-6191.802856445312
 10
-23251.912109375
 20
-6187.165771484375
 10
-23203.171875
 20
-6182.649658203125
 10
-23154.47265625
 20
-6178.259521484375
 10
-23105.76171875
 20
-6173.990966796875
 10
-23057.0390625
 20
-6169.843872070312
 10
-23008.30859375
 20
-6165.818725585938
 10
-22959.56640625
 20
-6161.915405273438
 10
-22910.8828125
 20
-6158.139526367188
 10
-22862.19140625
 20
-6154.485107421875
 10
-22813.48828125
 20
-6150.952026367188
 10
-22764.779296875
 20
-6147.539916992188
 10
-22716.060546875
 20
-6144.24853515625
 10
-22667.408203125
 20
-6141.082275390625
 10
-22618.748046875
 20
-6138.035400390625
 10
-22570.080078125
 20
-6135.107055664062
 10
-22521.40625
 20
-6132.29638671875
 10
-22472.7265625
 20
-6129.602661132812
 10
-22424.109375
 20
-6127.028564453125
 10
-22375.48828125
 20
-6124.569091796875
 10
-22326.861328125
 20
-6122.22265625
 10
-22278.228515625
 20
-6119.988037109375
 10
-22229.591796875
 20
-6117.86376953125
 10
-22189.109375
 20
-6116.179077148438
 10
-22148.625
 20
-6114.56884765625
 10
-22108.13671875
 20
-6113.031982421875
 10
-22077.76953125
 20
-6111.926879882812
 10
-22047.400390625
 20
-6110.86181640625
 10
-21986.658203125
 20
-6108.8505859375
 10
-21925.974609375
 20
-6106.996215820312
 10
-21865.28515625
 20
-6105.2919921875
 10
-21804.591796875
 20
-6103.733276367188
 10
-21743.89453125
 20
-6102.3154296875
 10
-21683.232421875
 20
-6101.034301757812
 10
-21622.568359375
 20
-6099.883422851562
 10
-21561.90234375
 20
-6098.857543945312
 10
-21501.232421875
 20
-6097.950927734375
 10
-21447.314453125
 20
-6097.240844726562
 10
-21393.396484375
 20
-6096.616088867188
 10
-21339.4765625
 20
-6096.072631835938
 10
-21299.037109375
 20
-6095.715576171875
 10
-21258.595703125
 20
-6095.39990234375
 10
-21177.697265625
 20
-6094.885009765625
 10
-21096.796875
 20
-6094.5126953125
 10
-21015.896484375
 20
-6094.267333984375
 10
-20958.259765625
 20
-6094.161376953125
 10
-20900.623046875
 20
-6094.106201171875
 10
-20836.83203125
 20
-6094.097778320312
 10
-20773.041015625
 20
-6094.136840820312
 10
-20692.013671875
 20
-6094.243408203125
 10
-20637.99609375
 20
-6094.343017578125
 10
-20529.9609375
 20
-6094.590576171875
 10
-20408.283203125
 20
-6094.911010742188
 10
-20286.60546875
 20
-6095.232177734375
 10
-20124.171875
 20
-6095.589599609375
 10
-20042.95703125
 20
-6095.714233398438
 10
-19921.001953125
 20
-6095.8076171875
 10
-19799.048828125
 20
-6095.769653320312
 10
-19677.01953125
 20
-6095.583862304688
 10
-19554.990234375
 20
-6095.246337890625
 10
-19432.98046875
 20
-6094.760375976562
 10
-19310.970703125
 20
-6094.145385742188
 10
-19229.740234375
 20
-6093.677490234375
 10
-19067.28125
 20
-6092.664428710938
 10
-18959.30859375
 20
-6091.989135742188
 10
-18905.32421875
 20
-6091.671630859375
 10
-18824.345703125
 20
-6091.242919921875
 10
-18743.806640625
 20
-6090.898803710938
 10
-18703.537109375
 20
-6090.769165039062
 10
-18663.267578125
 20
-6090.6748046875
 10
-18622.998046875
 20
-6090.620361328125
 10
-18582.728515625
 20
-6090.611206054688
  0
LWPOLYLINE
  5
94
100
AcDbEntity
  8
0
  6
ByLayer
 62
    7
370
   -1
100
AcDbPolyline
 90
    5
 70
    0
 43
0
 10
-32267.158203125
 20
-8258.717895507812
 10
-32267.158203125
 20
-8256.118255615234
 10
-32267.158203125
 20
-8252.256530761719
 10
-32267.158203125
 20
-8088.82341003418
 10
-32267.158203125
 20
-8066.17529296875
  0
LWPOLYLINE
  5
95
100
AcDbEntity
  8
0
  6
ByLayer
 62
    7
370
   -1
100
AcDbPolyline
 90
    4
 70
    0
 43
0
 10
-32267.158203125
 20
-8066.17529296875
 10
-32267.158203125
 20
-7916.15837097168
 10
-32267.158203125
 20
-7877.205596923828
 10
-32267.158203125
 20
-7873.632690429688
  0
ARC
  5
96
100
AcDbEntity
  8
0
  6
ByLayer
 62
    7
370
   -3
100
AcDbCircle
 10
-31515.076171875
 20
-7865.547103881836
 40
752.1241450864003
100
AcDbArc
 50
179.9599229544285
 51
180.2746170902477
  0
LWPOLYLINE
  5
97
100
AcDbEntity
  8
0
  6
ByLayer
 62
    7
370
   -1
100
AcDbPolyline
 90
    5
 70
    0
 43
0
 10
-32267.189453125
 20
-7862.320510864258
 10
-32267.185546875
 20
-7861.979339599609
 10
-32267.181640625
 20
-7861.927322387695
 10
-32267.181640625
 20
-7861.924453735352
 10
-32267.181640625
 20
-7861.949783325195
  0
LINE
  5
98
100
AcDbEntity
  8
0
  6
ByLayer
 62
    7
370
   -3
100
AcDbLine
 10
-32267.181640625
 20
-8270.426361083984
 11
-32267.197265625
 21
-8268.970642089844
  0
LWPOLYLINE
  5
99
100
AcDbEntity
  8
0
  6
ByLayer
 62
    7
370
   -1
100
AcDbPolyline
 90
   10
 70
    0
 43
0
 10
-32267.189453125
 20
-8270.018890380859
 10
-32267.419921875
 20
-8236.076782226562
 10
-32267.537109375
 20
-8202.134704589844
 10
-32267.576171875
 20
-8168.192626953125
 10
-32267.568359375
 20
-8100.51628112793
 10
-32267.583984375
 20
-7998.100051879883
 10
-32267.568359375
 20
-7947.182716369629
 10
-32267.494140625
 20
-7913.237838745117
 10
-32267.322265625
 20
-7879.292953491211
 10
-32267.189453125
 20
-7862.320510864258
  0
LINE
  5
9A
100
AcDbEntity
  8
0
  6
ByLayer
 62
    7
370
   -3
100
AcDbLine
 10
-30121.658203125
 20
-14129.95556640625
 11
-27200.580078125
 21
-9499.524047851562
  0
ARC
  5
9B
100
AcDbEntity
  8
0
  6
ByLayer
 62
    7
370
   -3
100
AcDbCircle
 10
-30134.173828125
 20
-14121.93896484375
 40
14.86381534355019
100
AcDbArc
 50
324.4001294658774
 51
327.357724319898
  0
LINE
  5
9C
100
AcDbEntity
  8
0
  6
ByLayer
 62
    7
370
   -3
100
AcDbLine
 10
-30121.658203125
 20
-2002.39501953125
 11
-27200.580078125
 21
-6632.826538085938
  0
LWPOLYLINE
  5
9D
100
AcDbEntity
  8
0
  6
ByLayer
 62
    7
370
   -1
100
AcDbPolyline
 90
   61
 70
    0
 43
0
 10
-27200.572265625
 20
-6632.839721679688
 10
-27197.955078125
 20
-6636.906860351562
 10
-27195.267578125
 20
-6640.92626953125
 10
-27192.525390625
 20
-6644.86865234375
 10
-27189.712890625
 20
-6648.761962890625
 10
-27186.853515625
 20
-6652.582153320312
 10
-27183.923828125
 20
-6656.35205078125
 10
-27180.947265625
 20
-6660.054321289062
 10
-27177.904296875
 20
-6663.705688476562
 10
-27174.810546875
 20
-6667.296020507812
 10
-27171.662109375
 20
-6670.8349609375
 10
-27168.455078125
 20
-6674.320556640625
 10
-27165.193359375
 20
-6677.754638671875
 10
-27161.869140625
 20
-6681.143188476562
 10
-27158.498046875
 20
-6684.480102539062
 10
-27155.060546875
 20
-6687.780151367188
 10
-27151.572265625
 20
-6691.02880859375
 10
-27148.013671875
 20
-6694.24853515625
 10
-27144.412109375
 20
-6697.417114257812
 10
-27140.728515625
 20
-6700.564331054688
 10
-27137.005859375
 20
-6703.660522460938
 10
-27133.193359375
 20
-6706.743286132812
 10
-27129.337890625
 20
-6709.775146484375
 10
-27125.388671875
 20
-6712.800048828125
 10
-27121.400390625
 20
-6715.774169921875
 10
-27117.306640625
 20
-6718.748779296875
 10
-27113.173828125
 20
-6721.67236328125
 10
-27108.923828125
 20
-6724.602416992188
 10
-27104.638671875
 20
-6727.481323242188
 10
-27100.228515625
 20
-6730.372436523438
 10
-27095.779296875
 20
-6733.212280273438
 10
-27091.193359375
 20
-6736.069458007812
 10
-27086.572265625
 20
-6738.875244140625
 10
-27081.798828125
 20
-6741.7021484375
 10
-27076.998046875
 20
-6744.4775390625
 10
-27072.029296875
 20
-6747.279174804688
 10
-27067.033203125
 20
-6750.029296875
 10
-27061.857421875
 20
-6752.8095703125
 10
-27056.658203125
 20
-6755.538330078125
 10
-27051.263671875
 20
-6758.30078125
 10
-27045.845703125
 20
-6761.012084960938
 10
-27040.220703125
 20
-6763.760375976562
 10
-27034.576171875
 20
-6766.4580078125
 10
-27028.712890625
 20
-6769.19580078125
 10
-27022.826171875
 20
-6771.883666992188
 10
-27016.716796875
 20
-6774.614624023438
 10
-27010.580078125
 20
-6777.296875
 10
-27004.208984375
 20
-6780.025146484375
 10
-26997.818359375
 20
-6782.706176757812
 10
-26991.283203125
 20
-6785.393920898438
 10
-26984.728515625
 20
-6788.037719726562
 10
-26977.923828125
 20
-6790.73193359375
 10
-26971.099609375
 20
-6793.384155273438
 10
-26964.017578125
 20
-6796.089721679688
 10
-26956.923828125
 20
-6798.755737304688
 10
-26949.556640625
 20
-6801.478393554688
 10
-26942.177734375
 20
-6804.164184570312
 10
-26926.853515625
 20
-6809.621459960938
 10
-26910.935546875
 20
-6815.140625
 10
-26894.412109375
 20
-6820.735229492188
 10
-26877.259765625
 20
-6826.4189453125
  0
LWPOLYLINE
  5
9E
100
AcDbEntity
  8
0
  6
ByLayer
 62
    7
370
   -1
100
AcDbPolyline
 90
   12
 70
    0
 43
0
 10
-31451.361328125
 20
-1839.9404296875
 10
-31397.794921875
 20
-1839.92626953125
 10
-31344.369140625
 20
-1839.94287109375
 10
-31291.068359375
 20
-1840.0625
 10
-31247.990234375
 20
-1840.23681640625
 10
-31219.294921875
 20
-1840.38232421875
 10
-31161.947265625
 20
-1840.708984375
 10
-31101.896484375
 20
-1841.041015625
 10
-31026.880859375
 20
-1841.3603515625
 10
-30951.935546875
 20
-1841.546875
 10
-30891.966796875
 20
-1841.63427734375
 10
-30774.021484375
 20
-1841.83642578125
  0
LWPOLYLINE
  5
9F
100
AcDbEntity
  8
0
  6
ByLayer
 62
    7
370
   -1
100
AcDbPolyline
 90
   10
 70
    0
 43
0
 10
-31414.939453125
 20
-1999.400390625
 10
-31435.244140625
 20
-1910.76123046875
 10
-31444.357421875
 20
-1870.9853515625
 10
-31448.630859375
 20
-1852.26416015625
 10
-31450.271484375
 20
-1845.02099609375
 10
-31451.181640625
 20
-1840.88818359375
 10
-31451.357421875
 20
-1840.01708984375
 10
-31451.361328125
 20
-1839.953125
 10
-31451.361328125
 20
-1839.943359375
 10
-31451.361328125
 20
-1839.9404296875
  0
LWPOLYLINE
  5
A0
100
AcDbEntity
  8
0
  6
ByLayer
 62
    7
370
   -1
100
AcDbPolyline
 90
   49
 70
    0
 43
0
 10
-30774.021484375
 20
-1841.83642578125
 10
-30749.876953125
 20
-1841.90625
 10
-30725.818359375
 20
-1841.97509765625
 10
-30696.974609375
 20
-1842.01708984375
 10
-30668.166015625
 20
-1842.00048828125
 10
-30642.029296875
 20
-1841.95263671875
 10
-30615.849609375
 20
-1841.9150390625
 10
-30589.583984375
 20
-1841.95166015625
 10
-30569.810546875
 20
-1842.07861328125
 10
-30559.892578125
 20
-1842.18798828125
 10
-30549.955078125
 20
-1842.3359375
 10
-30540.455078125
 20
-1842.5185546875
 10
-30530.931640625
 20
-1842.74658203125
 10
-30521.697265625
 20
-1843.01611328125
 10
-30512.443359375
 20
-1843.33935546875
 10
-30499.861328125
 20
-1843.87158203125
 10
-30487.232421875
 20
-1844.5263671875
 10
-30474.564453125
 20
-1845.31640625
 10
-30463.126953125
 20
-1846.1552734375
 10
-30451.654296875
 20
-1847.12646484375
 10
-30440.150390625
 20
-1848.24072265625
 10
-30428.615234375
 20
-1849.5087890625
 10
-30422.837890625
 20
-1850.20361328125
 10
-30417.052734375
 20
-1850.9404296875
 10
-30406.521484375
 20
-1852.39306640625
 10
-30395.974609375
 20
-1853.99755859375
 10
-30390.693359375
 20
-1854.859375
 10
-30385.408203125
 20
-1855.76220703125
 10
-30377.474609375
 20
-1857.19580078125
 10
-30369.533203125
 20
-1858.72705078125
 10
-30361.587890625
 20
-1860.35888671875
 10
-30353.638671875
 20
-1862.0947265625
 10
-30344.552734375
 20
-1864.2099609375
 10
-30335.462890625
 20
-1866.46923828125
 10
-30326.380859375
 20
-1868.87744140625
 10
-30317.302734375
 20
-1871.43798828125
 10
-30308.232421875
 20
-1874.15576171875
 10
-30303.662109375
 20
-1875.58740234375
 10
-30299.095703125
 20
-1877.06005859375
 10
-30294.611328125
 20
-1878.54833984375
 10
-30290.134765625
 20
-1880.0771484375
 10
-30281.916015625
 20
-1882.994140625
 10
-30273.720703125
 20
-1886.052734375
 10
-30265.544921875
 20
-1889.255859375
 10
-30257.396484375
 20
-1892.60498046875
 10
-30249.275390625
 20
-1896.10302734375
 10
-30241.185546875
 20
-1899.75146484375
 10
-30233.130859375
 20
-1903.55224609375
 10
-30225.115234375
 20
-1907.5068359375
  0
LINE
  5
A1
100
AcDbEntity
  8
0
  6
ByLayer
 62
    7
370
   -3
100
AcDbLine
 10
-31451.361328125
 20
-1839.939453125
 11
-31451.361328125
 21
-1839.9404296875
  0
ELLIPSE
  5
A2
100
AcDbEntity
  8
0
  6
ByLayer
 62
    7
370
   -3
100
AcDbEllipse
 10
-30747.998046875
 20
-1900.13330078125
 30
0
 11
-25.78515625
 21
58.52839660644532
 31
0
 40
0.080977833583092
 41
6.247368530278019
 42
6.343407116795176
  0
ELLIPSE
  5
A3
100
AcDbEntity
  8
0
  6
ByLayer
 62
    7
370
   -3
100
AcDbEllipse
 10
-30747.998046875
 20
-1900.1318359375
 30
0
 11
-25.78515625
 21
58.52734375
 31
0
 40
0.0809784806183101
 41
6.247363804561741
 42
6.343407199478468
  0
LWPOLYLINE
  5
A4
100
AcDbEntity
  8
0
  6
ByLayer
 62
    7
370
   -1
100
AcDbPolyline
 90
    5
 70
    0
 43
0
 10
-30225.115234375
 20
-1907.5068359375
 10
-30225.091796875
 20
-1907.46484375
 10
-30225.033203125
 20
-1907.43896484375
 10
-30225.001953125
 20
-1907.44140625
 10
-30224.916015625
 20
-1907.4716796875
  0
LWPOLYLINE
  5
A5
100
AcDbEntity
  8
0
  6
ByLayer
 62
    7
370
   -1
100
AcDbPolyline
 90
   11
 70
    0
 43
0
 10
-31451.361328125
 20
-1839.9404296875
 10
-31451.361328125
 20
-1839.9453125
 10
-31451.361328125
 20
-1839.9658203125
 10
-31451.341796875
 20
-1840.1083984375
 10
-31451.119140625
 20
-1841.18359375
 10
-31450.681640625
 20
-1843.189453125
 10
-31449.451171875
 20
-1848.66552734375
 10
-31446.193359375
 20
-1862.94970703125
 10
-31433.037109375
 20
-1920.39697265625
 10
-31416.482421875
 20
-1992.67626953125
 10
-31414.939453125
 20
-1999.39990234375
  0
LWPOLYLINE
  5
A6
100
AcDbEntity
  8
0
  6
ByLayer
 62
    7
370
   -1
100
AcDbPolyline
 90
   29
 70
    0
 43
0
 10
-30122.095703125
 20
-2001.7451171875
 10
-30122.822265625
 20
-2000.607421875
 10
-30125.029296875
 20
-1997.216796875
 10
-30127.279296875
 20
-1993.85986328125
 10
-30129.576171875
 20
-1990.53955078125
 10
-30132.736328125
 20
-1986.13232421875
 10
-30135.978515625
 20
-1981.79150390625
 10
-30139.302734375
 20
-1977.52099609375
 10
-30142.705078125
 20
-1973.32421875
 10
-30146.783203125
 20
-1968.509765625
 10
-30150.974609375
 20
-1963.796875
 10
-30155.279296875
 20
-1959.18701171875
 10
-30159.693359375
 20
-1954.68310546875
 10
-30164.212890625
 20
-1950.2880859375
 10
-30168.841796875
 20
-1946.0048828125
 10
-30173.576171875
 20
-1941.83642578125
 10
-30178.416015625
 20
-1937.78515625
 10
-30183.353515625
 20
-1933.85400390625
 10
-30188.392578125
 20
-1930.04443359375
 10
-30192.607421875
 20
-1927.00732421875
 10
-30196.884765625
 20
-1924.05322265625
 10
-30201.232421875
 20
-1921.1826171875
 10
-30205.638671875
 20
-1918.39794921875
 10
-30210.111328125
 20
-1915.701171875
 10
-30213.501953125
 20
-1913.7353515625
 10
-30216.927734375
 20
-1911.8193359375
 10
-30222.443359375
 20
-1908.87548828125
 10
-30224.224609375
 20
-1907.95947265625
 10
-30225.115234375
 20
-1907.5068359375
  0
ARC
  5
A7
100
AcDbEntity
  8
0
  6
ByLayer
 62
    7
370
   -3
100
AcDbCircle
 10
-30134.173828125
 20
-2010.41162109375
 40
14.86381532074789
100
AcDbArc
 50
32.64227750133483
 51
35.59987235535542
  0
LWPOLYLINE
  5
A8
100
AcDbEntity
  8
0
  6
ByLayer
 62
    7
370
   -1
100
AcDbPolyline
 90
   27
 70
    0
 43
0
 10
-30225.115234375
 20
-1907.5068359375
 10
-30224.052734375
 20
-1908.04638671875
 10
-30218.904296875
 20
-1910.74365234375
 10
-30213.505859375
 20
-1913.7333984375
 10
-30208.267578125
 20
-1916.79736328125
 10
-30204.720703125
 20
-1918.9697265625
 10
-30202.525390625
 20
-1920.353515625
 10
-30197.673828125
 20
-1923.5234375
 10
-30192.904296875
 20
-1926.79833984375
 10
-30188.212890625
 20
-1930.17724609375
 10
-30183.607421875
 20
-1933.658203125
 10
-30178.712890625
 20
-1937.54345703125
 10
-30173.916015625
 20
-1941.54443359375
 10
-30169.224609375
 20
-1945.66064453125
 10
-30164.634765625
 20
-1949.888671875
 10
-30160.150390625
 20
-1954.22705078125
 10
-30155.962890625
 20
-1958.474609375
 10
-30151.873046875
 20
-1962.8173828125
 10
-30147.884765625
 20
-1967.2529296875
 10
-30143.990234375
 20
-1971.779296875
 10
-30140.197265625
 20
-1976.396484375
 10
-30136.505859375
 20
-1981.1025390625
 10
-30132.908203125
 20
-1985.896484375
 10
-30129.408203125
 20
-1990.775390625
 10
-30126.337890625
 20
-1995.251953125
 10
-30123.134765625
 20
-2000.1181640625
 10
-30122.087890625
 20
-2001.76025390625
  0
LWPOLYLINE
  5
A9
100
AcDbEntity
  8
0
  6
ByLayer
 62
    7
370
   -1
100
AcDbPolyline
 90
    5
 70
    0
 43
0
 10
-30224.916015625
 20
-1907.4716796875
 10
-30225.025390625
 20
-1907.43896484375
 10
-30225.064453125
 20
-1907.44580078125
 10
-30225.107421875
 20
-1907.48583984375
 10
-30225.115234375
 20
-1907.5068359375
  0
LWPOLYLINE
  5
AA
100
AcDbEntity
  8
0
  6
ByLayer
 62
    7
370
   -1
100
AcDbPolyline
 90
   17
 70
    0
 43
0
 10
778.509765625
 20
-6169.558227539062
 10
778.533203125
 20
-6169.28173828125
 10
778.548828125
 20
-6169.185424804688
 10
778.541015625
 20
-6169.137084960938
 10
778.537109375
 20
-6169.127563476562
 10
778.533203125
 20
-6169.122192382812
 10
778.533203125
 20
-6169.120971679688
 10
778.529296875
 20
-6169.12060546875
 10
778.529296875
 20
-6169.12109375
 10
778.529296875
 20
-6169.122314453125
 10
778.525390625
 20
-6169.130615234375
 10
778.521484375
 20
-6169.162719726562
 10
778.521484375
 20
-6169.255981445312
 10
778.494140625
 20
-6169.525146484375
 10
778.455078125
 20
-6169.937866210938
 10
778.404296875
 20
-6170.49658203125
 10
778.263671875
 20
-6172.062255859375
  0
LINE
  5
AB
100
AcDbEntity
  8
0
  6
ByLayer
 62
    7
370
   -3
100
AcDbLine
 10
-204.962890625
 20
-6112.70849609375
 11
-204.908203125
 21
-6111.99560546875
  0
LINE
  5
AC
100
AcDbEntity
  8
0
  6
ByLayer
 62
    7
370
   -3
100
AcDbLine
 10
-16554.85546875
 20
8201.75
 11
-16553.19140625
 21
8202.8896484375
  0
LWPOLYLINE
  5
AD
100
AcDbEntity
  8
0
  6
ByLayer
 62
    7
370
   -1
100
AcDbPolyline
 90
    5
 70
    0
 43
0
 10
-13514.9296875
 20
-1732.5126953125
 10
-13514.953125
 20
-2768.1943359375
 10
-13515.015625
 20
-4350.82568359375
 10
-13514.9375
 20
-5422.911865234375
 10
-13514.7421875
 20
-6090.618286132812
  0
LWPOLYLINE
  5
AE
100
AcDbEntity
  8
0
  6
ByLayer
 62
    7
370
   -1
100
AcDbPolyline
 90
   11
 70
    0
 43
0
 10
-16555.1484375
 20
8201.70703125
 10
-16314.123046875
 20
7414.5361328125
 10
-16072.59375
 20
6625.7861328125
 10
-15830.564453125
 20
5834.96484375
 10
-15304.44921875
 20
4115.044921875
 10
-15020.205078125
 20
3186.17578125
 10
-14733.365234375
 20
2249.3583984375
 10
-14446.28515625
 20
1312.0146484375
 10
-14179.62890625
 20
441.125
 10
-13913.0859375
 20
-430.04833984375
 10
-13514.90234375
 20
-1732.5126953125
  0
LWPOLYLINE
  5
AF
100
AcDbEntity
  8
0
  6
ByLayer
 62
    7
370
   -1
100
AcDbPolyline
 90
    5
 70
    0
 43
0
 10
-13514.9296875
 20
-14399.837890625
 10
-13514.953125
 20
-13364.15625
 10
-13515.015625
 20
-11781.52490234375
 10
-13514.9375
 20
-10709.43872070312
 10
-13514.7421875
 20
-10041.732421875
  0
LWPOLYLINE
  5
B0
100
AcDbEntity
  8
0
  6
ByLayer
 62
    7
370
   -1
100
AcDbPolyline
 90
   11
 70
    0
 43
0
 10
-16555.1484375
 20
-24334.05859375
 10
-16314.123046875
 20
-23546.8876953125
 10
-16072.59375
 20
-22758.1376953125
 10
-15830.564453125
 20
-21967.31640625
 10
-15304.44921875
 20
-20247.396484375
 10
-15020.205078125
 20
-19318.52734375
 10
-14733.365234375
 20
-18381.7099609375
 10
-14446.28515625
 20
-17444.3662109375
 10
-14179.62890625
 20
-16573.4765625
 10
-13913.0859375
 20
-15702.30224609375
 10
-13514.90234375
 20
-14399.837890625
  0
LWPOLYLINE
  5
B1
100
AcDbEntity
  8
0
  6
ByLayer
 62
    7
370
   -1
100
AcDbPolyline
 90
  102
 70
    0
 43
0
 10
-6085.380859375
 20
-13762.29052734375
 10
-6084.572265625
 20
-13810.0595703125
 10
-6083.896484375
 20
-13857.830078125
 10
-6083.353515625
 20
-13905.6025390625
 10
-6082.947265625
 20
-13953.37646484375
 10
-6082.685546875
 20
-14000.962890625
 10
-6082.572265625
 20
-14048.55078125
 10
-6082.572265625
 20
-14072.76416015625
 10
-6082.611328125
 20
-14096.97802734375
 10
-6082.693359375
 20
-14120.35205078125
 10
-6082.810546875
 20
-14143.7255859375
 10
-6083.134765625
 20
-14186.01171875
 10
-6083.349609375
 20
-14207.154296875
 10
-6083.603515625
 20
-14228.29638671875
 10
-6084.009765625
 20
-14256.48486328125
 10
-6084.494140625
 20
-14284.67236328125
 10
-6085.060546875
 20
-14312.85888671875
 10
-6085.869140625
 20
-14347.14404296875
 10
-6086.330078125
 20
-14364.28564453125
 10
-6086.830078125
 20
-14381.42578125
 10
-6087.568359375
 20
-14404.27685546875
 10
-6088.396484375
 20
-14427.125
 10
-6089.314453125
 20
-14449.96923828125
 10
-6089.947265625
 20
-14464.318359375
 10
-6090.626953125
 20
-14478.6650390625
 10
-6091.185546875
 20
-14489.57080078125
 10
-6091.783203125
 20
-14500.47412109375
 10
-6092.794921875
 20
-14517.29931640625
 10
-6093.927734375
 20
-14534.1181640625
 10
-6095.201171875
 20
-14550.9287109375
 10
-6095.771484375
 20
-14557.87158203125
 10
-6096.490234375
 20
-14566.18701171875
 10
-6097.267578125
 20
-14574.486328125
 10
-6097.908203125
 20
-14580.857421875
 10
-6098.599609375
 20
-14587.2265625
 10
-6099.763671875
 20
-14597.0029296875
 10
-6100.423828125
 20
-14602.04150390625
 10
-6101.126953125
 20
-14607.08544921875
 10
-6101.833984375
 20
-14611.845703125
 10
-6102.583984375
 20
-14616.6142578125
 10
-6103.595703125
 20
-14622.5458984375
 10
-6104.150390625
 20
-14625.505859375
 10
-6104.904296875
 20
-14629.23388671875
 10
-6105.744140625
 20
-14632.93701171875
 10
-6106.771484375
 20
-14636.9462890625
 10
-6107.333984375
 20
-14638.931640625
 10
-6107.931640625
 20
-14640.90283203125
 10
-6108.966796875
 20
-14644.02294921875
 10
-6110.115234375
 20
-14647.095703125
 10
-6111.380859375
 20
-14650.115234375
 10
-6112.771484375
 20
-14653.076171875
 10
-6113.521484375
 20
-14654.5322265625
 10
-6114.306640625
 20
-14655.97119140625
 10
-6115.837890625
 20
-14658.56298828125
 10
-6117.490234375
 20
-14661.08447265625
 10
-6119.216796875
 20
-14663.47216796875
 10
-6121.041015625
 20
-14665.78564453125
 10
-6122.955078125
 20
-14668.02685546875
 10
-6124.955078125
 20
-14670.197265625
 10
-6126.263671875
 20
-14671.5390625
 10
-6127.599609375
 20
-14672.85400390625
 10
-6129.099609375
 20
-14674.27001953125
 10
-6130.626953125
 20
-14675.654296875
 10
-6132.240234375
 20
-14677.056640625
 10
-6133.876953125
 20
-14678.4267578125
 10
-6137.224609375
 20
-14681.07470703125
 10
-6140.658203125
 20
-14683.60595703125
 10
-6144.169921875
 20
-14686.0302734375
 10
-6146.494140625
 20
-14687.5537109375
 10
-6148.841796875
 20
-14689.0380859375
 10
-6151.333984375
 20
-14690.5556640625
 10
-6153.845703125
 20
-14692.03515625
 10
-6157.564453125
 20
-14694.14404296875
 10
-6161.326171875
 20
-14696.18017578125
 10
-6165.123046875
 20
-14698.14794921875
 10
-6167.990234375
 20
-14699.5810546875
 10
-6170.873046875
 20
-14700.97998046875
 10
-6176.689453125
 20
-14703.67919921875
 10
-6182.560546875
 20
-14706.25927734375
 10
-6187.763671875
 20
-14708.44091796875
 10
-6192.998046875
 20
-14710.54443359375
 10
-6198.263671875
 20
-14712.57470703125
 10
-6202.228515625
 20
-14714.0517578125
 10
-6206.208984375
 20
-14715.4921875
 10
-6214.201171875
 20
-14718.27001953125
 10
-6221.224609375
 20
-14720.595703125
 10
-6228.275390625
 20
-14722.83251953125
 10
-6235.353515625
 20
-14724.98681640625
 10
-6240.673828125
 20
-14726.552734375
 10
-6246.009765625
 20
-14728.078125
 10
-6255.861328125
 20
-14730.7919921875
 10
-6265.744140625
 20
-14733.39404296875
 10
-6275.654296875
 20
-14735.8984375
 10
-6284.404296875
 20
-14738.03857421875
 10
-6290.244140625
 20
-14739.43701171875
 10
-6301.939453125
 20
-14742.18505859375
 10
-6325.572265625
 20
-14747.634765625
 10
-6341.931640625
 20
-14751.3623046875
 10
-6350.119140625
 20
-14753.18603515625
 10
-6361.056640625
 20
-14755.546875
 10
-6372.009765625
 20
-14757.81787109375
 10
-6382.986328125
 20
-14759.99267578125
  0
LWPOLYLINE
  5
B2
100
AcDbEntity
  8
0
  6
ByLayer
 62
    7
370
   -1
100
AcDbPolyline
 90
  102
 70
    0
 43
0
 10
-6417.509765625
 20
-12775.57421875
 10
-6406.466796875
 20
-12777.3662109375
 10
-6395.443359375
 20
-12779.2548828125
 10
-6384.435546875
 20
-12781.234375
 10
-6376.193359375
 20
-12782.7724609375
 10
-6359.720703125
 20
-12785.92919921875
 10
-6335.919921875
 20
-12790.5537109375
 10
-6324.142578125
 20
-12792.8935546875
 10
-6318.259765625
 20
-12794.087890625
 10
-6309.443359375
 20
-12795.921875
 10
-6299.455078125
 20
-12798.080078125
 10
-6289.490234375
 20
-12800.3359375
 10
-6279.552734375
 20
-12802.705078125
 10
-6274.169921875
 20
-12804.0439453125
 10
-6268.794921875
 20
-12805.4228515625
 10
-6261.650390625
 20
-12807.32958984375
 10
-6254.529296875
 20
-12809.3193359375
 10
-6247.431640625
 20
-12811.39892578125
 10
-6239.345703125
 20
-12813.896484375
 10
-6235.322265625
 20
-12815.197265625
 10
-6231.306640625
 20
-12816.53515625
 10
-6225.978515625
 20
-12818.380859375
 10
-6220.673828125
 20
-12820.30078125
 10
-6215.396484375
 20
-12822.29931640625
 10
-6209.443359375
 20
-12824.67333984375
 10
-6203.537109375
 20
-12827.16845703125
 10
-6200.607421875
 20
-12828.4658203125
 10
-6197.693359375
 20
-12829.79833984375
 10
-6193.830078125
 20
-12831.63232421875
 10
-6190.001953125
 20
-12833.53662109375
 10
-6186.208984375
 20
-12835.51416015625
 10
-6183.650390625
 20
-12836.9052734375
 10
-6181.111328125
 20
-12838.3349609375
 10
-6178.712890625
 20
-12839.73681640625
 10
-6176.337890625
 20
-12841.17822265625
 10
-6172.744140625
 20
-12843.47900390625
 10
-6169.220703125
 20
-12845.88916015625
 10
-6165.787109375
 20
-12848.4189453125
 10
-6164.103515625
 20
-12849.73095703125
 10
-6162.443359375
 20
-12851.07666015625
 10
-6160.869140625
 20
-12852.40673828125
 10
-6159.322265625
 20
-12853.76953125
 10
-6157.943359375
 20
-12855.033203125
 10
-6156.591796875
 20
-12856.32470703125
 10
-6154.525390625
 20
-12858.4208984375
 10
-6152.533203125
 20
-12860.58984375
 10
-6150.630859375
 20
-12862.8349609375
 10
-6148.830078125
 20
-12865.1572265625
 10
-6147.080078125
 20
-12867.6328125
 10
-6145.447265625
 20
-12870.18310546875
 10
-6144.615234375
 20
-12871.59326171875
 10
-6143.818359375
 20
-12873.02197265625
 10
-6142.322265625
 20
-12875.93115234375
 10
-6140.955078125
 20
-12878.9033203125
 10
-6139.701171875
 20
-12881.93310546875
 10
-6138.556640625
 20
-12885.01318359375
 10
-6137.888671875
 20
-12886.96142578125
 10
-6137.259765625
 20
-12888.92529296875
 10
-6136.095703125
 20
-12892.89404296875
 10
-6135.126953125
 20
-12896.56201171875
 10
-6134.244140625
 20
-12900.2578125
 10
-6133.587890625
 20
-12903.1962890625
 10
-6132.369140625
 20
-12909.087890625
 10
-6131.443359375
 20
-12913.86865234375
 10
-6130.564453125
 20
-12918.642578125
 10
-6129.685546875
 20
-12923.6611328125
 10
-6128.849609375
 20
-12928.67529296875
 10
-6127.337890625
 20
-12938.4482421875
 10
-6126.423828125
 20
-12944.81787109375
 10
-6125.556640625
 20
-12951.19140625
 10
-6124.490234375
 20
-12959.4951171875
 10
-6123.474609375
 20
-12967.81689453125
 10
-6122.693359375
 20
-12974.4765625
 10
-6120.837890625
 20
-12991.232421875
 10
-6119.115234375
 20
-13008.0009765625
 10
-6117.517578125
 20
-13024.78076171875
 10
-6116.541015625
 20
-13035.66259765625
 10
-6115.603515625
 20
-13046.54833984375
 10
-6114.419921875
 20
-13060.85693359375
 10
-6113.291015625
 20
-13075.16943359375
 10
-6111.572265625
 20
-13097.9677734375
 10
-6109.951171875
 20
-13120.7734375
 10
-6108.412109375
 20
-13143.5849609375
 10
-6107.314453125
 20
-13160.69677734375
 10
-6106.255859375
 20
-13177.81201171875
 10
-6104.251953125
 20
-13212.04833984375
 10
-6102.701171875
 20
-13240.19775390625
 10
-6101.236328125
 20
-13268.3515625
 10
-6099.849609375
 20
-13296.50927734375
 10
-6098.857421875
 20
-13317.62939453125
 10
-6097.904296875
 20
-13338.751953125
 10
-6096.107421875
 20
-13381.0009765625
 10
-6095.169921875
 20
-13404.37451171875
 10
-6094.275390625
 20
-13427.74951171875
 10
-6093.392578125
 20
-13451.9287109375
 10
-6092.544921875
 20
-13476.10986328125
 10
-6091.001953125
 20
-13523.67236328125
 10
-6089.607421875
 20
-13571.2392578125
 10
-6088.345703125
 20
-13618.99755859375
 10
-6087.224609375
 20
-13666.7587890625
 10
-6086.236328125
 20
-13714.5234375
 10
-6085.380859375
 20
-13762.29052734375
  0
LWPOLYLINE
  5
B3
100
AcDbEntity
  8
0
  6
ByLayer
 62
    7
370
   -1
100
AcDbPolyline
 90
   95
 70
    0
 43
0
 10
-6417.498046875
 20
-12775.57568359375
 10
-6430.189453125
 20
-12773.517578125
 10
-6442.888671875
 20
-12771.53515625
 10
-6455.599609375
 20
-12769.62744140625
 10
-6465.076171875
 20
-12768.25390625
 10
-6474.556640625
 20
-12766.92041015625
 10
-6484.169921875
 20
-12765.60986328125
 10
-6493.787109375
 20
-12764.33935546875
 10
-6512.916015625
 20
-12761.9326171875
 10
-6532.056640625
 20
-12759.67822265625
 10
-6551.216796875
 20
-12757.57177734375
 10
-6570.392578125
 20
-12755.60986328125
 10
-6586.841796875
 20
-12754.03955078125
 10
-6603.298828125
 20
-12752.5693359375
 10
-6619.763671875
 20
-12751.19677734375
 10
-6636.232421875
 20
-12749.9189453125
 10
-6647.220703125
 20
-12749.11865234375
 10
-6658.208984375
 20
-12748.35791015625
 10
-6680.189453125
 20
-12746.955078125
 10
-6702.181640625
 20
-12745.703125
 10
-6724.755859375
 20
-12744.56884765625
 10
-6747.337890625
 20
-12743.57861328125
 10
-6769.923828125
 20
-12742.72412109375
 10
-6792.513671875
 20
-12741.99658203125
 10
-6812.595703125
 20
-12741.44970703125
 10
-6832.677734375
 20
-12740.990234375
 10
-6852.763671875
 20
-12740.61181640625
 10
-6867.830078125
 20
-12740.3779296875
 10
-6882.896484375
 20
-12740.18408203125
 10
-6913.177734375
 20
-12739.9052734375
 10
-6943.462890625
 20
-12739.7626953125
 10
-6973.744140625
 20
-12739.74169921875
 10
-6995.111328125
 20
-12739.79248046875
 10
-7016.474609375
 20
-12739.89111328125
 10
-7040.533203125
 20
-12740.05322265625
 10
-7064.591796875
 20
-12740.2626953125
 10
-7095.095703125
 20
-12740.5859375
 10
-7125.599609375
 20
-12740.9638671875
 10
-7166.267578125
 20
-12741.53759765625
 10
-7193.380859375
 20
-12741.9541015625
 10
-7247.603515625
 20
-12742.83935546875
 10
-7344.294921875
 20
-12744.4794921875
 10
-7440.986328125
 20
-12746.09033203125
 10
-7530.494140625
 20
-12747.48095703125
 10
-7620.001953125
 20
-12748.80322265625
 10
-7709.509765625
 20
-12750.109375
 10
-7785.990234375
 20
-12751.2666015625
 10
-7824.232421875
 20
-12751.8916015625
 10
-7852.912109375
 20
-12752.39208984375
 10
-7881.587890625
 20
-12752.92626953125
 10
-7924.603515625
 20
-12753.80517578125
 10
-7967.619140625
 20
-12754.794921875
 10
-8010.376953125
 20
-12755.9091796875
 10
-8032.048828125
 20
-12756.5322265625
 10
-8053.716796875
 20
-12757.1982421875
 10
-8074.798828125
 20
-12757.89111328125
 10
-8095.876953125
 20
-12758.6318359375
 10
-8127.931640625
 20
-12759.85546875
 10
-8159.982421875
 20
-12761.20751953125
 10
-8192.029296875
 20
-12762.6982421875
 10
-8208.048828125
 20
-12763.4990234375
 10
-8224.064453125
 20
-12764.3388671875
 10
-8240.029296875
 20
-12765.2158203125
 10
-8255.986328125
 20
-12766.1337890625
 10
-8271.830078125
 20
-12767.0869140625
 10
-8287.669921875
 20
-12768.0830078125
 10
-8308.861328125
 20
-12769.484375
 10
-8330.044921875
 20
-12770.96728515625
 10
-8351.228515625
 20
-12772.53369140625
 10
-8376.634765625
 20
-12774.5283203125
 10
-8402.029296875
 20
-12776.65185546875
 10
-8427.416015625
 20
-12778.90966796875
 10
-8452.787109375
 20
-12781.3056640625
 10
-8478.146484375
 20
-12783.8447265625
 10
-8503.439453125
 20
-12786.525390625
 10
-8528.716796875
 20
-12789.353515625
 10
-8553.978515625
 20
-12792.32958984375
 10
-8579.220703125
 20
-12795.4541015625
 10
-8604.443359375
 20
-12798.72705078125
 10
-8629.646484375
 20
-12802.1494140625
 10
-8654.830078125
 20
-12805.720703125
 10
-8679.990234375
 20
-12809.44189453125
 10
-8705.126953125
 20
-12813.3134765625
 10
-8730.240234375
 20
-12817.3359375
 10
-8755.458984375
 20
-12821.5302734375
 10
-8780.650390625
 20
-12825.86962890625
 10
-8805.822265625
 20
-12830.34716796875
 10
-8830.966796875
 20
-12834.95556640625
 10
-8856.091796875
 20
-12839.6875
 10
-8871.591796875
 20
-12842.66748046875
 10
-8887.083984375
 20
-12845.68994140625
 10
-8902.951171875
 20
-12848.82958984375
 10
-8918.810546875
 20
-12852.01025390625
 10
-8950.126953125
 20
-12858.40869140625
 10
-8981.412109375
 20
-12864.9462890625
  0
LWPOLYLINE
  5
B4
100
AcDbEntity
  8
0
  6
ByLayer
 62
    7
370
   -1
100
AcDbPolyline
 90
  109
 70
    0
 43
0
 10
-9284.330078125
 20
-14700.65966796875
 10
-9262.740234375
 20
-14704.11083984375
 10
-9241.166015625
 20
-14707.6689453125
 10
-9219.611328125
 20
-14711.322265625
 10
-9203.451171875
 20
-14714.1162109375
 10
-9187.298828125
 20
-14716.95068359375
 10
-9163.080078125
 20
-14721.26708984375
 10
-9138.873046875
 20
-14725.64453125
 10
-9122.740234375
 20
-14728.58740234375
 10
-9090.478515625
 20
-14734.50830078125
 10
-9042.083984375
 20
-14743.396484375
 10
-9014.529296875
 20
-14748.4130859375
 10
-8986.970703125
 20
-14753.3759765625
 10
-8966.638671875
 20
-14756.99365234375
 10
-8946.302734375
 20
-14760.56884765625
 10
-8922.333984375
 20
-14764.7197265625
 10
-8898.353515625
 20
-14768.7958984375
 10
-8882.361328125
 20
-14771.46728515625
 10
-8866.361328125
 20
-14774.0986328125
 10
-8845.013671875
 20
-14777.5400390625
 10
-8823.654296875
 20
-14780.89990234375
 10
-8802.283203125
 20
-14784.17041015625
 10
-8775.771484375
 20
-14788.09326171875
 10
-8749.240234375
 20
-14791.8671875
 10
-8722.689453125
 20
-14795.4892578125
 10
-8696.115234375
 20
-14798.9560546875
 10
-8682.794921875
 20
-14800.63330078125
 10
-8669.470703125
 20
-14802.2705078125
 10
-8656.189453125
 20
-14803.86181640625
 10
-8642.904296875
 20
-14805.41259765625
 10
-8622.931640625
 20
-14807.66552734375
 10
-8602.947265625
 20
-14809.82470703125
 10
-8582.955078125
 20
-14811.88916015625
 10
-8562.951171875
 20
-14813.85693359375
 10
-8542.962890625
 20
-14815.7255859375
 10
-8522.966796875
 20
-14817.498046875
 10
-8502.958984375
 20
-14819.17626953125
 10
-8482.943359375
 20
-14820.76123046875
 10
-8469.599609375
 20
-14821.7666015625
 10
-8456.248046875
 20
-14822.73193359375
 10
-8429.541015625
 20
-14824.54345703125
 10
-8402.822265625
 20
-14826.19873046875
 10
-8376.095703125
 20
-14827.701171875
 10
-8349.361328125
 20
-14829.05419921875
 10
-8322.619140625
 20
-14830.26171875
 10
-8294.958984375
 20
-14831.36083984375
 10
-8267.294921875
 20
-14832.31494140625
 10
-8239.626953125
 20
-14833.1298828125
 10
-8211.955078125
 20
-14833.8134765625
 10
-8184.279296875
 20
-14834.37255859375
 10
-8167.146484375
 20
-14834.6591796875
 10
-8150.017578125
 20
-14834.90234375
 10
-8132.548828125
 20
-14835.107421875
 10
-8115.083984375
 20
-14835.27001953125
 10
-8080.482421875
 20
-14835.47705078125
 10
-8047.966796875
 20
-14835.5400390625
 10
-8015.451171875
 20
-14835.4873046875
 10
-7982.939453125
 20
-14835.3291015625
 10
-7960.306640625
 20
-14835.1630859375
 10
-7937.677734375
 20
-14834.955078125
 10
-7911.537109375
 20
-14834.6669921875
 10
-7885.396484375
 20
-14834.3330078125
 10
-7836.630859375
 20
-14833.6083984375
 10
-7790.189453125
 20
-14832.81982421875
 10
-7743.748046875
 20
-14831.95849609375
 10
-7693.095703125
 20
-14830.96044921875
 10
-7591.791015625
 20
-14828.884765625
 10
-7469.470703125
 20
-14826.4365234375
 10
-7408.310546875
 20
-14825.26318359375
 10
-7347.150390625
 20
-14824.1298828125
 10
-7259.974609375
 20
-14822.5712890625
 10
-7172.802734375
 20
-14820.98486328125
 10
-7112.060546875
 20
-14819.79345703125
 10
-7081.693359375
 20
-14819.1455078125
 10
-7040.634765625
 20
-14818.19091796875
 10
-6999.576171875
 20
-14817.123046875
 10
-6977.513671875
 20
-14816.4931640625
 10
-6955.451171875
 20
-14815.8173828125
 10
-6934.509765625
 20
-14815.1279296875
 10
-6913.564453125
 20
-14814.38671875
 10
-6884.904296875
 20
-14813.27880859375
 10
-6856.244140625
 20
-14812.05126953125
 10
-6827.591796875
 20
-14810.69140625
 10
-6813.333984375
 20
-14809.9609375
 10
-6799.076171875
 20
-14809.19189453125
 10
-6780.068359375
 20
-14808.103515625
 10
-6761.064453125
 20
-14806.93798828125
 10
-6742.068359375
 20
-14805.6904296875
 10
-6720.701171875
 20
-14804.181640625
 10
-6699.345703125
 20
-14802.55517578125
 10
-6677.998046875
 20
-14800.802734375
 10
-6656.658203125
 20
-14798.91748046875
 10
-6635.482421875
 20
-14796.9072265625
 10
-6614.322265625
 20
-14794.75341796875
 10
-6593.173828125
 20
-14792.44970703125
 10
-6582.603515625
 20
-14791.24072265625
 10
-6572.041015625
 20
-14789.99169921875
 10
-6557.962890625
 20
-14788.26416015625
 10
-6543.896484375
 20
-14786.4638671875
 10
-6529.837890625
 20
-14784.5888671875
 10
-6511.404296875
 20
-14782.01171875
 10
-6492.986328125
 20
-14779.30029296875
 10
-6474.591796875
 20
-14776.4501953125
 10
-6456.216796875
 20
-14773.45751953125
 10
-6437.869140625
 20
-14770.31884765625
 10
-6419.541015625
 20
-14767.03076171875
 10
-6401.244140625
 20
-14763.58935546875
 10
-6392.107421875
 20
-14761.81005859375
 10
-6382.974609375
 20
-14759.99072265625
  0
LWPOLYLINE
  5
B5
100
AcDbEntity
  8
0
  6
ByLayer
 62
    7
370
   -1
100
AcDbPolyline
 90
   23
 70
    0
 43
0
 10
-9766.548828125
 20
-14377.8017578125
 10
-9741.423828125
 20
-14383.17822265625
 10
-9716.279296875
 20
-14388.47265625
 10
-9691.115234375
 20
-14393.67431640625
 10
-9665.951171875
 20
-14398.76953125
 10
-9640.763671875
 20
-14403.7509765625
 10
-9615.552734375
 20
-14408.60791015625
 10
-9590.365234375
 20
-14413.3193359375
 10
-9565.154296875
 20
-14417.88525390625
 10
-9552.537109375
 20
-14420.11083984375
 10
-9539.912109375
 20
-14422.29541015625
 10
-9520.978515625
 20
-14425.49169921875
 10
-9502.033203125
 20
-14428.58984375
 10
-9483.068359375
 20
-14431.58544921875
 10
-9464.087890625
 20
-14434.4736328125
 10
-9445.119140625
 20
-14437.24560546875
 10
-9426.138671875
 20
-14439.90283203125
 10
-9407.138671875
 20
-14442.4404296875
 10
-9388.123046875
 20
-14444.85498046875
 10
-9369.107421875
 20
-14447.1416015625
 10
-9350.076171875
 20
-14449.296875
 10
-9331.029296875
 20
-14451.31787109375
 10
-9311.966796875
 20
-14453.19970703125
  0
LWPOLYLINE
  5
B6
100
AcDbEntity
  8
0
  6
ByLayer
 62
    7
370
   -1
100
AcDbPolyline
 90
   42
 70
    0
 43
0
 10
1721.970703125
 20
-9866.084716796877
 10
1684.103515625
 20
-9871.121093750002
 10
1646.224609375
 20
-9876.060302734377
 10
1608.333984375
 20
-9880.900878906252
 10
1570.263671875
 20
-9885.662597656252
 10
1532.177734375
 20
-9890.324096679689
 10
1494.083984375
 20
-9894.886230468752
 10
1455.880859375
 20
-9899.360839843752
 10
1417.666015625
 20
-9903.737548828127
 10
1379.439453125
 20
-9908.017578125002
 10
1341.150390625
 20
-9912.208007812502
 10
1302.853515625
 20
-9916.304687500002
 10
1264.544921875
 20
-9920.309082031252
 10
1226.208984375
 20
-9924.224853515627
 10
1187.861328125
 20
-9928.051513671877
 10
1149.509765625
 20
-9931.791015625002
 10
1111.146484375
 20
-9935.445068359377
 10
1072.775390625
 20
-9939.014892578127
 10
1034.396484375
 20
-9942.502685546877
 10
996.017578125
 20
-9945.908935546877
 10
957.634765625
 20
-9949.236328125002
 10
919.248046875
 20
-9952.486572265627
 10
890.548828125
 20
-9954.866455078127
 10
861.845703125
 20
-9957.204833984377
 10
832.970703125
 20
-9959.516113281252
 10
804.091796875
 20
-9961.786621093752
 10
747.658203125
 20
-9966.108398437502
 10
691.212890625
 20
-9970.283203125002
 10
634.783203125
 20
-9974.314697265627
 10
578.345703125
 20
-9978.209472656252
 10
521.919921875
 20
-9981.971679687502
 10
465.482421875
 20
-9985.607666015627
 10
409.056640625
 20
-9989.121093750002
 10
352.623046875
 20
-9992.517578125002
 10
296.189453125
 20
-9995.800292968752
 10
239.751953125
 20
-9998.973876953127
 10
183.310546875
 20
-10002.04150390625
 10
126.865234375
 20
-10005.00561523438
 10
70.408203125
 20
-10007.86865234375
 10
13.943359375
 20
-10010.63134765625
 10
-42.541015625
 20
-10013.294921875
 10
-99.029296875
 20
-10015.85815429688
  0
LWPOLYLINE
  5
B7
100
AcDbEntity
  8
0
  6
ByLayer
 62
    7
370
   -1
100
AcDbPolyline
 90
   42
 70
    0
 43
0
 10
1721.970703125
 20
-6266.265869140625
 10
1684.103515625
 20
-6261.2294921875
 10
1646.224609375
 20
-6256.290283203125
 10
1608.333984375
 20
-6251.44970703125
 10
1570.263671875
 20
-6246.68798828125
 10
1532.177734375
 20
-6242.026489257812
 10
1494.083984375
 20
-6237.46435546875
 10
1455.880859375
 20
-6232.98974609375
 10
1417.662109375
 20
-6228.613159179688
 10
1379.435546875
 20
-6224.333129882812
 10
1341.150390625
 20
-6220.142700195312
 10
1302.849609375
 20
-6216.046020507812
 10
1264.544921875
 20
-6212.041625976562
 10
1226.208984375
 20
-6208.125854492188
 10
1187.861328125
 20
-6204.299072265625
 10
1149.509765625
 20
-6200.5595703125
 10
1111.146484375
 20
-6196.905639648438
 10
1072.775390625
 20
-6193.335693359375
 10
1034.396484375
 20
-6189.847900390625
 10
996.017578125
 20
-6186.441650390625
 10
957.634765625
 20
-6183.1142578125
 10
919.248046875
 20
-6179.864135742188
 10
890.548828125
 20
-6177.484130859375
 10
861.845703125
 20
-6175.145751953125
 10
832.970703125
 20
-6172.834594726562
 10
804.087890625
 20
-6170.56396484375
 10
747.658203125
 20
-6166.2421875
 10
691.212890625
 20
-6162.0673828125
 10
634.783203125
 20
-6158.036010742188
 10
578.345703125
 20
-6154.14111328125
 10
521.919921875
 20
-6150.37890625
 10
465.482421875
 20
-6146.742919921875
 10
409.056640625
 20
-6143.2294921875
 10
352.619140625
 20
-6139.833129882812
 10
296.189453125
 20
-6136.55029296875
 10
239.751953125
 20
-6133.376708984375
 10
183.310546875
 20
-6130.309204101562
 10
126.865234375
 20
-6127.345092773438
 10
70.404296875
 20
-6124.482055664062
 10
13.943359375
 20
-6121.719360351562
 10
-42.541015625
 20
-6119.0556640625
 10
-99.029296875
 20
-6116.492553710938
  0
LWPOLYLINE
  5
B8
100
AcDbEntity
  8
0
  6
ByLayer
 62
    7
370
   -1
100
AcDbPolyline
 90
   89
 70
    0
 43
0
 10
4555.876953125
 20
-7256.160949707031
 10
4528.455078125
 20
-7241.391479492188
 10
4500.966796875
 20
-7226.738342285156
 10
4473.423828125
 20
-7212.200256347656
 10
4445.814453125
 20
-7197.77587890625
 10
4417.794921875
 20
-7183.281372070312
 10
4389.716796875
 20
-7168.900207519531
 10
4361.583984375
 20
-7154.630187988281
 10
4333.392578125
 20
-7140.469360351562
 10
4305.009765625
 20
-7126.345275878906
 10
4276.572265625
 20
-7112.326904296875
 10
4248.083984375
 20
-7098.411804199219
 10
4219.548828125
 20
-7084.597534179688
 10
4190.927734375
 20
-7070.864318847656
 10
4162.259765625
 20
-7057.227600097656
 10
4133.548828125
 20
-7043.685119628906
 10
4104.794921875
 20
-7030.234741210938
 10
4076.068359375
 20
-7016.907592773438
 10
4047.302734375
 20
-7003.668212890625
 10
4018.498046875
 20
-6990.514770507812
 10
3989.658203125
 20
-6977.445678710938
 10
3970.439453125
 20
-6968.792358398438
 10
3951.201171875
 20
-6960.17529296875
 10
3912.681640625
 20
-6943.048583984375
 10
3874.099609375
 20
-6926.062744140625
 10
3835.525390625
 20
-6909.244384765625
 10
3796.888671875
 20
-6892.562255859375
 10
3758.197265625
 20
-6876.015258789062
 10
3719.513671875
 20
-6859.63037109375
 10
3680.775390625
 20
-6843.378295898438
 10
3641.982421875
 20
-6827.259155273438
 10
3603.333984375
 20
-6811.35595703125
 10
3564.634765625
 20
-6795.584716796875
 10
3525.880859375
 20
-6779.946411132812
 10
3487.119140625
 20
-6764.460205078125
 10
3448.306640625
 20
-6749.109008789062
 10
3409.435546875
 20
-6733.894653320312
 10
3370.548828125
 20
-6718.831909179688
 10
3331.603515625
 20
-6703.909790039062
 10
3292.607421875
 20
-6689.130737304688
 10
3253.572265625
 20
-6674.504516601562
 10
3233.939453125
 20
-6667.211547851562
 10
3214.291015625
 20
-6659.956420898438
 10
3194.822265625
 20
-6652.809448242188
 10
3175.337890625
 20
-6645.700439453125
 10
3145.943359375
 20
-6635.058227539062
 10
3116.521484375
 20
-6624.50439453125
 10
3087.064453125
 20
-6614.04052734375
 10
3057.576171875
 20
-6603.668090820312
 10
3028.044921875
 20
-6593.385864257812
 10
2998.482421875
 20
-6583.1982421875
 10
2968.888671875
 20
-6573.10693359375
 10
2939.259765625
 20
-6563.11376953125
 10
2909.580078125
 20
-6553.2138671875
 10
2879.865234375
 20
-6543.41552734375
 10
2850.115234375
 20
-6533.720703125
 10
2820.333984375
 20
-6524.130981445312
 10
2790.486328125
 20
-6514.639404296875
 10
2760.607421875
 20
-6505.2568359375
 10
2730.693359375
 20
-6495.985229492188
 10
2700.744140625
 20
-6486.82666015625
 10
2670.712890625
 20
-6477.769165039062
 10
2640.646484375
 20
-6468.828857421875
 10
2610.548828125
 20
-6460.0078125
 10
2580.412109375
 20
-6451.30810546875
 10
2550.197265625
 20
-6442.719604492188
 10
2519.947265625
 20
-6434.256958007812
 10
2489.662109375
 20
-6425.922241210938
 10
2459.341796875
 20
-6417.717651367188
 10
2428.939453125
 20
-6409.633056640625
 10
2398.501953125
 20
-6401.683471679688
 10
2368.029296875
 20
-6393.871337890625
 10
2337.521484375
 20
-6386.198852539062
 10
2306.923828125
 20
-6378.655395507812
 10
2276.287109375
 20
-6371.257080078125
 10
2245.619140625
 20
-6364.0068359375
 10
2214.916015625
 20
-6356.907104492188
 10
2199.419921875
 20
-6353.384887695312
 10
2183.912109375
 20
-6349.902099609375
 10
2168.583984375
 20
-6346.500122070312
 10
2153.248046875
 20
-6343.137329101562
 10
2132.662109375
 20
-6338.688720703125
 10
2112.056640625
 20
-6334.312255859375
 10
2091.439453125
 20
-6330.008911132812
 10
2066.634765625
 20
-6324.933837890625
 10
2041.806640625
 20
-6319.967529296875
 10
2016.955078125
 20
-6315.112182617188
 10
1992.080078125
 20
-6310.369506835938
 10
1967.189453125
 20
-6305.741455078125
  0
LWPOLYLINE
  5
B9
100
AcDbEntity
  8
0
  6
ByLayer
 62
    7
370
   -1
100
AcDbPolyline
 90
   89
 70
    0
 43
0
 10
4555.876953125
 20
-8876.189636230469
 10
4528.455078125
 20
-8890.958862304688
 10
4500.970703125
 20
-8905.61181640625
 10
4473.423828125
 20
-8920.149658203125
 10
4445.818359375
 20
-8934.57373046875
 10
4417.798828125
 20
-8949.067993164062
 10
4389.720703125
 20
-8963.448974609375
 10
4361.587890625
 20
-8977.71875
 10
4333.400390625
 20
-8991.87939453125
 10
4305.013671875
 20
-9006.003295898438
 10
4276.576171875
 20
-9020.021362304688
 10
4248.091796875
 20
-9033.936279296875
 10
4219.552734375
 20
-9047.750366210938
 10
4190.931640625
 20
-9061.4833984375
 10
4162.267578125
 20
-9075.119873046875
 10
4133.556640625
 20
-9088.662109375
 10
4104.802734375
 20
-9102.1123046875
 10
4076.076171875
 20
-9115.439208984375
 10
4047.314453125
 20
-9128.678466796875
 10
4018.509765625
 20
-9141.831665039062
 10
3989.666015625
 20
-9154.900634765625
 10
3970.447265625
 20
-9163.553833007812
 10
3951.212890625
 20
-9172.170776367188
 10
3912.693359375
 20
-9189.297241210938
 10
3874.111328125
 20
-9206.28271484375
 10
3835.537109375
 20
-9223.100952148438
 10
3796.904296875
 20
-9239.78271484375
 10
3758.212890625
 20
-9256.32958984375
 10
3719.529296875
 20
-9272.714233398438
 10
3680.791015625
 20
-9288.966064453125
 10
3641.998046875
 20
-9305.085083007812
 10
3603.353515625
 20
-9320.988037109375
 10
3564.654296875
 20
-9336.759033203125
 10
3525.900390625
 20
-9352.397216796875
 10
3487.138671875
 20
-9367.883178710938
 10
3448.322265625
 20
-9383.234130859375
 10
3409.455078125
 20
-9398.448364257812
 10
3370.568359375
 20
-9413.510986328125
 10
3331.623046875
 20
-9428.432861328127
 10
3292.626953125
 20
-9443.211791992189
 10
3253.595703125
 20
-9457.837890625002
 10
3233.962890625
 20
-9465.130859375002
 10
3214.314453125
 20
-9472.386108398439
 10
3194.845703125
 20
-9479.532836914064
 10
3175.361328125
 20
-9486.641601562502
 10
3145.970703125
 20
-9497.283691406252
 10
3116.544921875
 20
-9507.837402343752
 10
3087.087890625
 20
-9518.301269531252
 10
3057.599609375
 20
-9528.673583984377
 10
3028.072265625
 20
-9538.955810546877
 10
2998.509765625
 20
-9549.143310546877
 10
2968.916015625
 20
-9559.234375000002
 10
2939.287109375
 20
-9569.227661132814
 10
2909.607421875
 20
-9579.127441406252
 10
2879.892578125
 20
-9588.925659179689
 10
2850.146484375
 20
-9598.620361328127
 10
2820.361328125
 20
-9608.210083007814
 10
2790.517578125
 20
-9617.701660156252
 10
2760.638671875
 20
-9627.084106445314
 10
2730.724609375
 20
-9636.355590820314
 10
2700.775390625
 20
-9645.514160156252
 10
2670.748046875
 20
-9654.571655273439
 10
2640.681640625
 20
-9663.511962890627
 10
2610.580078125
 20
-9672.333007812502
 10
2580.447265625
 20
-9681.032714843752
 10
2550.232421875
 20
-9689.621215820314
 10
2519.982421875
 20
-9698.083862304689
 10
2489.701171875
 20
-9706.418579101564
 10
2459.380859375
 20
-9714.623168945314
 10
2428.978515625
 20
-9722.707763671877
 10
2398.541015625
 20
-9730.657348632814
 10
2368.068359375
 20
-9738.469604492189
 10
2337.560546875
 20
-9746.142089843752
 10
2306.962890625
 20
-9753.685668945314
 10
2276.330078125
 20
-9761.083984375002
 10
2245.662109375
 20
-9768.334350585939
 10
2214.958984375
 20
-9775.434082031252
 10
2199.458984375
 20
-9778.956420898439
 10
2183.955078125
 20
-9782.439453125002
 10
2168.626953125
 20
-9785.841430664064
 10
2153.291015625
 20
-9789.204101562502
 10
2132.705078125
 20
-9793.652832031252
 10
2112.099609375
 20
-9798.029296875002
 10
2091.482421875
 20
-9802.332641601564
 10
2066.677734375
 20
-9807.407958984377
 10
2041.849609375
 20
-9812.374267578127
 10
2016.998046875
 20
-9817.229858398439
 10
1992.126953125
 20
-9821.972656250002
 10
1967.232421875
 20
-9826.600830078127
  0
LWPOLYLINE
  5
BA
100
AcDbEntity
  8
0
  6
ByLayer
 62
    7
370
   -1
100
AcDbPolyline
 90
  107
 70
    0
 43
0
 10
4555.876953125
 20
-8876.186706542969
 10
4576.216796875
 20
-8865.162963867188
 10
4596.529296875
 20
-8854.0947265625
 10
4612.541015625
 20
-8845.322082519531
 10
4628.529296875
 20
-8836.51123046875
 10
4652.650390625
 20
-8823.111450195312
 10
4676.708984375
 20
-8809.597534179688
 10
4688.708984375
 20
-8802.792785644531
 10
4700.693359375
 20
-8795.953491210938
 10
4721.388671875
 20
-8784.02490234375
 10
4742.009765625
 20
-8771.974365234375
 10
4752.294921875
 20
-8765.899475097656
 10
4762.556640625
 20
-8759.789367675781
 10
4778.931640625
 20
-8749.936218261719
 10
4795.244140625
 20
-8739.982727050781
 10
4811.490234375
 20
-8729.922546386719
 10
4827.669921875
 20
-8719.749328613281
 10
4843.771484375
 20
-8709.456665039062
 10
4859.384765625
 20
-8699.307312011719
 10
4867.162109375
 20
-8694.185729980469
 10
4874.916015625
 20
-8689.031677246094
 10
4882.650390625
 20
-8683.844360351562
 10
4890.361328125
 20
-8678.622863769531
 10
4898.044921875
 20
-8673.366394042969
 10
4905.708984375
 20
-8668.074035644531
 10
4918.419921875
 20
-8659.17138671875
 10
4931.056640625
 20
-8650.162719726562
 10
4943.611328125
 20
-8641.044067382812
 10
4956.083984375
 20
-8631.811462402344
 10
4968.470703125
 20
-8622.460815429688
 10
4980.767578125
 20
-8612.988220214844
 10
4992.662109375
 20
-8603.631958007812
 10
4998.576171875
 20
-8598.90771484375
 10
5004.462890625
 20
-8594.152099609375
 10
5013.244140625
 20
-8586.958740234375
 10
5021.962890625
 20
-8579.692077636719
 10
5030.623046875
 20
-8572.350463867188
 10
5039.216796875
 20
-8564.932250976562
 10
5048.951171875
 20
-8556.358459472656
 10
5058.595703125
 20
-8547.679992675781
 10
5068.138671875
 20
-8538.894470214844
 10
5077.587890625
 20
-8529.99951171875
 10
5086.927734375
 20
-8520.992553710938
 10
5091.587890625
 20
-8516.413635253906
 10
5096.224609375
 20
-8511.805358886719
 10
5100.763671875
 20
-8507.233825683594
 10
5105.279296875
 20
-8502.633178710938
 10
5109.673828125
 20
-8498.096069335938
 10
5114.041015625
 20
-8493.530639648438
 10
5119.814453125
 20
-8487.399169921875
 10
5125.537109375
 20
-8481.216796875
 10
5131.205078125
 20
-8474.983276367188
 10
5137.513671875
 20
-8467.9091796875
 10
5143.748046875
 20
-8460.769653320312
 10
5149.908203125
 20
-8453.564270019531
 10
5155.982421875
 20
-8446.292724609375
 10
5162.970703125
 20
-8437.725036621094
 10
5169.841796875
 20
-8429.066101074219
 10
5176.595703125
 20
-8420.315307617188
 10
5183.224609375
 20
-8411.472045898438
 10
5186.517578125
 20
-8406.981750488281
 10
5189.775390625
 20
-8402.4677734375
 10
5192.955078125
 20
-8397.998229980469
 10
5196.099609375
 20
-8393.505615234375
 10
5200.271484375
 20
-8387.433227539062
 10
5204.380859375
 20
-8381.318725585938
 10
5208.431640625
 20
-8375.161926269531
 10
5213.837890625
 20
-8366.718200683594
 10
5219.123046875
 20
-8358.197143554688
 10
5224.283203125
 20
-8349.600036621094
 10
5229.314453125
 20
-8340.928131103516
 10
5234.216796875
 20
-8332.182708740234
 10
5238.982421875
 20
-8323.365051269531
 10
5243.611328125
 20
-8314.476379394531
 10
5245.873046875
 20
-8310.005828857422
 10
5248.099609375
 20
-8305.518005371094
 10
5251.369140625
 20
-8298.754211425781
 10
5254.556640625
 20
-8291.952453613281
 10
5257.662109375
 20
-8285.113250732422
 10
5260.677734375
 20
-8278.237152099609
 10
5264.087890625
 20
-8270.172454833984
 10
5267.376953125
 20
-8262.058441162109
 10
5270.541015625
 20
-8253.895233154297
 10
5273.583984375
 20
-8245.682983398438
 10
5276.498046875
 20
-8237.421844482422
 10
5279.283203125
 20
-8229.111968994141
 10
5281.962890625
 20
-8220.682891845703
 10
5284.505859375
 20
-8212.207397460938
 10
5286.916015625
 20
-8203.688385009766
 10
5289.185546875
 20
-8195.128875732422
 10
5291.322265625
 20
-8186.531860351562
 10
5293.314453125
 20
-8177.900299072266
 10
5295.169921875
 20
-8169.237152099609
 10
5296.880859375
 20
-8160.545440673828
 10
5298.451171875
 20
-8151.828125
 10
5299.876953125
 20
-8143.088195800781
 10
5301.158203125
 20
-8134.32861328125
 10
5302.291015625
 20
-8125.552368164062
 10
5303.271484375
 20
-8116.762451171875
 10
5304.107421875
 20
-8107.961822509766
 10
5304.791015625
 20
-8099.153472900391
 10
5305.240234375
 20
-8091.886154174805
 10
5305.587890625
 20
-8084.614608764648
 10
5305.818359375
 20
-8078.021850585938
 10
5305.919921875
 20
-8073.623016357422
 10
5305.982421875
 20
-8068.30419921875
 10
5305.970703125
 20
-8066.17529296875
  0
LWPOLYLINE
  5
BB
100
AcDbEntity
  8
0
  6
ByLayer
 62
    7
370
   -1
100
AcDbPolyline
 90
  107
 70
    0
 43
0
 10
4555.876953125
 20
-7256.163879394531
 10
4576.216796875
 20
-7267.187622070312
 10
4596.529296875
 20
-7278.255859375
 10
4612.541015625
 20
-7287.028503417969
 10
4628.529296875
 20
-7295.83935546875
 10
4652.650390625
 20
-7309.239135742188
 10
4676.708984375
 20
-7322.753051757812
 10
4688.708984375
 20
-7329.557800292969
 10
4700.693359375
 20
-7336.397094726562
 10
4721.384765625
 20
-7348.32568359375
 10
4742.009765625
 20
-7360.376220703125
 10
4752.294921875
 20
-7366.451110839844
 10
4762.556640625
 20
-7372.561218261719
 10
4778.931640625
 20
-7382.414367675781
 10
4795.244140625
 20
-7392.367858886719
 10
4811.490234375
 20
-7402.428039550781
 10
4827.669921875
 20
-7412.601257324219
 10
4843.771484375
 20
-7422.893920898438
 10
4859.384765625
 20
-7433.043273925781
 10
4867.162109375
 20
-7438.164855957031
 10
4874.916015625
 20
-7443.318908691406
 10
4882.650390625
 20
-7448.506225585938
 10
4890.361328125
 20
-7453.727722167969
 10
4898.044921875
 20
-7458.984191894531
 10
4905.708984375
 20
-7464.276550292969
 10
4918.419921875
 20
-7473.17919921875
 10
4931.052734375
 20
-7482.187866210938
 10
4943.611328125
 20
-7491.306518554688
 10
4956.083984375
 20
-7500.539123535156
 10
4968.470703125
 20
-7509.889770507812
 10
4980.767578125
 20
-7519.362365722656
 10
4992.662109375
 20
-7528.718627929688
 10
4998.572265625
 20
-7533.44287109375
 10
5004.458984375
 20
-7538.198486328125
 10
5013.244140625
 20
-7545.391845703125
 10
5021.962890625
 20
-7552.658508300781
 10
5030.623046875
 20
-7560.000122070312
 10
5039.212890625
 20
-7567.418334960938
 10
5048.951171875
 20
-7575.992156982422
 10
5058.595703125
 20
-7584.670593261719
 10
5068.138671875
 20
-7593.456115722656
 10
5077.583984375
 20
-7602.351104736328
 10
5086.927734375
 20
-7611.358032226562
 10
5091.587890625
 20
-7615.936981201172
 10
5096.224609375
 20
-7620.545257568359
 10
5100.763671875
 20
-7625.116790771484
 10
5105.279296875
 20
-7629.717437744141
 10
5109.673828125
 20
-7634.254516601562
 10
5114.037109375
 20
-7638.819946289062
 10
5119.814453125
 20
-7644.951446533203
 10
5125.537109375
 20
-7651.133819580078
 10
5131.205078125
 20
-7657.367309570312
 10
5137.513671875
 20
-7664.44140625
 10
5143.748046875
 20
-7671.580963134766
 10
5149.904296875
 20
-7678.786315917969
 10
5155.982421875
 20
-7686.057891845703
 10
5162.970703125
 20
-7694.625549316406
 10
5169.841796875
 20
-7703.284484863281
 10
5176.595703125
 20
-7712.035278320312
 10
5183.224609375
 20
-7720.878570556641
 10
5186.517578125
 20
-7725.368865966797
 10
5189.775390625
 20
-7729.882843017578
 10
5192.951171875
 20
-7734.352355957031
 10
5196.099609375
 20
-7738.845001220703
 10
5200.271484375
 20
-7744.917388916016
 10
5204.380859375
 20
-7751.031890869141
 10
5208.431640625
 20
-7757.188690185547
 10
5213.837890625
 20
-7765.632415771484
 10
5219.123046875
 20
-7774.153442382812
 10
5224.283203125
 20
-7782.750549316406
 10
5229.314453125
 20
-7791.422454833984
 10
5234.216796875
 20
-7800.167877197266
 10
5238.982421875
 20
-7808.985534667969
 10
5243.611328125
 20
-7817.874206542969
 10
5245.873046875
 20
-7822.344757080078
 10
5248.099609375
 20
-7826.832595825195
 10
5251.369140625
 20
-7833.596374511719
 10
5254.556640625
 20
-7840.398132324219
 10
5257.662109375
 20
-7847.237335205078
 10
5260.677734375
 20
-7854.113433837891
 10
5264.087890625
 20
-7862.178131103516
 10
5267.376953125
 20
-7870.29216003418
 10
5270.541015625
 20
-7878.455352783203
 10
5273.583984375
 20
-7886.667602539062
 10
5276.498046875
 20
-7894.928741455078
 10
5279.283203125
 20
-7903.238632202148
 10
5281.962890625
 20
-7911.667694091797
 10
5284.505859375
 20
-7920.143203735352
 10
5286.912109375
 20
-7928.662200927734
 10
5289.185546875
 20
-7937.221710205078
 10
5291.318359375
 20
-7945.818733215332
 10
5293.314453125
 20
-7954.450302124023
 10
5295.169921875
 20
-7963.113433837891
 10
5296.880859375
 20
-7971.805145263672
 10
5298.451171875
 20
-7980.5224609375
 10
5299.876953125
 20
-7989.262405395508
 10
5301.158203125
 20
-7998.021987915039
 10
5302.287109375
 20
-8006.798217773438
 10
5303.271484375
 20
-8015.588150024414
 10
5304.107421875
 20
-8024.388778686523
 10
5304.791015625
 20
-8033.197113037109
 10
5305.240234375
 20
-8040.464431762695
 10
5305.587890625
 20
-8047.735977172852
 10
5305.818359375
 20
-8054.328750610352
 10
5305.919921875
 20
-8058.727569580078
 10
5305.982421875
 20
-8064.04638671875
 10
5305.970703125
 20
-8066.17529296875
  0
LWPOLYLINE
  5
BC
100
AcDbEntity
  8
0
  6
ByLayer
 62
    7
370
   -1
100
AcDbPolyline
 90
   95
 70
    0
 43
0
 10
-8981.416015624998
 20
-3267.404296875
 10
-8950.126953124998
 20
-3273.94189453125
 10
-8918.814453124998
 20
-3280.34033203125
 10
-8902.955078124998
 20
-3283.52099609375
 10
-8887.087890624998
 20
-3286.66064453125
 10
-8871.595703124998
 20
-3289.68310546875
 10
-8856.095703124998
 20
-3292.6630859375
 10
-8830.970703124998
 20
-3297.39501953125
 10
-8805.826171874998
 20
-3302.00341796875
 10
-8780.654296874998
 20
-3306.48095703125
 10
-8755.462890624998
 20
-3310.8203125
 10
-8730.244140624998
 20
-3315.0146484375
 10
-8705.130859374998
 20
-3319.03662109375
 10
-8679.994140624998
 20
-3322.90869140625
 10
-8654.830078124998
 20
-3326.6298828125
 10
-8629.646484374998
 20
-3330.20166015625
 10
-8604.443359374998
 20
-3333.6240234375
 10
-8579.216796874998
 20
-3336.89697265625
 10
-8553.974609374998
 20
-3340.021484375
 10
-8528.712890624998
 20
-3342.99755859375
 10
-8503.435546874998
 20
-3345.82568359375
 10
-8478.138671874998
 20
-3348.50634765625
 10
-8452.783203124998
 20
-3351.0458984375
 10
-8427.408203124998
 20
-3353.44140625
 10
-8402.025390624998
 20
-3355.69921875
 10
-8376.630859374998
 20
-3357.82275390625
 10
-8351.224609374998
 20
-3359.81689453125
 10
-8330.044921874998
 20
-3361.38330078125
 10
-8308.857421874998
 20
-3362.8662109375
 10
-8287.669921874998
 20
-3364.267578125
 10
-8271.830078124998
 20
-3365.26318359375
 10
-8255.990234374998
 20
-3366.21630859375
 10
-8240.029296874998
 20
-3367.13427734375
 10
-8224.068359374998
 20
-3368.01123046875
 10
-8208.048828124998
 20
-3368.85107421875
 10
-8192.029296874998
 20
-3369.65185546875
 10
-8159.986328124998
 20
-3371.14306640625
 10
-8127.935546874998
 20
-3372.49462890625
 10
-8095.880859374998
 20
-3373.71875
 10
-8074.798828124998
 20
-3374.458984375
 10
-8053.716796874998
 20
-3375.15234375
 10
-8032.048828124998
 20
-3375.818359375
 10
-8010.380859374998
 20
-3376.44091796875
 10
-7967.623046874998
 20
-3377.5556640625
 10
-7924.607421874998
 20
-3378.54541015625
 10
-7881.591796874998
 20
-3379.42431640625
 10
-7852.916015624998
 20
-3379.95849609375
 10
-7824.236328124998
 20
-3380.458984375
 10
-7785.994140624998
 20
-3381.083984375
 10
-7709.513671874998
 20
-3382.2412109375
 10
-7620.005859374998
 20
-3383.54736328125
 10
-7530.498046874998
 20
-3384.86962890625
 10
-7440.990234374998
 20
-3386.26025390625
 10
-7344.298828124998
 20
-3387.87109375
 10
-7247.607421874998
 20
-3389.51123046875
 10
-7193.384765624998
 20
-3390.396484375
 10
-7166.271484374998
 20
-3390.81298828125
 10
-7125.603515624998
 20
-3391.38671875
 10
-7095.103515624998
 20
-3391.7646484375
 10
-7064.599609374998
 20
-3392.087890625
 10
-7040.541015624998
 20
-3392.29736328125
 10
-7016.482421874998
 20
-3392.45947265625
 10
-6995.115234374998
 20
-3392.55810546875
 10
-6973.748046874998
 20
-3392.60888671875
 10
-6943.462890624998
 20
-3392.587890625
 10
-6913.181640624998
 20
-3392.4453125
 10
-6882.900390624998
 20
-3392.16650390625
 10
-6867.833984374998
 20
-3391.97265625
 10
-6852.767578124998
 20
-3391.73876953125
 10
-6832.681640624998
 20
-3391.3603515625
 10
-6812.595703124998
 20
-3390.90087890625
 10
-6792.513671874998
 20
-3390.35400390625
 10
-6769.923828124998
 20
-3389.62646484375
 10
-6747.337890624998
 20
-3388.77197265625
 10
-6724.755859374998
 20
-3387.78173828125
 10
-6702.181640624998
 20
-3386.6474609375
 10
-6680.189453124998
 20
-3385.3955078125
 10
-6658.208984374998
 20
-3383.9921875
 10
-6647.220703124998
 20
-3383.23193359375
 10
-6636.236328124998
 20
-3382.431640625
 10
-6619.763671874998
 20
-3381.15380859375
 10
-6603.298828124998
 20
-3379.78125
 10
-6586.841796874998
 20
-3378.31103515625
 10
-6570.392578124998
 20
-3376.74072265625
 10
-6551.220703124998
 20
-3374.77880859375
 10
-6532.060546874998
 20
-3372.67236328125
 10
-6512.916015624998
 20
-3370.41796875
 10
-6493.791015624998
 20
-3368.01123046875
 10
-6484.169921874998
 20
-3366.74072265625
 10
-6474.556640624998
 20
-3365.43017578125
 10
-6465.076171874998
 20
-3364.0966796875
 10
-6455.599609374998
 20
-3362.72314453125
 10
-6442.888671874998
 20
-3360.8154296875
 10
-6430.189453124998
 20
-3358.8330078125
 10
-6417.498046874998
 20
-3356.77490234375
  0
LWPOLYLINE
  5
BD
100
AcDbEntity
  8
0
  6
ByLayer
 62
    7
370
   -1
100
AcDbPolyline
 90
   51
 70
    0
 43
0
 10
-7788.994140624998
 20
-1299.552734375
 10
-7726.134765624998
 20
-1300.72705078125
 10
-7684.228515624998
 20
-1301.5546875
 10
-7600.419921874998
 20
-1303.265625
 10
-7506.130859374998
 20
-1305.18701171875
 10
-7426.166015624998
 20
-1306.7392578125
 10
-7372.853515624998
 20
-1307.7353515625
 10
-7266.232421874998
 20
-1309.666015625
 10
-7207.826171874998
 20
-1310.7138671875
 10
-7178.626953124998
 20
-1311.25146484375
 10
-7134.822265624998
 20
-1312.0947265625
 10
-7101.974609374998
 20
-1312.76806640625
 10
-7069.123046874998
 20
-1313.48876953125
 10
-7041.486328124998
 20
-1314.138671875
 10
-7013.853515624998
 20
-1314.8388671875
 10
-6992.603515624998
 20
-1315.41796875
 10
-6971.353515624998
 20
-1316.03759765625
 10
-6938.767578124998
 20
-1317.07666015625
 10
-6906.185546874998
 20
-1318.23828125
 10
-6873.611328124998
 20
-1319.53955078125
 10
-6857.423828124998
 20
-1320.24365234375
 10
-6841.236328124998
 20
-1320.9892578125
 10
-6819.658203124998
 20
-1322.0537109375
 10
-6798.083984374998
 20
-1323.205078125
 10
-6776.513671874998
 20
-1324.451171875
 10
-6752.255859374998
 20
-1325.974609375
 10
-6728.005859374998
 20
-1327.6376953125
 10
-6715.490234374998
 20
-1328.5537109375
 10
-6702.978515624998
 20
-1329.51171875
 10
-6691.251953124998
 20
-1330.4482421875
 10
-6679.533203124998
 20
-1331.42333984375
 10
-6668.056640624998
 20
-1332.4169921875
 10
-6656.583984374998
 20
-1333.44970703125
 10
-6641.294921874998
 20
-1334.8896484375
 10
-6626.009765624998
 20
-1336.40283203125
 10
-6610.732421874998
 20
-1337.99169921875
 10
-6593.552734374998
 20
-1339.87255859375
 10
-6576.388671874998
 20
-1341.8544921875
 10
-6559.232421874998
 20
-1343.94140625
 10
-6542.091796874998
 20
-1346.1357421875
 10
-6522.115234374998
 20
-1348.83544921875
 10
-6512.134765624998
 20
-1350.24365234375
 10
-6502.158203124998
 20
-1351.69140625
 10
-6488.865234374998
 20
-1353.68359375
 10
-6475.587890624998
 20
-1355.74853515625
 10
-6462.318359374998
 20
-1357.8876953125
 10
-6446.412109374998
 20
-1360.5546875
 10
-6430.521484374998
 20
-1363.3330078125
 10
-6414.654296874998
 20
-1366.224609375
 10
-6398.802734374998
 20
-1369.23291015625
 10
-6382.974609374998
 20
-1372.35986328125
  0
LWPOLYLINE
  5
BE
100
AcDbEntity
  8
0
  6
ByLayer
 62
    7
370
   -1
100
AcDbPolyline
 90
   53
 70
    0
 43
0
 10
-9284.330078124998
 20
-1431.69091796875
 10
-9261.845703124998
 20
-1428.09326171875
 10
-9239.380859374998
 20
-1424.37841796875
 10
-9216.927734374998
 20
-1420.5615234375
 10
-9194.494140624998
 20
-1416.65771484375
 10
-9172.072265624998
 20
-1412.681640625
 10
-9142.189453124998
 20
-1407.29541015625
 10
-9122.271484374998
 20
-1403.666015625
 10
-9082.447265624998
 20
-1396.36328125
 10
-9043.048828124998
 20
-1389.14453125
 10
-9023.345703124998
 20
-1385.55517578125
 10
-8993.783203124998
 20
-1380.212890625
 10
-8971.603515624998
 20
-1376.25
 10
-8949.416015624998
 20
-1372.33447265625
 10
-8916.115234374998
 20
-1366.5693359375
 10
-8899.455078124998
 20
-1363.74267578125
 10
-8882.787109374998
 20
-1360.958984375
 10
-8854.439453124998
 20
-1356.33349609375
 10
-8826.068359374998
 20
-1351.85009765625
 10
-8811.873046874998
 20
-1349.6640625
 10
-8797.673828124998
 20
-1347.51611328125
 10
-8774.939453124998
 20
-1344.1630859375
 10
-8752.189453124998
 20
-1340.91552734375
 10
-8729.423828124998
 20
-1337.77783203125
 10
-8706.646484374998
 20
-1334.75390625
 10
-8683.849609374998
 20
-1331.8486328125
 10
-8658.974609374998
 20
-1328.81982421875
 10
-8634.083984374998
 20
-1325.9365234375
 10
-8609.173828124998
 20
-1323.19970703125
 10
-8584.251953124998
 20
-1320.6083984375
 10
-8559.310546874998
 20
-1318.1630859375
 10
-8534.357421874998
 20
-1315.8642578125
 10
-8509.392578124998
 20
-1313.71142578125
 10
-8484.416015624998
 20
-1311.70458984375
 10
-8461.564453124998
 20
-1309.9970703125
 10
-8438.708984374998
 20
-1308.4091796875
 10
-8415.845703124998
 20
-1306.9384765625
 10
-8392.974609374998
 20
-1305.5810546875
 10
-8370.095703124998
 20
-1304.33544921875
 10
-8355.849609374998
 20
-1303.61474609375
 10
-8341.603515624998
 20
-1302.935546875
 10
-8327.240234374998
 20
-1302.2919921875
 10
-8312.876953124998
 20
-1301.68896484375
 10
-8284.259765624998
 20
-1300.6064453125
 10
-8259.068359374998
 20
-1299.7802734375
 10
-8233.876953124998
 20
-1299.06787109375
 10
-8208.681640624998
 20
-1298.46337890625
 10
-8183.482421874998
 20
-1297.96240234375
 10
-8167.291015624998
 20
-1297.69189453125
 10
-8151.095703124998
 20
-1297.4609375
 10
-8133.689453124998
 20
-1297.25390625
 10
-8116.279296874998
 20
-1297.08935546875
 10
-8082.673828124998
 20
-1296.88232421875
  0
LWPOLYLINE
  5
BF
100
AcDbEntity
  8
0
  6
ByLayer
 62
    7
370
   -1
100
AcDbPolyline
 90
   23
 70
    0
 43
0
 10
-9766.552734374998
 20
-1754.548828125
 10
-9741.423828124998
 20
-1749.17236328125
 10
-9716.279296874998
 20
-1743.87841796875
 10
-9691.119140624998
 20
-1738.67626953125
 10
-9665.955078124998
 20
-1733.5810546875
 10
-9640.767578124998
 20
-1728.599609375
 10
-9615.556640624998
 20
-1723.74267578125
 10
-9590.369140624998
 20
-1719.03125
 10
-9565.154296874998
 20
-1714.46533203125
 10
-9552.537109374998
 20
-1712.23974609375
 10
-9539.912109374998
 20
-1710.05517578125
 10
-9520.982421874998
 20
-1706.85888671875
 10
-9502.033203124998
 20
-1703.7607421875
 10
-9483.068359374998
 20
-1700.76513671875
 10
-9464.087890624998
 20
-1697.876953125
 10
-9445.123046874998
 20
-1695.10498046875
 10
-9426.138671874998
 20
-1692.44775390625
 10
-9407.138671874998
 20
-1689.91015625
 10
-9388.126953124998
 20
-1687.49560546875
 10
-9369.107421874998
 20
-1685.208984375
 10
-9350.076171874998
 20
-1683.0537109375
 10
-9331.029296874998
 20
-1681.03271484375
 10
-9311.970703124998
 20
-1679.15087890625
  0
LWPOLYLINE
  5
C0
100
AcDbEntity
  8
0
  6
ByLayer
 62
    7
370
   -1
100
AcDbPolyline
 90
  102
 70
    0
 43
0
 10
-6417.509765624998
 20
-3356.7763671875
 10
-6406.470703124998
 20
-3354.984375
 10
-6395.443359374998
 20
-3353.095703125
 10
-6384.435546874998
 20
-3351.1162109375
 10
-6376.193359374998
 20
-3349.578125
 10
-6359.720703124998
 20
-3346.42138671875
 10
-6335.919921874998
 20
-3341.796875
 10
-6324.142578124998
 20
-3339.45703125
 10
-6318.259765624998
 20
-3338.2626953125
 10
-6309.443359374998
 20
-3336.4287109375
 10
-6299.455078124998
 20
-3334.2705078125
 10
-6289.490234374998
 20
-3332.0146484375
 10
-6279.552734374998
 20
-3329.6455078125
 10
-6274.169921874998
 20
-3328.306640625
 10
-6268.798828124998
 20
-3326.927734375
 10
-6261.654296874998
 20
-3325.02099609375
 10
-6254.529296874998
 20
-3323.03125
 10
-6247.431640624998
 20
-3320.95166015625
 10
-6239.349609374998
 20
-3318.4541015625
 10
-6235.322265624998
 20
-3317.1533203125
 10
-6231.306640624998
 20
-3315.8154296875
 10
-6225.978515624998
 20
-3313.9697265625
 10
-6220.673828124998
 20
-3312.0498046875
 10
-6215.400390624998
 20
-3310.05126953125
 10
-6209.443359374998
 20
-3307.67724609375
 10
-6203.541015624998
 20
-3305.18212890625
 10
-6200.607421874998
 20
-3303.884765625
 10
-6197.693359374998
 20
-3302.55224609375
 10
-6193.833984374998
 20
-3300.71826171875
 10
-6190.005859374998
 20
-3298.81396484375
 10
-6186.212890624998
 20
-3296.83642578125
 10
-6183.650390624998
 20
-3295.4453125
 10
-6181.111328124998
 20
-3294.015625
 10
-6178.712890624998
 20
-3292.61376953125
 10
-6176.337890624998
 20
-3291.17236328125
 10
-6172.744140624998
 20
-3288.87158203125
 10
-6169.224609374998
 20
-3286.46142578125
 10
-6165.787109374998
 20
-3283.931640625
 10
-6164.103515624998
 20
-3282.61962890625
 10
-6162.443359374998
 20
-3281.27392578125
 10
-6160.869140624998
 20
-3279.94384765625
 10
-6159.322265624998
 20
-3278.5810546875
 10
-6157.943359374998
 20
-3277.3173828125
 10
-6156.595703124998
 20
-3276.02587890625
 10
-6154.525390624998
 20
-3273.9296875
 10
-6152.533203124998
 20
-3271.7607421875
 10
-6150.634765624998
 20
-3269.515625
 10
-6148.830078124998
 20
-3267.193359375
 10
-6147.080078124998
 20
-3264.7177734375
 10
-6145.447265624998
 20
-3262.16748046875
 10
-6144.615234374998
 20
-3260.75732421875
 10
-6143.818359374998
 20
-3259.32861328125
 10
-6142.322265624998
 20
-3256.41943359375
 10
-6140.955078124998
 20
-3253.447265625
 10
-6139.701171874998
 20
-3250.41748046875
 10
-6138.556640624998
 20
-3247.33740234375
 10
-6137.892578124998
 20
-3245.38916015625
 10
-6137.259765624998
 20
-3243.42529296875
 10
-6136.095703124998
 20
-3239.45654296875
 10
-6135.130859374998
 20
-3235.78857421875
 10
-6134.244140624998
 20
-3232.0927734375
 10
-6133.587890624998
 20
-3229.154296875
 10
-6132.369140624998
 20
-3223.2626953125
 10
-6131.443359374998
 20
-3218.48193359375
 10
-6130.564453124998
 20
-3213.7080078125
 10
-6129.685546874998
 20
-3208.689453125
 10
-6128.853515624998
 20
-3203.67529296875
 10
-6127.337890624998
 20
-3193.90234375
 10
-6126.423828124998
 20
-3187.53271484375
 10
-6125.556640624998
 20
-3181.1591796875
 10
-6124.490234374998
 20
-3172.85546875
 10
-6123.474609374998
 20
-3164.53369140625
 10
-6122.693359374998
 20
-3157.8740234375
 10
-6120.837890624998
 20
-3141.1181640625
 10
-6119.119140624998
 20
-3124.349609375
 10
-6117.521484374998
 20
-3107.56982421875
 10
-6116.541015624998
 20
-3096.68798828125
 10
-6115.603515624998
 20
-3085.80224609375
 10
-6114.423828124998
 20
-3071.49365234375
 10
-6113.291015624998
 20
-3057.18115234375
 10
-6111.576171874998
 20
-3034.3828125
 10
-6109.951171874998
 20
-3011.5771484375
 10
-6108.416015624998
 20
-2988.765625
 10
-6107.314453124998
 20
-2971.65380859375
 10
-6106.255859374998
 20
-2954.53857421875
 10
-6104.251953124998
 20
-2920.30224609375
 10
-6102.705078124998
 20
-2892.15283203125
 10
-6101.236328124998
 20
-2863.9990234375
 10
-6099.849609374998
 20
-2835.84130859375
 10
-6098.857421874998
 20
-2814.72119140625
 10
-6097.904296874998
 20
-2793.5986328125
 10
-6096.107421874998
 20
-2751.349609375
 10
-6095.173828124998
 20
-2727.97607421875
 10
-6094.275390624998
 20
-2704.60107421875
 10
-6093.392578124998
 20
-2680.421875
 10
-6092.548828124998
 20
-2656.24072265625
 10
-6091.001953124998
 20
-2608.67822265625
 10
-6089.607421874998
 20
-2561.111328125
 10
-6088.345703124998
 20
-2513.35302734375
 10
-6087.224609374998
 20
-2465.591796875
 10
-6086.236328124998
 20
-2417.8271484375
 10
-6085.384765624998
 20
-2370.06005859375
  0
LWPOLYLINE
  5
C1
100
AcDbEntity
  8
0
  6
ByLayer
 62
    7
370
   -1
100
AcDbPolyline
 90
  102
 70
    0
 43
0
 10
-6085.384765624998
 20
-2370.06005859375
 10
-6084.576171874998
 20
-2322.291015625
 10
-6083.896484374998
 20
-2274.5205078125
 10
-6083.353515624998
 20
-2226.748046875
 10
-6082.947265624998
 20
-2178.97412109375
 10
-6082.685546874998
 20
-2131.3876953125
 10
-6082.572265624998
 20
-2083.7998046875
 10
-6082.572265624998
 20
-2059.58642578125
 10
-6082.615234374998
 20
-2035.37255859375
 10
-6082.693359374998
 20
-2011.99853515625
 10
-6082.814453124998
 20
-1988.625
 10
-6083.134765624998
 20
-1946.3388671875
 10
-6083.349609374998
 20
-1925.1962890625
 10
-6083.607421874998
 20
-1904.05419921875
 10
-6084.009765624998
 20
-1875.86572265625
 10
-6084.494140624998
 20
-1847.67822265625
 10
-6085.060546874998
 20
-1819.49169921875
 10
-6085.869140624998
 20
-1785.20654296875
 10
-6086.330078124998
 20
-1768.06494140625
 10
-6086.830078124998
 20
-1750.9248046875
 10
-6087.572265624998
 20
-1728.07373046875
 10
-6088.396484374998
 20
-1705.2255859375
 10
-6089.318359374998
 20
-1682.38134765625
 10
-6089.947265624998
 20
-1668.0322265625
 10
-6090.630859374998
 20
-1653.685546875
 10
-6091.185546874998
 20
-1642.77978515625
 10
-6091.783203124998
 20
-1631.87646484375
 10
-6092.794921874998
 20
-1615.05126953125
 10
-6093.927734374998
 20
-1598.232421875
 10
-6095.201171874998
 20
-1581.421875
 10
-6095.771484374998
 20
-1574.47900390625
 10
-6096.494140624998
 20
-1566.16357421875
 10
-6097.267578124998
 20
-1557.8642578125
 10
-6097.908203124998
 20
-1551.4931640625
 10
-6098.599609374998
 20
-1545.1240234375
 10
-6099.767578124998
 20
-1535.34765625
 10
-6100.423828124998
 20
-1530.30908203125
 10
-6101.126953124998
 20
-1525.26513671875
 10
-6101.833984374998
 20
-1520.5048828125
 10
-6102.587890624998
 20
-1515.736328125
 10
-6103.595703124998
 20
-1509.8046875
 10
-6104.150390624998
 20
-1506.8447265625
 10
-6104.908203124998
 20
-1503.11669921875
 10
-6105.744140624998
 20
-1499.41357421875
 10
-6106.771484374998
 20
-1495.404296875
 10
-6107.333984374998
 20
-1493.4189453125
 10
-6107.931640624998
 20
-1491.44775390625
 10
-6108.970703124998
 20
-1488.32763671875
 10
-6110.115234374998
 20
-1485.2548828125
 10
-6111.380859374998
 20
-1482.2353515625
 10
-6112.775390624998
 20
-1479.2744140625
 10
-6113.521484374998
 20
-1477.818359375
 10
-6114.306640624998
 20
-1476.37939453125
 10
-6115.837890624998
 20
-1473.78759765625
 10
-6117.494140624998
 20
-1471.26611328125
 10
-6119.216796874998
 20
-1468.87841796875
 10
-6121.041015624998
 20
-1466.56494140625
 10
-6122.955078124998
 20
-1464.32373046875
 10
-6124.955078124998
 20
-1462.1533203125
 10
-6126.263671874998
 20
-1460.8115234375
 10
-6127.599609374998
 20
-1459.49658203125
 10
-6129.099609374998
 20
-1458.08056640625
 10
-6130.626953124998
 20
-1456.6962890625
 10
-6132.240234374998
 20
-1455.2939453125
 10
-6133.876953124998
 20
-1453.923828125
 10
-6137.224609374998
 20
-1451.27587890625
 10
-6140.658203124998
 20
-1448.74462890625
 10
-6144.173828124998
 20
-1446.3203125
 10
-6146.494140624998
 20
-1444.796875
 10
-6148.845703124998
 20
-1443.3125
 10
-6151.333984374998
 20
-1441.794921875
 10
-6153.845703124998
 20
-1440.3154296875
 10
-6157.568359374998
 20
-1438.20654296875
 10
-6161.326171874998
 20
-1436.17041015625
 10
-6165.123046874998
 20
-1434.20263671875
 10
-6167.990234374998
 20
-1432.76953125
 10
-6170.876953124998
 20
-1431.37060546875
 10
-6176.689453124998
 20
-1428.67138671875
 10
-6182.560546874998
 20
-1426.09130859375
 10
-6187.763671874998
 20
-1423.90966796875
 10
-6192.998046874998
 20
-1421.80615234375
 10
-6198.263671874998
 20
-1419.77587890625
 10
-6202.228515624998
 20
-1418.298828125
 10
-6206.208984374998
 20
-1416.8583984375
 10
-6214.201171874998
 20
-1414.08056640625
 10
-6221.224609374998
 20
-1411.7548828125
 10
-6228.275390624998
 20
-1409.51806640625
 10
-6235.353515624998
 20
-1407.36376953125
 10
-6240.673828124998
 20
-1405.7978515625
 10
-6246.009765624998
 20
-1404.2724609375
 10
-6255.861328124998
 20
-1401.55859375
 10
-6265.748046874998
 20
-1398.95654296875
 10
-6275.654296874998
 20
-1396.4521484375
 10
-6284.404296874998
 20
-1394.31201171875
 10
-6290.248046874998
 20
-1392.91357421875
 10
-6301.939453124998
 20
-1390.16552734375
 10
-6325.576171874998
 20
-1384.7158203125
 10
-6341.931640624998
 20
-1380.98828125
 10
-6350.123046874998
 20
-1379.16455078125
 10
-6361.056640624998
 20
-1376.8037109375
 10
-6372.009765624998
 20
-1374.53271484375
 10
-6382.986328124998
 20
-1372.35791015625
  0
LINE
  5
C2
100
AcDbEntity
  8
0
  6
ByLayer
 62
    7
370
   -3
100
AcDbLine
 10
-31414.939453125
 20
-14132.9501953125
 11
-30351.525390625
 21
-9497.206298828125
  0
LINE
  5
C3
100
AcDbEntity
  8
0
  6
ByLayer
 62
    7
370
   -3
100
AcDbLine
 10
-30351.490234375
 20
-9497.206176757812
 11
-30199.064453125
 21
-8832.813110351562
  0
LINE
  5
C4
100
AcDbEntity
  8
0
  6
ByLayer
 62
    7
370
   -3
100
AcDbLine
 10
-30351.525390625
 20
-6635.144287109375
 11
-31414.939453125
 21
-1999.400390625
  0
LINE
  5
C5
100
AcDbEntity
  8
0
  6
ByLayer
 62
    7
370
   -3
100
AcDbLine
 10
-30199.064453125
 20
-7299.537475585938
 11
-30351.490234375
 21
-6635.144409179688
  0
LWPOLYLINE
  5
C6
100
AcDbEntity
  8
0
  6
ByLayer
 62
    7
370
   -1
100
AcDbPolyline
 90
   35
 70
    0
 43
0
 10
-30224.916015625
 20
-14224.87890625
 10
-30223.982421875
 20
-14224.390625
 10
-30222.126953125
 20
-14223.38037109375
 10
-30219.419921875
 20
-14221.9296875
 10
-30216.685546875
 20
-14220.43798828125
 10
-30213.927734375
 20
-14218.8955078125
 10
-30208.880859375
 20
-14215.95458984375
 10
-30203.908203125
 20
-14212.9052734375
 10
-30199.009765625
 20
-14209.74755859375
 10
-30194.193359375
 20
-14206.484375
 10
-30189.826171875
 20
-14203.38427734375
 10
-30186.810546875
 20
-14201.1611328125
 10
-30183.830078125
 20
-14198.8955078125
 10
-30180.884765625
 20
-14196.58642578125
 10
-30177.974609375
 20
-14194.23583984375
 10
-30175.099609375
 20
-14191.8427734375
 10
-30172.263671875
 20
-14189.40771484375
 10
-30169.462890625
 20
-14186.931640625
 10
-30166.697265625
 20
-14184.4140625
 10
-30163.505859375
 20
-14181.41650390625
 10
-30160.365234375
 20
-14178.36328125
 10
-30157.275390625
 20
-14175.2548828125
 10
-30154.236328125
 20
-14172.09228515625
 10
-30151.248046875
 20
-14168.8759765625
 10
-30148.310546875
 20
-14165.6064453125
 10
-30145.423828125
 20
-14162.28466796875
 10
-30142.587890625
 20
-14158.9111328125
 10
-30139.857421875
 20
-14155.5478515625
 10
-30137.173828125
 20
-14152.13623046875
 10
-30134.537109375
 20
-14148.671875
 10
-30131.951171875
 20
-14145.15771484375
 10
-30129.416015625
 20
-14141.595703125
 10
-30126.931640625
 20
-14137.99169921875
 10
-30124.494140625
 20
-14134.33203125
 10
-30122.087890625
 20
-14130.59033203125
  0
LWPOLYLINE
  5
C7
100
AcDbEntity
  8
0
  6
ByLayer
 62
    7
370
   -1
100
AcDbPolyline
 90
   47
 70
    0
 43
0
 10
-30773.599609375
 20
-14290.783203125
 10
-30730.384765625
 20
-14290.6865234375
 10
-30687.501953125
 20
-14290.6572265625
 10
-30644.701171875
 20
-14290.7314453125
 10
-30623.248046875
 20
-14290.77001953125
 10
-30601.712890625
 20
-14290.76953125
 10
-30580.056640625
 20
-14290.6865234375
 10
-30569.150390625
 20
-14290.5986328125
 10
-30558.244140625
 20
-14290.47021484375
 10
-30547.240234375
 20
-14290.29248046875
 10
-30536.236328125
 20
-14290.05859375
 10
-30525.123046875
 20
-14289.7568359375
 10
-30514.009765625
 20
-14289.3818359375
 10
-30502.767578125
 20
-14288.9189453125
 10
-30491.529296875
 20
-14288.36279296875
 10
-30480.146484375
 20
-14287.6953125
 10
-30468.767578125
 20
-14286.91455078125
 10
-30457.232421875
 20
-14285.9970703125
 10
-30445.708984375
 20
-14284.94384765625
 10
-30434.013671875
 20
-14283.72607421875
 10
-30428.173828125
 20
-14283.05810546875
 10
-30422.337890625
 20
-14282.349609375
 10
-30414.427734375
 20
-14281.32177734375
 10
-30406.529296875
 20
-14280.2138671875
 10
-30398.642578125
 20
-14279.02392578125
 10
-30390.623046875
 20
-14277.724609375
 10
-30382.615234375
 20
-14276.3349609375
 10
-30374.626953125
 20
-14274.85205078125
 10
-30366.498046875
 20
-14273.2412109375
 10
-30358.388671875
 20
-14271.529296875
 10
-30350.298828125
 20
-14269.71337890625
 10
-30342.064453125
 20
-14267.7490234375
 10
-30333.853515625
 20
-14265.671875
 10
-30325.673828125
 20
-14263.48046875
 10
-30317.341796875
 20
-14261.1181640625
 10
-30309.041015625
 20
-14258.63232421875
 10
-30300.783203125
 20
-14256.021484375
 10
-30292.361328125
 20
-14253.21435546875
 10
-30283.982421875
 20
-14250.27392578125
 10
-30275.654296875
 20
-14247.19775390625
 10
-30267.162109375
 20
-14243.89794921875
 10
-30258.724609375
 20
-14240.45458984375
 10
-30250.345703125
 20
-14236.86572265625
 10
-30243.927734375
 20
-14233.9990234375
 10
-30237.552734375
 20
-14231.04541015625
 10
-30231.212890625
 20
-14228.005859375
 10
-30224.916015625
 20
-14224.87890625
  0
LWPOLYLINE
  5
C8
100
AcDbEntity
  8
0
  6
ByLayer
 62
    7
370
   -1
100
AcDbPolyline
 90
   11
 70
    0
 43
0
 10
-31451.361328125
 20
-14292.4111328125
 10
-31393.751953125
 20
-14292.43212890625
 10
-31336.615234375
 20
-14292.412109375
 10
-31279.826171875
 20
-14292.275390625
 10
-31223.279296875
 20
-14292.0302734375
 10
-31138.748046875
 20
-14291.57763671875
 10
-31082.501953125
 20
-14291.30615234375
 10
-31026.298828125
 20
-14291.10595703125
 10
-30970.126953125
 20
-14290.9853515625
 10
-30885.888671875
 20
-14290.904296875
 10
-30773.599609375
 20
-14290.783203125
  0
LWPOLYLINE
  5
C9
100
AcDbEntity
  8
0
  6
ByLayer
 62
    7
370
   -1
100
AcDbPolyline
 90
   11
 70
    0
 43
0
 10
-31414.939453125
 20
-14132.95068359375
 10
-31429.716796875
 20
-14197.458984375
 10
-31440.806640625
 20
-14245.8642578125
 10
-31445.603515625
 20
-14266.82177734375
 10
-31448.904296875
 20
-14281.27734375
 10
-31450.529296875
 20
-14288.47607421875
 10
-31451.103515625
 20
-14291.09716796875
 10
-31451.337890625
 20
-14292.23291015625
 10
-31451.361328125
 20
-14292.3837890625
 10
-31451.361328125
 20
-14292.40478515625
 10
-31451.361328125
 20
-14292.41015625
  0
LWPOLYLINE
  5
CA
100
AcDbEntity
  8
0
  6
ByLayer
 62
    7
370
   -1
100
AcDbPolyline
 90
   61
 70
    0
 43
0
 10
-27200.572265625
 20
-9499.510864257812
 10
-27197.955078125
 20
-9495.443725585938
 10
-27195.267578125
 20
-9491.42431640625
 10
-27192.525390625
 20
-9487.48193359375
 10
-27189.712890625
 20
-9483.588623046875
 10
-27186.853515625
 20
-9479.768432617188
 10
-27183.923828125
 20
-9475.99853515625
 10
-27180.947265625
 20
-9472.296264648438
 10
-27177.904296875
 20
-9468.644897460938
 10
-27174.810546875
 20
-9465.054565429688
 10
-27171.662109375
 20
-9461.515625
 10
-27168.455078125
 20
-9458.030029296875
 10
-27165.193359375
 20
-9454.595947265625
 10
-27161.869140625
 20
-9451.207397460938
 10
-27158.498046875
 20
-9447.870483398438
 10
-27155.060546875
 20
-9444.570434570312
 10
-27151.572265625
 20
-9441.32177734375
 10
-27148.013671875
 20
-9438.10205078125
 10
-27144.412109375
 20
-9434.933471679688
 10
-27140.728515625
 20
-9431.786254882812
 10
-27137.005859375
 20
-9428.690063476562
 10
-27133.193359375
 20
-9425.607299804688
 10
-27129.337890625
 20
-9422.575439453125
 10
-27125.388671875
 20
-9419.550537109375
 10
-27121.400390625
 20
-9416.576416015625
 10
-27117.306640625
 20
-9413.601806640625
 10
-27113.173828125
 20
-9410.67822265625
 10
-27108.923828125
 20
-9407.748168945312
 10
-27104.638671875
 20
-9404.869262695312
 10
-27100.228515625
 20
-9401.978149414062
 10
-27095.779296875
 20
-9399.138305664062
 10
-27091.193359375
 20
-9396.281127929688
 10
-27086.572265625
 20
-9393.475341796875
 10
-27081.798828125
 20
-9390.6484375
 10
-27076.998046875
 20
-9387.873046875
 10
-27072.029296875
 20
-9385.071411132812
 10
-27067.033203125
 20
-9382.3212890625
 10
-27061.857421875
 20
-9379.541015625
 10
-27056.658203125
 20
-9376.812255859375
 10
-27051.263671875
 20
-9374.0498046875
 10
-27045.845703125
 20
-9371.338500976562
 10
-27040.220703125
 20
-9368.590209960938
 10
-27034.576171875
 20
-9365.892578125
 10
-27028.712890625
 20
-9363.15478515625
 10
-27022.826171875
 20
-9360.466918945312
 10
-27016.716796875
 20
-9357.735961914062
 10
-27010.580078125
 20
-9355.0537109375
 10
-27004.208984375
 20
-9352.325439453125
 10
-26997.818359375
 20
-9349.644409179688
 10
-26991.283203125
 20
-9346.956665039062
 10
-26984.728515625
 20
-9344.312866210938
 10
-26977.923828125
 20
-9341.61865234375
 10
-26971.099609375
 20
-9338.966430664062
 10
-26964.017578125
 20
-9336.260864257812
 10
-26956.923828125
 20
-9333.594848632812
 10
-26949.556640625
 20
-9330.872192382812
 10
-26942.177734375
 20
-9328.186401367188
 10
-26926.853515625
 20
-9322.729125976562
 10
-26910.935546875
 20
-9317.2099609375
 10
-26894.412109375
 20
-9311.615356445312
 10
-26877.259765625
 20
-9305.931640625
  0
LINE
  5
CB
100
AcDbEntity
  8
0
  6
ByLayer
 62
  256
370
   -1
100
AcDbLine
 10
-9284.330078125
 20
-14700.65966796875
 11
-9311.966796875
 21
-14453.19970703125
  0
LINE
  5
CC
100
AcDbEntity
  8
0
  6
ByLayer
 62
  256
370
   -1
100
AcDbLine
 10
-7648.130859374998
 20
-10295.00756835938
 11
-8981.412109375
 21
-12864.9462890625
  0
LWPOLYLINE
  5
CD
100
AcDbEntity
  8
0
  6
ByLayer
 62
    7
370
   -1
100
AcDbPolyline
 90
   85
 70
    0
 43
0
 10
-14921.095703125
 20
-24335.482421875
 10
-14888.94140625
 20
-24278.37109375
 10
-14856.896484375
 20
-24221.19921875
 10
-14824.96484375
 20
-24163.962890625
 10
-14793.15234375
 20
-24106.6611328125
 10
-14761.4609375
 20
-24049.2919921875
 10
-14729.86328125
 20
-23991.798828125
 10
-14698.390625
 20
-23934.236328125
 10
-14667.041015625
 20
-23876.6083984375
 10
-14635.814453125
 20
-23818.9130859375
 10
-14604.70703125
 20
-23761.1533203125
 10
-14573.677734375
 20
-23703.2587890625
 10
-14542.765625
 20
-23645.3037109375
 10
-14511.9609375
 20
-23587.2890625
 10
-14481.263671875
 20
-23529.21875
 10
-14450.66796875
 20
-23471.0947265625
 10
-14431.57421875
 20
-23434.7001953125
 10
-14412.517578125
 20
-23398.28515625
 10
-14393.49609375
 20
-23361.8525390625
 10
-14374.5078125
 20
-23325.40234375
 10
-14336.630859375
 20
-23252.4501953125
 10
-14298.873046875
 20
-23179.435546875
 10
-14265.37890625
 20
-23114.431640625
 10
-14231.962890625
 20
-23049.38671875
 10
-14198.623046875
 20
-22984.3037109375
 10
-14173.66015625
 20
-22935.46875
 10
-14148.734375
 20
-22886.6162109375
 10
-14098.947265625
 20
-22788.8203125
 10
-14049.267578125
 20
-22690.970703125
 10
-13999.671875
 20
-22593.0791015625
 10
-13950.13671875
 20
-22495.140625
 10
-13917.140625
 20
-22429.8349609375
 10
-13851.197265625
 20
-22299.1982421875
 10
-13777.05859375
 20
-22152.2265625
 10
-13702.927734375
 20
-22005.2509765625
 10
-13641.375
 20
-21883.2548828125
 10
-13579.791015625
 20
-21761.2744140625
 10
-13518.1796875
 20
-21639.3359375
 10
-13456.521484375
 20
-21517.4208984375
 10
-13394.8203125
 20
-21395.5478515625
 10
-13333.068359375
 20
-21273.701171875
 10
-13271.265625
 20
-21151.888671875
 10
-13209.41015625
 20
-21030.1025390625
 10
-13143.21875
 20
-20899.9111328125
 10
-13076.9765625
 20
-20769.7451171875
 10
-13010.67578125
 20
-20639.5849609375
 10
-12944.333984375
 20
-20509.4462890625
 10
-12877.939453125
 20
-20379.294921875
 10
-12811.51171875
 20
-20249.1611328125
 10
-12678.529296875
 20
-19988.8515625
 10
-12532.865234375
 20
-19703.9853515625
 10
-12387.033203125
 20
-19419.0498046875
 10
-12314.04296875
 20
-19276.54296875
 10
-12241.01953125
 20
-19134.0537109375
 10
-12167.93359375
 20
-18991.5263671875
 10
-12094.806640625
 20
-18849.01953125
 10
-12021.611328125
 20
-18706.490234375
 10
-11948.3671875
 20
-18563.986328125
 10
-11875.05078125
 20
-18421.4716796875
 10
-11801.677734375
 20
-18278.986328125
 10
-11728.23046875
 20
-18136.5048828125
 10
-11654.72265625
 20
-17994.0556640625
 10
-11581.14453125
 20
-17851.619140625
 10
-11507.50390625
 20
-17709.2138671875
 10
-11396.001953125
 20
-17493.87109375
 10
-11284.369140625
 20
-17278.5888671875
 10
-11172.619140625
 20
-17063.3642578125
 10
-11060.767578125
 20
-16848.1943359375
 10
-10948.826171875
 20
-16633.0791015625
 10
-10836.814453125
 20
-16418.0185546875
 10
-10724.724609375
 20
-16203.021484375
 10
-10612.564453125
 20
-15988.10302734375
 10
-10508.576171875
 20
-15789.08056640625
 10
-10404.474609375
 20
-15590.11865234375
 10
-10351.904296875
 20
-15489.77392578125
 10
-10299.298828125
 20
-15389.44873046875
 10
-10247.658203125
 20
-15291.06396484375
 10
-10195.978515625
 20
-15192.70068359375
 10
-10143.802734375
 20
-15093.49658203125
 10
-10091.587890625
 20
-14994.3134765625
 10
-10039.333984375
 20
-14895.1494140625
 10
-9987.048828125
 20
-14796.001953125
 10
-9869.556640625
 20
-14573.3466796875
 10
-9808.544921875
 20
-14457.6591796875
 10
-9766.548828125
 20
-14377.8017578125
  0
LWPOLYLINE
  5
CE
100
AcDbEntity
  8
0
  6
ByLayer
 62
    7
370
   -1
100
AcDbPolyline
 90
   85
 70
    0
 43
0
 10
-14921.095703125
 20
8203.1318359375
 10
-14888.94140625
 20
8146.0205078125
 10
-14856.896484375
 20
8088.84765625
 10
-14824.96484375
 20
8031.611328125
 10
-14793.15234375
 20
7974.3095703125
 10
-14761.4609375
 20
7916.9404296875
 10
-14729.86328125
 20
7859.447265625
 10
-14698.390625
 20
7801.884765625
 10
-14667.041015625
 20
7744.2568359375
 10
-14635.814453125
 20
7686.5615234375
 10
-14604.70703125
 20
7628.8017578125
 10
-14573.677734375
 20
7570.9072265625
 10
-14542.765625
 20
7512.9521484375
 10
-14511.9609375
 20
7454.9375
 10
-14481.263671875
 20
7396.8671875
 10
-14450.66796875
 20
7338.7431640625
 10
-14431.57421875
 20
7302.3486328125
 10
-14412.517578125
 20
7265.93359375
 10
-14393.49609375
 20
7229.5009765625
 10
-14374.5078125
 20
7193.05078125
 10
-14336.630859375
 20
7120.0986328125
 10
-14298.873046875
 20
7047.083984375
 10
-14265.37890625
 20
6982.080078125
 10
-14231.962890625
 20
6917.03515625
 10
-14198.623046875
 20
6851.9521484375
 10
-14173.66015625
 20
6803.1171875
 10
-14148.734375
 20
6754.2646484375
 10
-14098.947265625
 20
6656.46875
 10
-14049.267578125
 20
6558.619140625
 10
-13999.671875
 20
6460.7275390625
 10
-13950.13671875
 20
6362.7890625
 10
-13917.140625
 20
6297.4833984375
 10
-13851.197265625
 20
6166.8466796875
 10
-13777.05859375
 20
6019.875
 10
-13702.927734375
 20
5872.8994140625
 10
-13641.375
 20
5750.9033203125
 10
-13579.791015625
 20
5628.9228515625
 10
-13518.1796875
 20
5506.984375
 10
-13456.521484375
 20
5385.0693359375
 10
-13394.8203125
 20
5263.1962890625
 10
-13333.068359375
 20
5141.349609375
 10
-13271.265625
 20
5019.537109375
 10
-13209.41015625
 20
4897.7509765625
 10
-13143.21875
 20
4767.5595703125
 10
-13076.9765625
 20
4637.3935546875
 10
-13010.67578125
 20
4507.2333984375
 10
-12944.333984375
 20
4377.0947265625
 10
-12877.939453125
 20
4246.943359375
 10
-12811.51171875
 20
4116.8095703125
 10
-12678.529296875
 20
3856.5
 10
-12532.865234375
 20
3571.6337890625
 10
-12387.033203125
 20
3286.6982421875
 10
-12314.04296875
 20
3144.19140625
 10
-12241.01953125
 20
3001.7021484375
 10
-12167.93359375
 20
2859.1748046875
 10
-12094.806640625
 20
2716.66796875
 10
-12021.611328125
 20
2574.138671875
 10
-11948.3671875
 20
2431.634765625
 10
-11875.05078125
 20
2289.1201171875
 10
-11801.677734375
 20
2146.634765625
 10
-11728.23046875
 20
2004.1533203125
 10
-11654.72265625
 20
1861.7041015625
 10
-11581.14453125
 20
1719.267578125
 10
-11507.50390625
 20
1576.8623046875
 10
-11396.001953125
 20
1361.51953125
 10
-11284.369140625
 20
1146.2373046875
 10
-11172.619140625
 20
931.0126953125
 10
-11060.767578125
 20
715.8427734375
 10
-10948.830078125
 20
500.7275390625
 10
-10836.814453125
 20
285.66748046875
 10
-10724.728515625
 20
70.67041015625
 10
-10612.568359375
 20
-144.24755859375
 10
-10508.580078125
 20
-343.27001953125
 10
-10404.474609375
 20
-542.23193359375
 10
-10351.908203125
 20
-642.57666015625
 10
-10299.298828125
 20
-742.90185546875
 10
-10247.662109375
 20
-841.28662109375
 10
-10195.982421875
 20
-939.64990234375
 10
-10143.806640625
 20
-1038.85400390625
 10
-10091.587890625
 20
-1138.037109375
 10
-10039.333984375
 20
-1237.201171875
 10
-9987.052734374998
 20
-1336.3486328125
 10
-9869.556640624998
 20
-1559.00390625
 10
-9808.544921874998
 20
-1674.69140625
 10
-9766.552734374998
 20
-1754.548828125
  0
LINE
  5
CF
100
AcDbEntity
  8
0
  6
ByLayer
 62
  256
370
   -1
100
AcDbLine
 10
-9284.330078124998
 20
-1431.69091796875
 11
-9311.970703124998
 21
-1679.15087890625
  0
LINE
  5
D0
100
AcDbEntity
  8
0
  6
ByLayer
 62
  256
370
   -1
100
AcDbLine
 10
-7648.134765624998
 20
-5837.33837890625
 11
-8981.416015624998
 21
-3267.404296875
  0
LINE
  5
D1
100
AcDbEntity
  8
0
  6
ByLayer
 62
  256
370
   -1
100
AcDbLine
 10
-18582.728515625
 20
-10041.73950195312
 11
-13514.7421875
 21
-10041.732421875
  0
LINE
  5
D2
100
AcDbEntity
  8
0
  6
ByLayer
 62
  256
370
   -1
100
AcDbLine
 10
-18582.728515625
 20
-6090.611206054688
 11
-13514.7421875
 21
-6090.618286132812
  0
LINE
  5
D3
100
AcDbEntity
  8
0
  6
ByLayer
 62
  256
370
   -1
100
AcDbLine
 10
-6475.146484374998
 20
-10044.34423828125
 11
-1044.029296875
 21
-10041.72998046875
  0
LINE
  5
D4
100
AcDbEntity
  8
0
  6
ByLayer
 62
  256
370
   -1
100
AcDbLine
 10
-6475.138671874998
 20
-6088.007446289062
 11
-980.341796875
 21
-6091.7763671875
  0
ENDSEC
  0
SECTION
  2
OBJECTS
  0
DICTIONARY
  5
C
330
0
100
AcDbDictionary
281
    1
  3
ACAD_GROUP
350
D
  0
DICTIONARY
  5
D
330
C
100
AcDbDictionary
281
    1
  0
ENDSEC
  0
EOF
